solid OpenSCAD_Model
  facet normal 1 -0 0
    outer loop
      vertex 18 2 2
      vertex 18 45 0
      vertex 18 45 2
    endloop
  endfacet
  facet normal 1 0 0
    outer loop
      vertex 18 45 0
      vertex 18 2 2
      vertex 18 2 0
    endloop
  endfacet
  facet normal -1 0 0
    outer loop
      vertex 20 2 0
      vertex 20 45 2
      vertex 20 45 0
    endloop
  endfacet
  facet normal -1 -0 0
    outer loop
      vertex 20 45 2
      vertex 20 2 0
      vertex 20 2 2
    endloop
  endfacet
  facet normal 0 -1 0
    outer loop
      vertex 18 45 0
      vertex 20 45 2
      vertex 18 45 2
    endloop
  endfacet
  facet normal 0 -1 -0
    outer loop
      vertex 20 45 2
      vertex 18 45 0
      vertex 20 45 0
    endloop
  endfacet
  facet normal 1 -0 0
    outer loop
      vertex 15 0 2
      vertex 15 2 0
      vertex 15 2 2
    endloop
  endfacet
  facet normal 1 0 0
    outer loop
      vertex 15 2 0
      vertex 15 0 2
      vertex 15 0 0
    endloop
  endfacet
  facet normal -1 0 0
    outer loop
      vertex 23 0 0
      vertex 23 2 2
      vertex 23 2 0
    endloop
  endfacet
  facet normal -1 -0 0
    outer loop
      vertex 23 2 2
      vertex 23 0 0
      vertex 23 0 2
    endloop
  endfacet
  facet normal 0 -1 0
    outer loop
      vertex 15 2 0
      vertex 18 2 2
      vertex 15 2 2
    endloop
  endfacet
  facet normal 0 -1 -0
    outer loop
      vertex 18 2 2
      vertex 15 2 0
      vertex 18 2 0
    endloop
  endfacet
  facet normal 0 -1 0
    outer loop
      vertex 20 2 0
      vertex 23 2 2
      vertex 20 2 2
    endloop
  endfacet
  facet normal 0 -1 -0
    outer loop
      vertex 23 2 2
      vertex 20 2 0
      vertex 23 2 0
    endloop
  endfacet
  facet normal 1 -0 0
    outer loop
      vertex 15 88 2
      vertex 15 90 0
      vertex 15 90 2
    endloop
  endfacet
  facet normal 1 0 0
    outer loop
      vertex 15 90 0
      vertex 15 88 2
      vertex 15 88 0
    endloop
  endfacet
  facet normal -1 0 0
    outer loop
      vertex 23 88 0
      vertex 23 90 2
      vertex 23 90 0
    endloop
  endfacet
  facet normal -1 -0 0
    outer loop
      vertex 23 90 2
      vertex 23 88 0
      vertex 23 88 2
    endloop
  endfacet
  facet normal 0 1 -0
    outer loop
      vertex 23 88 0
      vertex 15 88 2
      vertex 23 88 2
    endloop
  endfacet
  facet normal 0 1 0
    outer loop
      vertex 15 88 2
      vertex 23 88 0
      vertex 15 88 0
    endloop
  endfacet
  facet normal 1 -0 0
    outer loop
      vertex 37 2 2
      vertex 37 45 0
      vertex 37 45 2
    endloop
  endfacet
  facet normal 1 0 0
    outer loop
      vertex 37 45 0
      vertex 37 2 2
      vertex 37 2 0
    endloop
  endfacet
  facet normal -1 0 0
    outer loop
      vertex 39 2 0
      vertex 39 45 2
      vertex 39 45 0
    endloop
  endfacet
  facet normal -1 -0 0
    outer loop
      vertex 39 45 2
      vertex 39 2 0
      vertex 39 2 2
    endloop
  endfacet
  facet normal 0 -1 0
    outer loop
      vertex 37 45 0
      vertex 39 45 2
      vertex 37 45 2
    endloop
  endfacet
  facet normal 0 -1 -0
    outer loop
      vertex 39 45 2
      vertex 37 45 0
      vertex 39 45 0
    endloop
  endfacet
  facet normal 1 -0 0
    outer loop
      vertex 34 0 2
      vertex 34 2 0
      vertex 34 2 2
    endloop
  endfacet
  facet normal 1 0 0
    outer loop
      vertex 34 2 0
      vertex 34 0 2
      vertex 34 0 0
    endloop
  endfacet
  facet normal -1 0 0
    outer loop
      vertex 42 0 0
      vertex 42 2 2
      vertex 42 2 0
    endloop
  endfacet
  facet normal -1 -0 0
    outer loop
      vertex 42 2 2
      vertex 42 0 0
      vertex 42 0 2
    endloop
  endfacet
  facet normal 0 -1 0
    outer loop
      vertex 34 2 0
      vertex 37 2 2
      vertex 34 2 2
    endloop
  endfacet
  facet normal 0 -1 -0
    outer loop
      vertex 37 2 2
      vertex 34 2 0
      vertex 37 2 0
    endloop
  endfacet
  facet normal 0 -1 0
    outer loop
      vertex 39 2 0
      vertex 42 2 2
      vertex 39 2 2
    endloop
  endfacet
  facet normal 0 -1 -0
    outer loop
      vertex 42 2 2
      vertex 39 2 0
      vertex 42 2 0
    endloop
  endfacet
  facet normal 1 -0 0
    outer loop
      vertex 34 88 2
      vertex 34 90 0
      vertex 34 90 2
    endloop
  endfacet
  facet normal 1 0 0
    outer loop
      vertex 34 90 0
      vertex 34 88 2
      vertex 34 88 0
    endloop
  endfacet
  facet normal -1 0 0
    outer loop
      vertex 42 88 0
      vertex 42 90 2
      vertex 42 90 0
    endloop
  endfacet
  facet normal -1 -0 0
    outer loop
      vertex 42 90 2
      vertex 42 88 0
      vertex 42 88 2
    endloop
  endfacet
  facet normal 0 1 -0
    outer loop
      vertex 42 88 0
      vertex 34 88 2
      vertex 42 88 2
    endloop
  endfacet
  facet normal 0 1 0
    outer loop
      vertex 34 88 2
      vertex 42 88 0
      vertex 34 88 0
    endloop
  endfacet
  facet normal 1 -0 0
    outer loop
      vertex 56 2 2
      vertex 56 45 0
      vertex 56 45 2
    endloop
  endfacet
  facet normal 1 0 0
    outer loop
      vertex 56 45 0
      vertex 56 2 2
      vertex 56 2 0
    endloop
  endfacet
  facet normal -1 0 0
    outer loop
      vertex 58 2 0
      vertex 58 45 2
      vertex 58 45 0
    endloop
  endfacet
  facet normal -1 -0 0
    outer loop
      vertex 58 45 2
      vertex 58 2 0
      vertex 58 2 2
    endloop
  endfacet
  facet normal 0 -1 0
    outer loop
      vertex 56 45 0
      vertex 58 45 2
      vertex 56 45 2
    endloop
  endfacet
  facet normal 0 -1 -0
    outer loop
      vertex 58 45 2
      vertex 56 45 0
      vertex 58 45 0
    endloop
  endfacet
  facet normal 1 -0 0
    outer loop
      vertex 53 0 2
      vertex 53 2 0
      vertex 53 2 2
    endloop
  endfacet
  facet normal 1 0 0
    outer loop
      vertex 53 2 0
      vertex 53 0 2
      vertex 53 0 0
    endloop
  endfacet
  facet normal -1 0 0
    outer loop
      vertex 61 0 0
      vertex 61 2 2
      vertex 61 2 0
    endloop
  endfacet
  facet normal -1 -0 0
    outer loop
      vertex 61 2 2
      vertex 61 0 0
      vertex 61 0 2
    endloop
  endfacet
  facet normal 0 -1 0
    outer loop
      vertex 53 2 0
      vertex 56 2 2
      vertex 53 2 2
    endloop
  endfacet
  facet normal 0 -1 -0
    outer loop
      vertex 56 2 2
      vertex 53 2 0
      vertex 56 2 0
    endloop
  endfacet
  facet normal 0 -1 0
    outer loop
      vertex 58 2 0
      vertex 61 2 2
      vertex 58 2 2
    endloop
  endfacet
  facet normal 0 -1 -0
    outer loop
      vertex 61 2 2
      vertex 58 2 0
      vertex 61 2 0
    endloop
  endfacet
  facet normal 1 -0 0
    outer loop
      vertex 53 88 2
      vertex 53 90 0
      vertex 53 90 2
    endloop
  endfacet
  facet normal 1 0 0
    outer loop
      vertex 53 90 0
      vertex 53 88 2
      vertex 53 88 0
    endloop
  endfacet
  facet normal -1 0 0
    outer loop
      vertex 61 88 0
      vertex 61 90 2
      vertex 61 90 0
    endloop
  endfacet
  facet normal -1 -0 0
    outer loop
      vertex 61 90 2
      vertex 61 88 0
      vertex 61 88 2
    endloop
  endfacet
  facet normal 0 1 -0
    outer loop
      vertex 61 88 0
      vertex 53 88 2
      vertex 61 88 2
    endloop
  endfacet
  facet normal 0 1 0
    outer loop
      vertex 53 88 2
      vertex 61 88 0
      vertex 53 88 0
    endloop
  endfacet
  facet normal 1 -0 0
    outer loop
      vertex 75 2 2
      vertex 75 45 0
      vertex 75 45 2
    endloop
  endfacet
  facet normal 1 0 0
    outer loop
      vertex 75 45 0
      vertex 75 2 2
      vertex 75 2 0
    endloop
  endfacet
  facet normal -1 0 0
    outer loop
      vertex 77 2 0
      vertex 77 45 2
      vertex 77 45 0
    endloop
  endfacet
  facet normal -1 -0 0
    outer loop
      vertex 77 45 2
      vertex 77 2 0
      vertex 77 2 2
    endloop
  endfacet
  facet normal 0 -1 0
    outer loop
      vertex 75 45 0
      vertex 77 45 2
      vertex 75 45 2
    endloop
  endfacet
  facet normal 0 -1 -0
    outer loop
      vertex 77 45 2
      vertex 75 45 0
      vertex 77 45 0
    endloop
  endfacet
  facet normal 1 -0 0
    outer loop
      vertex 72 0 2
      vertex 72 2 0
      vertex 72 2 2
    endloop
  endfacet
  facet normal 1 0 0
    outer loop
      vertex 72 2 0
      vertex 72 0 2
      vertex 72 0 0
    endloop
  endfacet
  facet normal -1 0 0
    outer loop
      vertex 80 0 0
      vertex 80 2 2
      vertex 80 2 0
    endloop
  endfacet
  facet normal -1 -0 0
    outer loop
      vertex 80 2 2
      vertex 80 0 0
      vertex 80 0 2
    endloop
  endfacet
  facet normal 0 -1 0
    outer loop
      vertex 72 2 0
      vertex 75 2 2
      vertex 72 2 2
    endloop
  endfacet
  facet normal 0 -1 -0
    outer loop
      vertex 75 2 2
      vertex 72 2 0
      vertex 75 2 0
    endloop
  endfacet
  facet normal 0 -1 0
    outer loop
      vertex 77 2 0
      vertex 80 2 2
      vertex 77 2 2
    endloop
  endfacet
  facet normal 0 -1 -0
    outer loop
      vertex 80 2 2
      vertex 77 2 0
      vertex 80 2 0
    endloop
  endfacet
  facet normal 1 -0 0
    outer loop
      vertex 72 88 2
      vertex 72 90 0
      vertex 72 90 2
    endloop
  endfacet
  facet normal 1 0 0
    outer loop
      vertex 72 90 0
      vertex 72 88 2
      vertex 72 88 0
    endloop
  endfacet
  facet normal -1 0 0
    outer loop
      vertex 80 88 0
      vertex 80 90 2
      vertex 80 90 0
    endloop
  endfacet
  facet normal -1 -0 0
    outer loop
      vertex 80 90 2
      vertex 80 88 0
      vertex 80 88 2
    endloop
  endfacet
  facet normal 0 1 -0
    outer loop
      vertex 80 88 0
      vertex 72 88 2
      vertex 80 88 2
    endloop
  endfacet
  facet normal 0 1 0
    outer loop
      vertex 72 88 2
      vertex 80 88 0
      vertex 72 88 0
    endloop
  endfacet
  facet normal 1 -0 0
    outer loop
      vertex 94 2 2
      vertex 94 45 0
      vertex 94 45 2
    endloop
  endfacet
  facet normal 1 0 0
    outer loop
      vertex 94 45 0
      vertex 94 2 2
      vertex 94 2 0
    endloop
  endfacet
  facet normal -1 0 0
    outer loop
      vertex 96 2 0
      vertex 96 45 2
      vertex 96 45 0
    endloop
  endfacet
  facet normal -1 -0 0
    outer loop
      vertex 96 45 2
      vertex 96 2 0
      vertex 96 2 2
    endloop
  endfacet
  facet normal 0 -1 0
    outer loop
      vertex 94 45 0
      vertex 96 45 2
      vertex 94 45 2
    endloop
  endfacet
  facet normal 0 -1 -0
    outer loop
      vertex 96 45 2
      vertex 94 45 0
      vertex 96 45 0
    endloop
  endfacet
  facet normal 1 -0 0
    outer loop
      vertex 91 0 2
      vertex 91 2 0
      vertex 91 2 2
    endloop
  endfacet
  facet normal 1 0 0
    outer loop
      vertex 91 2 0
      vertex 91 0 2
      vertex 91 0 0
    endloop
  endfacet
  facet normal -1 0 0
    outer loop
      vertex 99 0 0
      vertex 99 2 2
      vertex 99 2 0
    endloop
  endfacet
  facet normal -1 -0 0
    outer loop
      vertex 99 2 2
      vertex 99 0 0
      vertex 99 0 2
    endloop
  endfacet
  facet normal 0 -1 0
    outer loop
      vertex 91 2 0
      vertex 94 2 2
      vertex 91 2 2
    endloop
  endfacet
  facet normal 0 -1 -0
    outer loop
      vertex 94 2 2
      vertex 91 2 0
      vertex 94 2 0
    endloop
  endfacet
  facet normal 0 -1 0
    outer loop
      vertex 96 2 0
      vertex 99 2 2
      vertex 96 2 2
    endloop
  endfacet
  facet normal 0 -1 -0
    outer loop
      vertex 99 2 2
      vertex 96 2 0
      vertex 99 2 0
    endloop
  endfacet
  facet normal 1 -0 0
    outer loop
      vertex 91 88 2
      vertex 91 90 0
      vertex 91 90 2
    endloop
  endfacet
  facet normal 1 0 0
    outer loop
      vertex 91 90 0
      vertex 91 88 2
      vertex 91 88 0
    endloop
  endfacet
  facet normal -1 0 0
    outer loop
      vertex 99 88 0
      vertex 99 90 2
      vertex 99 90 0
    endloop
  endfacet
  facet normal -1 -0 0
    outer loop
      vertex 99 90 2
      vertex 99 88 0
      vertex 99 88 2
    endloop
  endfacet
  facet normal 0 1 -0
    outer loop
      vertex 99 88 0
      vertex 91 88 2
      vertex 99 88 2
    endloop
  endfacet
  facet normal 0 1 0
    outer loop
      vertex 91 88 2
      vertex 99 88 0
      vertex 91 88 0
    endloop
  endfacet
  facet normal 1 -0 0
    outer loop
      vertex 113 2 2
      vertex 113 45 0
      vertex 113 45 2
    endloop
  endfacet
  facet normal 1 0 0
    outer loop
      vertex 113 45 0
      vertex 113 2 2
      vertex 113 2 0
    endloop
  endfacet
  facet normal -1 0 0
    outer loop
      vertex 115 2 0
      vertex 115 45 2
      vertex 115 45 0
    endloop
  endfacet
  facet normal -1 -0 0
    outer loop
      vertex 115 45 2
      vertex 115 2 0
      vertex 115 2 2
    endloop
  endfacet
  facet normal 0 -1 0
    outer loop
      vertex 113 45 0
      vertex 115 45 2
      vertex 113 45 2
    endloop
  endfacet
  facet normal 0 -1 -0
    outer loop
      vertex 115 45 2
      vertex 113 45 0
      vertex 115 45 0
    endloop
  endfacet
  facet normal 1 -0 0
    outer loop
      vertex 110 0 2
      vertex 110 2 0
      vertex 110 2 2
    endloop
  endfacet
  facet normal 1 0 0
    outer loop
      vertex 110 2 0
      vertex 110 0 2
      vertex 110 0 0
    endloop
  endfacet
  facet normal -1 0 0
    outer loop
      vertex 118 0 0
      vertex 118 2 2
      vertex 118 2 0
    endloop
  endfacet
  facet normal -1 -0 0
    outer loop
      vertex 118 2 2
      vertex 118 0 0
      vertex 118 0 2
    endloop
  endfacet
  facet normal 0 -1 0
    outer loop
      vertex 110 2 0
      vertex 113 2 2
      vertex 110 2 2
    endloop
  endfacet
  facet normal 0 -1 -0
    outer loop
      vertex 113 2 2
      vertex 110 2 0
      vertex 113 2 0
    endloop
  endfacet
  facet normal 0 -1 0
    outer loop
      vertex 115 2 0
      vertex 118 2 2
      vertex 115 2 2
    endloop
  endfacet
  facet normal 0 -1 -0
    outer loop
      vertex 118 2 2
      vertex 115 2 0
      vertex 118 2 0
    endloop
  endfacet
  facet normal 1 -0 0
    outer loop
      vertex 110 88 2
      vertex 110 90 0
      vertex 110 90 2
    endloop
  endfacet
  facet normal 1 0 0
    outer loop
      vertex 110 90 0
      vertex 110 88 2
      vertex 110 88 0
    endloop
  endfacet
  facet normal -1 0 0
    outer loop
      vertex 118 88 0
      vertex 118 90 2
      vertex 118 90 0
    endloop
  endfacet
  facet normal -1 -0 0
    outer loop
      vertex 118 90 2
      vertex 118 88 0
      vertex 118 88 2
    endloop
  endfacet
  facet normal 0 1 -0
    outer loop
      vertex 118 88 0
      vertex 110 88 2
      vertex 118 88 2
    endloop
  endfacet
  facet normal 0 1 0
    outer loop
      vertex 110 88 2
      vertex 118 88 0
      vertex 110 88 0
    endloop
  endfacet
  facet normal 1 -0 0
    outer loop
      vertex 132 2 2
      vertex 132 45 0
      vertex 132 45 2
    endloop
  endfacet
  facet normal 1 0 0
    outer loop
      vertex 132 45 0
      vertex 132 2 2
      vertex 132 2 0
    endloop
  endfacet
  facet normal -1 0 0
    outer loop
      vertex 134 2 0
      vertex 134 45 2
      vertex 134 45 0
    endloop
  endfacet
  facet normal -1 -0 0
    outer loop
      vertex 134 45 2
      vertex 134 2 0
      vertex 134 2 2
    endloop
  endfacet
  facet normal 0 -1 0
    outer loop
      vertex 132 45 0
      vertex 134 45 2
      vertex 132 45 2
    endloop
  endfacet
  facet normal 0 -1 -0
    outer loop
      vertex 134 45 2
      vertex 132 45 0
      vertex 134 45 0
    endloop
  endfacet
  facet normal 1 -0 0
    outer loop
      vertex 129 0 2
      vertex 129 2 0
      vertex 129 2 2
    endloop
  endfacet
  facet normal 1 0 0
    outer loop
      vertex 129 2 0
      vertex 129 0 2
      vertex 129 0 0
    endloop
  endfacet
  facet normal -1 0 0
    outer loop
      vertex 137 0 0
      vertex 137 2 2
      vertex 137 2 0
    endloop
  endfacet
  facet normal -1 -0 0
    outer loop
      vertex 137 2 2
      vertex 137 0 0
      vertex 137 0 2
    endloop
  endfacet
  facet normal 0 -1 0
    outer loop
      vertex 129 2 0
      vertex 132 2 2
      vertex 129 2 2
    endloop
  endfacet
  facet normal 0 -1 -0
    outer loop
      vertex 132 2 2
      vertex 129 2 0
      vertex 132 2 0
    endloop
  endfacet
  facet normal 0 -1 0
    outer loop
      vertex 134 2 0
      vertex 137 2 2
      vertex 134 2 2
    endloop
  endfacet
  facet normal 0 -1 -0
    outer loop
      vertex 137 2 2
      vertex 134 2 0
      vertex 137 2 0
    endloop
  endfacet
  facet normal 1 -0 0
    outer loop
      vertex 129 88 2
      vertex 129 90 0
      vertex 129 90 2
    endloop
  endfacet
  facet normal 1 0 0
    outer loop
      vertex 129 90 0
      vertex 129 88 2
      vertex 129 88 0
    endloop
  endfacet
  facet normal -1 0 0
    outer loop
      vertex 137 88 0
      vertex 137 90 2
      vertex 137 90 0
    endloop
  endfacet
  facet normal -1 -0 0
    outer loop
      vertex 137 90 2
      vertex 137 88 0
      vertex 137 88 2
    endloop
  endfacet
  facet normal 0 1 -0
    outer loop
      vertex 137 88 0
      vertex 129 88 2
      vertex 137 88 2
    endloop
  endfacet
  facet normal 0 1 0
    outer loop
      vertex 129 88 2
      vertex 137 88 0
      vertex 129 88 0
    endloop
  endfacet
  facet normal -1 0 0
    outer loop
      vertex 0 0 0
      vertex 0 90 2
      vertex 0 90 0
    endloop
  endfacet
  facet normal -1 -0 0
    outer loop
      vertex 0 90 2
      vertex 0 0 0
      vertex 0 0 2
    endloop
  endfacet
  facet normal -0 0 1
    outer loop
      vertex 0 90 2
      vertex 15 88 2
      vertex 15 90 2
    endloop
  endfacet
  facet normal 0 0 1
    outer loop
      vertex 15 88 2
      vertex 0 90 2
      vertex 15 2 2
    endloop
  endfacet
  facet normal 0 0 1
    outer loop
      vertex 0 0 2
      vertex 15 2 2
      vertex 0 90 2
    endloop
  endfacet
  facet normal 0 0 1
    outer loop
      vertex 15 2 2
      vertex 0 0 2
      vertex 15 0 2
    endloop
  endfacet
  facet normal 0 0 1
    outer loop
      vertex 34 2 2
      vertex 20 45 2
      vertex 23 2 2
    endloop
  endfacet
  facet normal 0 0 1
    outer loop
      vertex 23 88 2
      vertex 18 45 2
      vertex 20 45 2
    endloop
  endfacet
  facet normal -0 0 1
    outer loop
      vertex 15 88 2
      vertex 18 45 2
      vertex 23 88 2
    endloop
  endfacet
  facet normal 0 0 1
    outer loop
      vertex 15 2 2
      vertex 18 45 2
      vertex 15 88 2
    endloop
  endfacet
  facet normal 0 0 1
    outer loop
      vertex 18 45 2
      vertex 15 2 2
      vertex 18 2 2
    endloop
  endfacet
  facet normal 0 0 1
    outer loop
      vertex 23 88 2
      vertex 34 88 2
      vertex 34 90 2
    endloop
  endfacet
  facet normal 0 0 1
    outer loop
      vertex 20 45 2
      vertex 34 88 2
      vertex 23 88 2
    endloop
  endfacet
  facet normal 0 0 1
    outer loop
      vertex 23 88 2
      vertex 34 90 2
      vertex 23 90 2
    endloop
  endfacet
  facet normal 0 0 1
    outer loop
      vertex 37 45 2
      vertex 20 45 2
      vertex 34 2 2
    endloop
  endfacet
  facet normal 0 0 1
    outer loop
      vertex 34 2 2
      vertex 23 2 2
      vertex 34 0 2
    endloop
  endfacet
  facet normal 0 0 1
    outer loop
      vertex 34 0 2
      vertex 23 2 2
      vertex 23 0 2
    endloop
  endfacet
  facet normal 0 0 1
    outer loop
      vertex 53 2 2
      vertex 39 45 2
      vertex 42 2 2
    endloop
  endfacet
  facet normal 0 0 1
    outer loop
      vertex 42 88 2
      vertex 37 45 2
      vertex 39 45 2
    endloop
  endfacet
  facet normal -0 0 1
    outer loop
      vertex 34 88 2
      vertex 37 45 2
      vertex 42 88 2
    endloop
  endfacet
  facet normal 0 0 1
    outer loop
      vertex 20 45 2
      vertex 37 45 2
      vertex 34 88 2
    endloop
  endfacet
  facet normal 0 0 1
    outer loop
      vertex 37 45 2
      vertex 34 2 2
      vertex 37 2 2
    endloop
  endfacet
  facet normal 0 0 1
    outer loop
      vertex 42 88 2
      vertex 53 88 2
      vertex 53 90 2
    endloop
  endfacet
  facet normal 0 0 1
    outer loop
      vertex 39 45 2
      vertex 53 88 2
      vertex 42 88 2
    endloop
  endfacet
  facet normal 0 0 1
    outer loop
      vertex 42 88 2
      vertex 53 90 2
      vertex 42 90 2
    endloop
  endfacet
  facet normal 0 0 1
    outer loop
      vertex 56 45 2
      vertex 39 45 2
      vertex 53 2 2
    endloop
  endfacet
  facet normal 0 0 1
    outer loop
      vertex 53 2 2
      vertex 42 2 2
      vertex 53 0 2
    endloop
  endfacet
  facet normal 0 0 1
    outer loop
      vertex 53 0 2
      vertex 42 2 2
      vertex 42 0 2
    endloop
  endfacet
  facet normal 0 0 1
    outer loop
      vertex 72 2 2
      vertex 58 45 2
      vertex 61 2 2
    endloop
  endfacet
  facet normal 0 0 1
    outer loop
      vertex 61 88 2
      vertex 56 45 2
      vertex 58 45 2
    endloop
  endfacet
  facet normal -0 0 1
    outer loop
      vertex 53 88 2
      vertex 56 45 2
      vertex 61 88 2
    endloop
  endfacet
  facet normal 0 0 1
    outer loop
      vertex 39 45 2
      vertex 56 45 2
      vertex 53 88 2
    endloop
  endfacet
  facet normal 0 0 1
    outer loop
      vertex 56 45 2
      vertex 53 2 2
      vertex 56 2 2
    endloop
  endfacet
  facet normal 0 0 1
    outer loop
      vertex 61 88 2
      vertex 72 88 2
      vertex 72 90 2
    endloop
  endfacet
  facet normal 0 0 1
    outer loop
      vertex 58 45 2
      vertex 72 88 2
      vertex 61 88 2
    endloop
  endfacet
  facet normal 0 0 1
    outer loop
      vertex 61 88 2
      vertex 72 90 2
      vertex 61 90 2
    endloop
  endfacet
  facet normal 0 0 1
    outer loop
      vertex 75 45 2
      vertex 58 45 2
      vertex 72 2 2
    endloop
  endfacet
  facet normal 0 0 1
    outer loop
      vertex 72 2 2
      vertex 61 2 2
      vertex 72 0 2
    endloop
  endfacet
  facet normal 0 0 1
    outer loop
      vertex 72 0 2
      vertex 61 2 2
      vertex 61 0 2
    endloop
  endfacet
  facet normal 0 0 1
    outer loop
      vertex 91 2 2
      vertex 77 45 2
      vertex 80 2 2
    endloop
  endfacet
  facet normal 0 0 1
    outer loop
      vertex 80 88 2
      vertex 75 45 2
      vertex 77 45 2
    endloop
  endfacet
  facet normal -0 0 1
    outer loop
      vertex 72 88 2
      vertex 75 45 2
      vertex 80 88 2
    endloop
  endfacet
  facet normal 0 0 1
    outer loop
      vertex 58 45 2
      vertex 75 45 2
      vertex 72 88 2
    endloop
  endfacet
  facet normal 0 0 1
    outer loop
      vertex 75 45 2
      vertex 72 2 2
      vertex 75 2 2
    endloop
  endfacet
  facet normal 0 0 1
    outer loop
      vertex 80 88 2
      vertex 91 88 2
      vertex 91 90 2
    endloop
  endfacet
  facet normal 0 0 1
    outer loop
      vertex 77 45 2
      vertex 91 88 2
      vertex 80 88 2
    endloop
  endfacet
  facet normal 0 0 1
    outer loop
      vertex 80 88 2
      vertex 91 90 2
      vertex 80 90 2
    endloop
  endfacet
  facet normal 0 0 1
    outer loop
      vertex 94 45 2
      vertex 77 45 2
      vertex 91 2 2
    endloop
  endfacet
  facet normal 0 0 1
    outer loop
      vertex 91 2 2
      vertex 80 2 2
      vertex 91 0 2
    endloop
  endfacet
  facet normal 0 0 1
    outer loop
      vertex 91 0 2
      vertex 80 2 2
      vertex 80 0 2
    endloop
  endfacet
  facet normal 0 0 1
    outer loop
      vertex 110 2 2
      vertex 96 45 2
      vertex 99 2 2
    endloop
  endfacet
  facet normal 0 0 1
    outer loop
      vertex 99 88 2
      vertex 94 45 2
      vertex 96 45 2
    endloop
  endfacet
  facet normal -0 0 1
    outer loop
      vertex 91 88 2
      vertex 94 45 2
      vertex 99 88 2
    endloop
  endfacet
  facet normal 0 0 1
    outer loop
      vertex 77 45 2
      vertex 94 45 2
      vertex 91 88 2
    endloop
  endfacet
  facet normal 0 0 1
    outer loop
      vertex 94 45 2
      vertex 91 2 2
      vertex 94 2 2
    endloop
  endfacet
  facet normal 0 0 1
    outer loop
      vertex 99 88 2
      vertex 110 88 2
      vertex 110 90 2
    endloop
  endfacet
  facet normal 0 0 1
    outer loop
      vertex 96 45 2
      vertex 110 88 2
      vertex 99 88 2
    endloop
  endfacet
  facet normal 0 0 1
    outer loop
      vertex 99 88 2
      vertex 110 90 2
      vertex 99 90 2
    endloop
  endfacet
  facet normal 0 0 1
    outer loop
      vertex 113 45 2
      vertex 96 45 2
      vertex 110 2 2
    endloop
  endfacet
  facet normal 0 0 1
    outer loop
      vertex 110 2 2
      vertex 99 2 2
      vertex 110 0 2
    endloop
  endfacet
  facet normal 0 0 1
    outer loop
      vertex 110 0 2
      vertex 99 2 2
      vertex 99 0 2
    endloop
  endfacet
  facet normal 0 0 1
    outer loop
      vertex 129 2 2
      vertex 115 45 2
      vertex 118 2 2
    endloop
  endfacet
  facet normal 0 0 1
    outer loop
      vertex 118 88 2
      vertex 113 45 2
      vertex 115 45 2
    endloop
  endfacet
  facet normal -0 0 1
    outer loop
      vertex 110 88 2
      vertex 113 45 2
      vertex 118 88 2
    endloop
  endfacet
  facet normal 0 0 1
    outer loop
      vertex 96 45 2
      vertex 113 45 2
      vertex 110 88 2
    endloop
  endfacet
  facet normal 0 0 1
    outer loop
      vertex 113 45 2
      vertex 110 2 2
      vertex 113 2 2
    endloop
  endfacet
  facet normal 0 0 1
    outer loop
      vertex 118 88 2
      vertex 129 88 2
      vertex 129 90 2
    endloop
  endfacet
  facet normal 0 0 1
    outer loop
      vertex 115 45 2
      vertex 129 88 2
      vertex 118 88 2
    endloop
  endfacet
  facet normal 0 0 1
    outer loop
      vertex 118 88 2
      vertex 129 90 2
      vertex 118 90 2
    endloop
  endfacet
  facet normal 0 0 1
    outer loop
      vertex 132 45 2
      vertex 115 45 2
      vertex 129 2 2
    endloop
  endfacet
  facet normal 0 0 1
    outer loop
      vertex 129 2 2
      vertex 118 2 2
      vertex 129 0 2
    endloop
  endfacet
  facet normal 0 0 1
    outer loop
      vertex 129 0 2
      vertex 118 2 2
      vertex 118 0 2
    endloop
  endfacet
  facet normal 0 0 1
    outer loop
      vertex 152 0 2
      vertex 134 45 2
      vertex 137 2 2
    endloop
  endfacet
  facet normal 0 0 1
    outer loop
      vertex 137 88 2
      vertex 132 45 2
      vertex 134 45 2
    endloop
  endfacet
  facet normal -0 0 1
    outer loop
      vertex 129 88 2
      vertex 132 45 2
      vertex 137 88 2
    endloop
  endfacet
  facet normal 0 0 1
    outer loop
      vertex 115 45 2
      vertex 132 45 2
      vertex 129 88 2
    endloop
  endfacet
  facet normal 0 0 1
    outer loop
      vertex 132 45 2
      vertex 129 2 2
      vertex 132 2 2
    endloop
  endfacet
  facet normal 0 0 1
    outer loop
      vertex 137 88 2
      vertex 152 90 2
      vertex 137 90 2
    endloop
  endfacet
  facet normal 0 0 1
    outer loop
      vertex 134 45 2
      vertex 152 90 2
      vertex 137 88 2
    endloop
  endfacet
  facet normal 0 0 1
    outer loop
      vertex 152 90 2
      vertex 134 45 2
      vertex 152 0 2
    endloop
  endfacet
  facet normal 0 0 1
    outer loop
      vertex 152 0 2
      vertex 137 2 2
      vertex 137 0 2
    endloop
  endfacet
  facet normal 0 0 1
    outer loop
      vertex 137 2 2
      vertex 134 45 2
      vertex 134 2 2
    endloop
  endfacet
  facet normal 0 0 1
    outer loop
      vertex 118 2 2
      vertex 115 45 2
      vertex 115 2 2
    endloop
  endfacet
  facet normal 0 0 1
    outer loop
      vertex 99 2 2
      vertex 96 45 2
      vertex 96 2 2
    endloop
  endfacet
  facet normal 0 0 1
    outer loop
      vertex 80 2 2
      vertex 77 45 2
      vertex 77 2 2
    endloop
  endfacet
  facet normal 0 0 1
    outer loop
      vertex 61 2 2
      vertex 58 45 2
      vertex 58 2 2
    endloop
  endfacet
  facet normal 0 0 1
    outer loop
      vertex 42 2 2
      vertex 39 45 2
      vertex 39 2 2
    endloop
  endfacet
  facet normal 0 0 1
    outer loop
      vertex 23 2 2
      vertex 20 45 2
      vertex 20 2 2
    endloop
  endfacet
  facet normal 1 -0 0
    outer loop
      vertex 152 0 2
      vertex 152 90 0
      vertex 152 90 2
    endloop
  endfacet
  facet normal 1 0 0
    outer loop
      vertex 152 90 0
      vertex 152 0 2
      vertex 152 0 0
    endloop
  endfacet
  facet normal 0 1 -0
    outer loop
      vertex 152 90 0
      vertex 137 90 2
      vertex 152 90 2
    endloop
  endfacet
  facet normal 0 1 0
    outer loop
      vertex 137 90 2
      vertex 152 90 0
      vertex 137 90 0
    endloop
  endfacet
  facet normal 0 1 -0
    outer loop
      vertex 15 90 0
      vertex 0 90 2
      vertex 15 90 2
    endloop
  endfacet
  facet normal 0 1 0
    outer loop
      vertex 0 90 2
      vertex 15 90 0
      vertex 0 90 0
    endloop
  endfacet
  facet normal 0 1 -0
    outer loop
      vertex 34 90 0
      vertex 23 90 2
      vertex 34 90 2
    endloop
  endfacet
  facet normal 0 1 0
    outer loop
      vertex 23 90 2
      vertex 34 90 0
      vertex 23 90 0
    endloop
  endfacet
  facet normal 0 1 -0
    outer loop
      vertex 53 90 0
      vertex 42 90 2
      vertex 53 90 2
    endloop
  endfacet
  facet normal 0 1 0
    outer loop
      vertex 42 90 2
      vertex 53 90 0
      vertex 42 90 0
    endloop
  endfacet
  facet normal 0 1 -0
    outer loop
      vertex 72 90 0
      vertex 61 90 2
      vertex 72 90 2
    endloop
  endfacet
  facet normal 0 1 0
    outer loop
      vertex 61 90 2
      vertex 72 90 0
      vertex 61 90 0
    endloop
  endfacet
  facet normal 0 1 -0
    outer loop
      vertex 91 90 0
      vertex 80 90 2
      vertex 91 90 2
    endloop
  endfacet
  facet normal 0 1 0
    outer loop
      vertex 80 90 2
      vertex 91 90 0
      vertex 80 90 0
    endloop
  endfacet
  facet normal 0 1 -0
    outer loop
      vertex 110 90 0
      vertex 99 90 2
      vertex 110 90 2
    endloop
  endfacet
  facet normal 0 1 0
    outer loop
      vertex 99 90 2
      vertex 110 90 0
      vertex 99 90 0
    endloop
  endfacet
  facet normal 0 1 -0
    outer loop
      vertex 129 90 0
      vertex 118 90 2
      vertex 129 90 2
    endloop
  endfacet
  facet normal 0 1 0
    outer loop
      vertex 118 90 2
      vertex 129 90 0
      vertex 118 90 0
    endloop
  endfacet
  facet normal 0 0 -1
    outer loop
      vertex 18 2 0
      vertex 15 2 0
      vertex 18 45 0
    endloop
  endfacet
  facet normal 0 0 -1
    outer loop
      vertex 37 2 0
      vertex 34 2 0
      vertex 37 45 0
    endloop
  endfacet
  facet normal 0 0 -1
    outer loop
      vertex 56 2 0
      vertex 53 2 0
      vertex 56 45 0
    endloop
  endfacet
  facet normal 0 0 -1
    outer loop
      vertex 75 2 0
      vertex 72 2 0
      vertex 75 45 0
    endloop
  endfacet
  facet normal 0 0 -1
    outer loop
      vertex 94 2 0
      vertex 91 2 0
      vertex 94 45 0
    endloop
  endfacet
  facet normal 0 0 -1
    outer loop
      vertex 113 2 0
      vertex 110 2 0
      vertex 113 45 0
    endloop
  endfacet
  facet normal 0 0 -1
    outer loop
      vertex 132 2 0
      vertex 129 2 0
      vertex 132 45 0
    endloop
  endfacet
  facet normal 0 0 -1
    outer loop
      vertex 134 45 0
      vertex 137 2 0
      vertex 134 2 0
    endloop
  endfacet
  facet normal 0 0 -1
    outer loop
      vertex 137 2 0
      vertex 134 45 0
      vertex 137 88 0
    endloop
  endfacet
  facet normal 0 0 -1
    outer loop
      vertex 132 45 0
      vertex 137 88 0
      vertex 134 45 0
    endloop
  endfacet
  facet normal 0 0 -1
    outer loop
      vertex 132 45 0
      vertex 129 88 0
      vertex 137 88 0
    endloop
  endfacet
  facet normal 0 0 -1
    outer loop
      vertex 118 2 0
      vertex 132 45 0
      vertex 129 2 0
    endloop
  endfacet
  facet normal 0 0 -1
    outer loop
      vertex 137 2 0
      vertex 152 0 0
      vertex 137 0 0
    endloop
  endfacet
  facet normal 0 0 -1
    outer loop
      vertex 152 0 0
      vertex 137 2 0
      vertex 152 90 0
    endloop
  endfacet
  facet normal 0 0 -1
    outer loop
      vertex 137 88 0
      vertex 152 90 0
      vertex 137 2 0
    endloop
  endfacet
  facet normal -0 0 -1
    outer loop
      vertex 152 90 0
      vertex 137 88 0
      vertex 137 90 0
    endloop
  endfacet
  facet normal 0 0 -1
    outer loop
      vertex 115 45 0
      vertex 118 2 0
      vertex 115 2 0
    endloop
  endfacet
  facet normal 0 0 -1
    outer loop
      vertex 132 45 0
      vertex 115 45 0
      vertex 118 88 0
    endloop
  endfacet
  facet normal 0 0 -1
    outer loop
      vertex 113 45 0
      vertex 118 88 0
      vertex 115 45 0
    endloop
  endfacet
  facet normal 0 0 -1
    outer loop
      vertex 113 45 0
      vertex 110 88 0
      vertex 118 88 0
    endloop
  endfacet
  facet normal 0 0 -1
    outer loop
      vertex 99 2 0
      vertex 113 45 0
      vertex 110 2 0
    endloop
  endfacet
  facet normal 0 0 -1
    outer loop
      vertex 118 2 0
      vertex 129 2 0
      vertex 129 0 0
    endloop
  endfacet
  facet normal 0 0 -1
    outer loop
      vertex 115 45 0
      vertex 132 45 0
      vertex 118 2 0
    endloop
  endfacet
  facet normal 0 0 -1
    outer loop
      vertex 118 2 0
      vertex 129 0 0
      vertex 118 0 0
    endloop
  endfacet
  facet normal 0 0 -1
    outer loop
      vertex 132 45 0
      vertex 118 88 0
      vertex 129 88 0
    endloop
  endfacet
  facet normal 0 0 -1
    outer loop
      vertex 129 88 0
      vertex 118 88 0
      vertex 129 90 0
    endloop
  endfacet
  facet normal -0 0 -1
    outer loop
      vertex 129 90 0
      vertex 118 88 0
      vertex 118 90 0
    endloop
  endfacet
  facet normal 0 0 -1
    outer loop
      vertex 96 45 0
      vertex 99 2 0
      vertex 96 2 0
    endloop
  endfacet
  facet normal 0 0 -1
    outer loop
      vertex 113 45 0
      vertex 96 45 0
      vertex 99 88 0
    endloop
  endfacet
  facet normal 0 0 -1
    outer loop
      vertex 94 45 0
      vertex 99 88 0
      vertex 96 45 0
    endloop
  endfacet
  facet normal 0 0 -1
    outer loop
      vertex 94 45 0
      vertex 91 88 0
      vertex 99 88 0
    endloop
  endfacet
  facet normal 0 0 -1
    outer loop
      vertex 80 2 0
      vertex 94 45 0
      vertex 91 2 0
    endloop
  endfacet
  facet normal 0 0 -1
    outer loop
      vertex 99 2 0
      vertex 110 2 0
      vertex 110 0 0
    endloop
  endfacet
  facet normal 0 0 -1
    outer loop
      vertex 96 45 0
      vertex 113 45 0
      vertex 99 2 0
    endloop
  endfacet
  facet normal 0 0 -1
    outer loop
      vertex 99 2 0
      vertex 110 0 0
      vertex 99 0 0
    endloop
  endfacet
  facet normal 0 0 -1
    outer loop
      vertex 113 45 0
      vertex 99 88 0
      vertex 110 88 0
    endloop
  endfacet
  facet normal 0 0 -1
    outer loop
      vertex 110 88 0
      vertex 99 88 0
      vertex 110 90 0
    endloop
  endfacet
  facet normal -0 0 -1
    outer loop
      vertex 110 90 0
      vertex 99 88 0
      vertex 99 90 0
    endloop
  endfacet
  facet normal 0 0 -1
    outer loop
      vertex 77 45 0
      vertex 80 2 0
      vertex 77 2 0
    endloop
  endfacet
  facet normal 0 0 -1
    outer loop
      vertex 94 45 0
      vertex 77 45 0
      vertex 80 88 0
    endloop
  endfacet
  facet normal 0 0 -1
    outer loop
      vertex 75 45 0
      vertex 80 88 0
      vertex 77 45 0
    endloop
  endfacet
  facet normal 0 0 -1
    outer loop
      vertex 75 45 0
      vertex 72 88 0
      vertex 80 88 0
    endloop
  endfacet
  facet normal 0 0 -1
    outer loop
      vertex 61 2 0
      vertex 75 45 0
      vertex 72 2 0
    endloop
  endfacet
  facet normal 0 0 -1
    outer loop
      vertex 80 2 0
      vertex 91 2 0
      vertex 91 0 0
    endloop
  endfacet
  facet normal 0 0 -1
    outer loop
      vertex 77 45 0
      vertex 94 45 0
      vertex 80 2 0
    endloop
  endfacet
  facet normal 0 0 -1
    outer loop
      vertex 80 2 0
      vertex 91 0 0
      vertex 80 0 0
    endloop
  endfacet
  facet normal 0 0 -1
    outer loop
      vertex 94 45 0
      vertex 80 88 0
      vertex 91 88 0
    endloop
  endfacet
  facet normal 0 0 -1
    outer loop
      vertex 91 88 0
      vertex 80 88 0
      vertex 91 90 0
    endloop
  endfacet
  facet normal -0 0 -1
    outer loop
      vertex 91 90 0
      vertex 80 88 0
      vertex 80 90 0
    endloop
  endfacet
  facet normal 0 0 -1
    outer loop
      vertex 58 45 0
      vertex 61 2 0
      vertex 58 2 0
    endloop
  endfacet
  facet normal 0 0 -1
    outer loop
      vertex 75 45 0
      vertex 58 45 0
      vertex 61 88 0
    endloop
  endfacet
  facet normal 0 0 -1
    outer loop
      vertex 56 45 0
      vertex 61 88 0
      vertex 58 45 0
    endloop
  endfacet
  facet normal 0 0 -1
    outer loop
      vertex 56 45 0
      vertex 53 88 0
      vertex 61 88 0
    endloop
  endfacet
  facet normal 0 0 -1
    outer loop
      vertex 42 2 0
      vertex 56 45 0
      vertex 53 2 0
    endloop
  endfacet
  facet normal 0 0 -1
    outer loop
      vertex 61 2 0
      vertex 72 2 0
      vertex 72 0 0
    endloop
  endfacet
  facet normal 0 0 -1
    outer loop
      vertex 58 45 0
      vertex 75 45 0
      vertex 61 2 0
    endloop
  endfacet
  facet normal 0 0 -1
    outer loop
      vertex 61 2 0
      vertex 72 0 0
      vertex 61 0 0
    endloop
  endfacet
  facet normal 0 0 -1
    outer loop
      vertex 75 45 0
      vertex 61 88 0
      vertex 72 88 0
    endloop
  endfacet
  facet normal 0 0 -1
    outer loop
      vertex 72 88 0
      vertex 61 88 0
      vertex 72 90 0
    endloop
  endfacet
  facet normal -0 0 -1
    outer loop
      vertex 72 90 0
      vertex 61 88 0
      vertex 61 90 0
    endloop
  endfacet
  facet normal 0 0 -1
    outer loop
      vertex 39 45 0
      vertex 42 2 0
      vertex 39 2 0
    endloop
  endfacet
  facet normal 0 0 -1
    outer loop
      vertex 56 45 0
      vertex 39 45 0
      vertex 42 88 0
    endloop
  endfacet
  facet normal 0 0 -1
    outer loop
      vertex 37 45 0
      vertex 42 88 0
      vertex 39 45 0
    endloop
  endfacet
  facet normal 0 0 -1
    outer loop
      vertex 37 45 0
      vertex 34 88 0
      vertex 42 88 0
    endloop
  endfacet
  facet normal 0 0 -1
    outer loop
      vertex 23 2 0
      vertex 37 45 0
      vertex 34 2 0
    endloop
  endfacet
  facet normal 0 0 -1
    outer loop
      vertex 42 2 0
      vertex 53 2 0
      vertex 53 0 0
    endloop
  endfacet
  facet normal 0 0 -1
    outer loop
      vertex 39 45 0
      vertex 56 45 0
      vertex 42 2 0
    endloop
  endfacet
  facet normal 0 0 -1
    outer loop
      vertex 42 2 0
      vertex 53 0 0
      vertex 42 0 0
    endloop
  endfacet
  facet normal 0 0 -1
    outer loop
      vertex 56 45 0
      vertex 42 88 0
      vertex 53 88 0
    endloop
  endfacet
  facet normal 0 0 -1
    outer loop
      vertex 53 88 0
      vertex 42 88 0
      vertex 53 90 0
    endloop
  endfacet
  facet normal -0 0 -1
    outer loop
      vertex 53 90 0
      vertex 42 88 0
      vertex 42 90 0
    endloop
  endfacet
  facet normal 0 0 -1
    outer loop
      vertex 20 45 0
      vertex 23 2 0
      vertex 20 2 0
    endloop
  endfacet
  facet normal 0 0 -1
    outer loop
      vertex 37 45 0
      vertex 20 45 0
      vertex 23 88 0
    endloop
  endfacet
  facet normal 0 0 -1
    outer loop
      vertex 18 45 0
      vertex 23 88 0
      vertex 20 45 0
    endloop
  endfacet
  facet normal 0 0 -1
    outer loop
      vertex 18 45 0
      vertex 15 88 0
      vertex 23 88 0
    endloop
  endfacet
  facet normal 0 0 -1
    outer loop
      vertex 0 0 0
      vertex 18 45 0
      vertex 15 2 0
    endloop
  endfacet
  facet normal 0 0 -1
    outer loop
      vertex 23 2 0
      vertex 34 2 0
      vertex 34 0 0
    endloop
  endfacet
  facet normal 0 0 -1
    outer loop
      vertex 20 45 0
      vertex 37 45 0
      vertex 23 2 0
    endloop
  endfacet
  facet normal 0 0 -1
    outer loop
      vertex 23 2 0
      vertex 34 0 0
      vertex 23 0 0
    endloop
  endfacet
  facet normal 0 0 -1
    outer loop
      vertex 37 45 0
      vertex 23 88 0
      vertex 34 88 0
    endloop
  endfacet
  facet normal 0 0 -1
    outer loop
      vertex 34 88 0
      vertex 23 88 0
      vertex 34 90 0
    endloop
  endfacet
  facet normal -0 0 -1
    outer loop
      vertex 34 90 0
      vertex 23 88 0
      vertex 23 90 0
    endloop
  endfacet
  facet normal 0 0 -1
    outer loop
      vertex 0 0 0
      vertex 15 2 0
      vertex 15 0 0
    endloop
  endfacet
  facet normal 0 0 -1
    outer loop
      vertex 0 90 0
      vertex 18 45 0
      vertex 0 0 0
    endloop
  endfacet
  facet normal 0 0 -1
    outer loop
      vertex 18 45 0
      vertex 0 90 0
      vertex 15 88 0
    endloop
  endfacet
  facet normal 0 0 -1
    outer loop
      vertex 15 88 0
      vertex 0 90 0
      vertex 15 90 0
    endloop
  endfacet
  facet normal 0 -1 0
    outer loop
      vertex 137 0 0
      vertex 152 0 2
      vertex 137 0 2
    endloop
  endfacet
  facet normal 0 -1 -0
    outer loop
      vertex 152 0 2
      vertex 137 0 0
      vertex 152 0 0
    endloop
  endfacet
  facet normal 0 -1 0
    outer loop
      vertex 0 0 0
      vertex 15 0 2
      vertex 0 0 2
    endloop
  endfacet
  facet normal 0 -1 -0
    outer loop
      vertex 15 0 2
      vertex 0 0 0
      vertex 15 0 0
    endloop
  endfacet
  facet normal 0 -1 0
    outer loop
      vertex 23 0 0
      vertex 34 0 2
      vertex 23 0 2
    endloop
  endfacet
  facet normal 0 -1 -0
    outer loop
      vertex 34 0 2
      vertex 23 0 0
      vertex 34 0 0
    endloop
  endfacet
  facet normal 0 -1 0
    outer loop
      vertex 42 0 0
      vertex 53 0 2
      vertex 42 0 2
    endloop
  endfacet
  facet normal 0 -1 -0
    outer loop
      vertex 53 0 2
      vertex 42 0 0
      vertex 53 0 0
    endloop
  endfacet
  facet normal 0 -1 0
    outer loop
      vertex 61 0 0
      vertex 72 0 2
      vertex 61 0 2
    endloop
  endfacet
  facet normal 0 -1 -0
    outer loop
      vertex 72 0 2
      vertex 61 0 0
      vertex 72 0 0
    endloop
  endfacet
  facet normal 0 -1 0
    outer loop
      vertex 80 0 0
      vertex 91 0 2
      vertex 80 0 2
    endloop
  endfacet
  facet normal 0 -1 -0
    outer loop
      vertex 91 0 2
      vertex 80 0 0
      vertex 91 0 0
    endloop
  endfacet
  facet normal 0 -1 0
    outer loop
      vertex 99 0 0
      vertex 110 0 2
      vertex 99 0 2
    endloop
  endfacet
  facet normal 0 -1 -0
    outer loop
      vertex 110 0 2
      vertex 99 0 0
      vertex 110 0 0
    endloop
  endfacet
  facet normal 0 -1 0
    outer loop
      vertex 118 0 0
      vertex 129 0 2
      vertex 118 0 2
    endloop
  endfacet
  facet normal 0 -1 -0
    outer loop
      vertex 129 0 2
      vertex 118 0 0
      vertex 129 0 0
    endloop
  endfacet
endsolid OpenSCAD_Model
