solid OpenSCAD_Model
  facet normal -1 0 0
    outer loop
      vertex 0 8 0
      vertex 0 5 2
      vertex 0 8 8
    endloop
  endfacet
  facet normal -1 0 0
    outer loop
      vertex 0 8 0
      vertex 0 3 2
      vertex 0 5 2
    endloop
  endfacet
  facet normal -1 0 0
    outer loop
      vertex 0 0 0
      vertex 0 3 2
      vertex 0 8 0
    endloop
  endfacet
  facet normal -1 0 0
    outer loop
      vertex 0 0 8
      vertex 0 3 2
      vertex 0 0 0
    endloop
  endfacet
  facet normal -1 0 0
    outer loop
      vertex 0 3 2
      vertex 0 0 8
      vertex 0 3 8
    endloop
  endfacet
  facet normal -1 -0 0
    outer loop
      vertex 0 8 8
      vertex 0 5 2
      vertex 0 5 8
    endloop
  endfacet
  facet normal -0 0 1
    outer loop
      vertex 5 3 8
      vertex 8 0 8
      vertex 8 3 8
    endloop
  endfacet
  facet normal 0 0 1
    outer loop
      vertex 8 0 8
      vertex 5 3 8
      vertex 5 0 8
    endloop
  endfacet
  facet normal -0 0 1
    outer loop
      vertex 0 3 8
      vertex 3 0 8
      vertex 3 3 8
    endloop
  endfacet
  facet normal 0 0 1
    outer loop
      vertex 3 0 8
      vertex 0 3 8
      vertex 0 0 8
    endloop
  endfacet
  facet normal -0 0 1
    outer loop
      vertex 5 8 8
      vertex 8 5 8
      vertex 8 8 8
    endloop
  endfacet
  facet normal 0 0 1
    outer loop
      vertex 8 5 8
      vertex 5 8 8
      vertex 5 5 8
    endloop
  endfacet
  facet normal -0 0 1
    outer loop
      vertex 0 8 8
      vertex 3 5 8
      vertex 3 8 8
    endloop
  endfacet
  facet normal 0 0 1
    outer loop
      vertex 3 5 8
      vertex 0 8 8
      vertex 0 5 8
    endloop
  endfacet
  facet normal 1 0 0
    outer loop
      vertex 8 3 8
      vertex 8 0 8
      vertex 8 3 2
    endloop
  endfacet
  facet normal 1 0 0
    outer loop
      vertex 8 5 2
      vertex 8 8 8
      vertex 8 5 8
    endloop
  endfacet
  facet normal 1 0 0
    outer loop
      vertex 8 8 8
      vertex 8 5 2
      vertex 8 8 0
    endloop
  endfacet
  facet normal 1 -0 0
    outer loop
      vertex 8 3 2
      vertex 8 8 0
      vertex 8 5 2
    endloop
  endfacet
  facet normal 1 0 0
    outer loop
      vertex 8 3 2
      vertex 8 0 0
      vertex 8 8 0
    endloop
  endfacet
  facet normal 1 0 0
    outer loop
      vertex 8 0 0
      vertex 8 3 2
      vertex 8 0 8
    endloop
  endfacet
  facet normal 0 0 -1
    outer loop
      vertex 0 0 0
      vertex 8 8 0
      vertex 8 0 0
    endloop
  endfacet
  facet normal -0 0 -1
    outer loop
      vertex 8 8 0
      vertex 0 0 0
      vertex 0 8 0
    endloop
  endfacet
  facet normal 0 -1 0
    outer loop
      vertex 0 0 8
      vertex 3 0 2
      vertex 3 0 8
    endloop
  endfacet
  facet normal 0 -1 -0
    outer loop
      vertex 3 0 2
      vertex 0 0 0
      vertex 5 0 2
    endloop
  endfacet
  facet normal 0 -1 0
    outer loop
      vertex 0 0 0
      vertex 3 0 2
      vertex 0 0 8
    endloop
  endfacet
  facet normal 0 -1 0
    outer loop
      vertex 5 0 2
      vertex 8 0 8
      vertex 5 0 8
    endloop
  endfacet
  facet normal 0 -1 0
    outer loop
      vertex 5 0 2
      vertex 8 0 0
      vertex 8 0 8
    endloop
  endfacet
  facet normal 0 -1 0
    outer loop
      vertex 8 0 0
      vertex 5 0 2
      vertex 0 0 0
    endloop
  endfacet
  facet normal 0 1 0
    outer loop
      vertex 8 8 8
      vertex 5 8 2
      vertex 5 8 8
    endloop
  endfacet
  facet normal 0 1 0
    outer loop
      vertex 5 8 2
      vertex 8 8 0
      vertex 3 8 2
    endloop
  endfacet
  facet normal 0 1 -0
    outer loop
      vertex 8 8 0
      vertex 5 8 2
      vertex 8 8 8
    endloop
  endfacet
  facet normal 0 1 -0
    outer loop
      vertex 3 8 2
      vertex 0 8 8
      vertex 3 8 8
    endloop
  endfacet
  facet normal 0 1 0
    outer loop
      vertex 3 8 2
      vertex 0 8 0
      vertex 0 8 8
    endloop
  endfacet
  facet normal 0 1 0
    outer loop
      vertex 0 8 0
      vertex 3 8 2
      vertex 8 8 0
    endloop
  endfacet
  facet normal 0 -1 0
    outer loop
      vertex 0 5 2
      vertex 3 5 8
      vertex 0 5 8
    endloop
  endfacet
  facet normal 0 -1 -0
    outer loop
      vertex 3 5 8
      vertex 0 5 2
      vertex 3 5 2
    endloop
  endfacet
  facet normal 0 -1 0
    outer loop
      vertex 5 5 2
      vertex 8 5 8
      vertex 5 5 8
    endloop
  endfacet
  facet normal 0 -1 -0
    outer loop
      vertex 8 5 8
      vertex 5 5 2
      vertex 8 5 2
    endloop
  endfacet
  facet normal -0 0 1
    outer loop
      vertex 0 5 2
      vertex 3 3 2
      vertex 3 5 2
    endloop
  endfacet
  facet normal 0 0 1
    outer loop
      vertex 3 3 2
      vertex 0 5 2
      vertex 0 3 2
    endloop
  endfacet
  facet normal 0 0 1
    outer loop
      vertex 3 5 2
      vertex 5 5 2
      vertex 5 8 2
    endloop
  endfacet
  facet normal 0 0 1
    outer loop
      vertex 5 5 2
      vertex 3 5 2
      vertex 5 3 2
    endloop
  endfacet
  facet normal 0 0 1
    outer loop
      vertex 3 5 2
      vertex 5 8 2
      vertex 3 8 2
    endloop
  endfacet
  facet normal 0 0 1
    outer loop
      vertex 3 3 2
      vertex 5 3 2
      vertex 3 5 2
    endloop
  endfacet
  facet normal 0 0 1
    outer loop
      vertex 5 3 2
      vertex 3 3 2
      vertex 5 0 2
    endloop
  endfacet
  facet normal 0 0 1
    outer loop
      vertex 5 0 2
      vertex 3 3 2
      vertex 3 0 2
    endloop
  endfacet
  facet normal -0 0 1
    outer loop
      vertex 5 5 2
      vertex 8 3 2
      vertex 8 5 2
    endloop
  endfacet
  facet normal 0 0 1
    outer loop
      vertex 8 3 2
      vertex 5 5 2
      vertex 5 3 2
    endloop
  endfacet
  facet normal 0 1 -0
    outer loop
      vertex 3 3 2
      vertex 0 3 8
      vertex 3 3 8
    endloop
  endfacet
  facet normal 0 1 0
    outer loop
      vertex 0 3 8
      vertex 3 3 2
      vertex 0 3 2
    endloop
  endfacet
  facet normal 0 1 -0
    outer loop
      vertex 8 3 2
      vertex 5 3 8
      vertex 8 3 8
    endloop
  endfacet
  facet normal 0 1 0
    outer loop
      vertex 5 3 8
      vertex 8 3 2
      vertex 5 3 2
    endloop
  endfacet
  facet normal 1 -0 0
    outer loop
      vertex 3 5 8
      vertex 3 8 2
      vertex 3 8 8
    endloop
  endfacet
  facet normal 1 0 0
    outer loop
      vertex 3 8 2
      vertex 3 5 8
      vertex 3 5 2
    endloop
  endfacet
  facet normal 1 -0 0
    outer loop
      vertex 3 0 8
      vertex 3 3 2
      vertex 3 3 8
    endloop
  endfacet
  facet normal 1 0 0
    outer loop
      vertex 3 3 2
      vertex 3 0 8
      vertex 3 0 2
    endloop
  endfacet
  facet normal -1 0 0
    outer loop
      vertex 5 5 2
      vertex 5 8 8
      vertex 5 8 2
    endloop
  endfacet
  facet normal -1 -0 0
    outer loop
      vertex 5 8 8
      vertex 5 5 2
      vertex 5 5 8
    endloop
  endfacet
  facet normal -1 0 0
    outer loop
      vertex 5 0 2
      vertex 5 3 8
      vertex 5 3 2
    endloop
  endfacet
  facet normal -1 -0 0
    outer loop
      vertex 5 3 8
      vertex 5 0 2
      vertex 5 0 8
    endloop
  endfacet
endsolid OpenSCAD_Model
