<svg viewBox="0 0 256 256" xmlns="http://www.w3.org/2000/svg"><line x1="0" y1="0" x2="256" y2="0" stroke="black" stroke-width="0.5"></line><line x1="256" y1="0" x2="256" y2="256" stroke="black" stroke-width="0.5"></line><line x1="256" y1="256" x2="0" y2="256" stroke="black" stroke-width="0.5"></line><line x1="0" y1="256" x2="0" y2="0" stroke="black" stroke-width="0.5"></line><line x1="137.39745965676985" y1="129.4710237519402" x2="136.5379933453412" y2="131.48920690408164" stroke="black" stroke-width="0.5"></line><line x1="136.5379933453412" y1="131.48920690408164" x2="136.09288521446348" y2="133.02582751529522" stroke="black" stroke-width="0.5"></line><line x1="136.09288521446348" y1="133.02582751529522" x2="134.7076424090283" y2="134.41517624153676" stroke="black" stroke-width="0.5"></line><line x1="134.7076424090283" y1="134.41517624153676" x2="133.5629278804486" y2="135.19722320524775" stroke="black" stroke-width="0.5"></line><line x1="133.5629278804486" y1="135.19722320524775" x2="132.2358322019626" y2="136.43583217349385" stroke="black" stroke-width="0.5"></line><line x1="132.2358322019626" y1="136.43583217349385" x2="129.77347911319106" y2="137.5112869626109" stroke="black" stroke-width="0.5"></line><line x1="129.77347911319106" y1="137.5112869626109" x2="127.04983583311997" y2="137.5341647125985" stroke="black" stroke-width="0.5"></line><line x1="127.04983583311997" y1="137.5341647125985" x2="124.95659878395857" y2="136.89852436525942" stroke="black" stroke-width="0.5"></line><line x1="124.95659878395857" y1="136.89852436525942" x2="123.44174121816518" y2="136.27340694966009" stroke="black" stroke-width="0.5"></line><line x1="123.44174121816518" y1="136.27340694966009" x2="122.17983842941615" y2="135.5138705337672" stroke="black" stroke-width="0.5"></line><line x1="122.17983842941615" y1="135.5138705337672" x2="120.48707012953346" y2="133.2013049489238" stroke="black" stroke-width="0.5"></line><line x1="120.48707012953346" y1="133.2013049489238" x2="119.38582199849843" y2="131.00165075920478" stroke="black" stroke-width="0.5"></line><line x1="119.38582199849843" y1="131.00165075920478" x2="118.8243315485341" y2="129.45941104885785" stroke="black" stroke-width="0.5"></line><line x1="118.8243315485341" y1="129.45941104885785" x2="118.68807445200596" y2="127.09804994292602" stroke="black" stroke-width="0.5"></line><line x1="118.68807445200596" y1="127.09804994292602" x2="119.0798710978594" y2="125.39676087211714" stroke="black" stroke-width="0.5"></line><line x1="119.0798710978594" y1="125.39676087211714" x2="120.21925381993685" y2="123.13174465106032" stroke="black" stroke-width="0.5"></line><line x1="120.21925381993685" y1="123.13174465106032" x2="121.24003230614454" y2="121.59458318330167" stroke="black" stroke-width="0.5"></line><line x1="121.24003230614454" y1="121.59458318330167" x2="123.20145184537668" y2="120.00534534907625" stroke="black" stroke-width="0.5"></line><line x1="123.20145184537668" y1="120.00534534907625" x2="125.51568838761497" y2="118.91885781609328" stroke="black" stroke-width="0.5"></line><line x1="125.51568838761497" y1="118.91885781609328" x2="128.33007063755934" y2="118.71627686281248" stroke="black" stroke-width="0.5"></line><line x1="128.33007063755934" y1="118.71627686281248" x2="129.9414767827563" y2="118.78741500485106" stroke="black" stroke-width="0.5"></line><line x1="129.9414767827563" y1="118.78741500485106" x2="131.8635470897115" y2="119.62625231006284" stroke="black" stroke-width="0.5"></line><line x1="131.8635470897115" y1="119.62625231006284" x2="133.75379026318365" y2="120.23925974431408" stroke="black" stroke-width="0.5"></line><line x1="133.75379026318365" y1="120.23925974431408" x2="135.45972642775277" y2="122.27174548041245" stroke="black" stroke-width="0.5"></line><line x1="135.45972642775277" y1="122.27174548041245" x2="137.0094839697186" y2="124.87111708224549" stroke="black" stroke-width="0.5"></line><line x1="137.0094839697186" y1="124.87111708224549" x2="137.18048604509886" y2="127.10320415482877" stroke="black" stroke-width="0.5"></line><line x1="137.18048604509886" y1="127.10320415482877" x2="137.39745965676985" y2="129.4710237519402" stroke="black" stroke-width="0.5"></line><line x1="153.05674132454942" y1="132.03439292498282" x2="151.16593959848097" y2="137.23424890456388" stroke="black" stroke-width="0.5"></line><line x1="151.16593959848097" y1="137.23424890456388" x2="149.05935889310916" y2="141.68397743550713" stroke="black" stroke-width="0.5"></line><line x1="149.05935889310916" y1="141.68397743550713" x2="145.356481740181" y2="146.03416389334834" stroke="black" stroke-width="0.5"></line><line x1="145.356481740181" y1="146.03416389334834" x2="142.4942849303057" y2="148.576771870871" stroke="black" stroke-width="0.5"></line><line x1="142.4942849303057" y1="148.576771870871" x2="139.88856114706647" y2="150.32507621059756" stroke="black" stroke-width="0.5"></line><line x1="139.88856114706647" y1="150.32507621059756" x2="131.9861894705299" y2="152.19835197209835" stroke="black" stroke-width="0.5"></line><line x1="131.9861894705299" y1="152.19835197209835" x2="125.35417149152808" y2="152.630107750911" stroke="black" stroke-width="0.5"></line><line x1="125.35417149152808" y1="152.630107750911" x2="119.56332255737813" y2="151.06907767445313" stroke="black" stroke-width="0.5"></line><line x1="119.56332255737813" y1="151.06907767445313" x2="115.68307214981579" y2="150.3971815732294" stroke="black" stroke-width="0.5"></line><line x1="115.68307214981579" y1="150.3971815732294" x2="112.57571874112605" y2="147.58957722792312" stroke="black" stroke-width="0.5"></line><line x1="112.57571874112605" y1="147.58957722792312" x2="107.97461957069456" y2="142.8781724218583" stroke="black" stroke-width="0.5"></line><line x1="107.97461957069456" y1="142.8781724218583" x2="104.02765260720928" y2="136.0305909765281" stroke="black" stroke-width="0.5"></line><line x1="104.02765260720928" y1="136.0305909765281" x2="103.51064141939365" y2="132.5654098692262" stroke="black" stroke-width="0.5"></line><line x1="103.51064141939365" y1="132.5654098692262" x2="102.78431863293288" y2="125.41999587682804" stroke="black" stroke-width="0.5"></line><line x1="102.78431863293288" y1="125.41999587682804" x2="104.60684881042481" y2="120.2977775582246" stroke="black" stroke-width="0.5"></line><line x1="104.60684881042481" y1="120.2977775582246" x2="105.93552272603658" y2="114.27683531486082" stroke="black" stroke-width="0.5"></line><line x1="105.93552272603658" y1="114.27683531486082" x2="110.02920367400509" y2="110.74392138133308" stroke="black" stroke-width="0.5"></line><line x1="110.02920367400509" y1="110.74392138133308" x2="114.59537171493761" y2="106.45214958532472" stroke="black" stroke-width="0.5"></line><line x1="114.59537171493761" y1="106.45214958532472" x2="121.74654990479202" y2="103.79961415729456" stroke="black" stroke-width="0.5"></line><line x1="121.74654990479202" y1="103.79961415729456" x2="128.62050494224118" y2="102.47238245835624" stroke="black" stroke-width="0.5"></line><line x1="128.62050494224118" y1="102.47238245835624" x2="132.78959231396746" y2="103.28011129007325" stroke="black" stroke-width="0.5"></line><line x1="132.78959231396746" y1="103.28011129007325" x2="138.65418788628648" y2="105.3863907572115" stroke="black" stroke-width="0.5"></line><line x1="138.65418788628648" y1="105.3863907572115" x2="142.47663189857994" y2="107.59995326425627" stroke="black" stroke-width="0.5"></line><line x1="142.47663189857994" y1="107.59995326425627" x2="147.59434852950275" y2="112.80495484779553" stroke="black" stroke-width="0.5"></line><line x1="147.59434852950275" y1="112.80495484779553" x2="151.4007833206855" y2="120.3499026860316" stroke="black" stroke-width="0.5"></line><line x1="151.4007833206855" y1="120.3499026860316" x2="152.27249013919732" y2="124.73840304185738" stroke="black" stroke-width="0.5"></line><line x1="152.27249013919732" y1="124.73840304185738" x2="153.05674132454942" y2="132.03439292498282" stroke="black" stroke-width="0.5"></line><line x1="167.1901025150231" y1="135.3648970057369" x2="164.0831383100559" y2="142.63602188125446" stroke="black" stroke-width="0.5"></line><line x1="164.0831383100559" y1="142.63602188125446" x2="160.80255232830868" y2="150.27109262123975" stroke="black" stroke-width="0.5"></line><line x1="160.80255232830868" y1="150.27109262123975" x2="155.65758673717158" y2="157.19677247285128" stroke="black" stroke-width="0.5"></line><line x1="155.65758673717158" y1="157.19677247285128" x2="151.87666114508542" y2="160.10817901403587" stroke="black" stroke-width="0.5"></line><line x1="151.87666114508542" y1="160.10817901403587" x2="144.87188618851027" y2="163.90044981854786" stroke="black" stroke-width="0.5"></line><line x1="144.87188618851027" y1="163.90044981854786" x2="135.62265619709837" y2="167.3426036899265" stroke="black" stroke-width="0.5"></line><line x1="135.62265619709837" y1="167.3426036899265" x2="122.44652354953116" y2="167.2467829393713" stroke="black" stroke-width="0.5"></line><line x1="122.44652354953116" y1="167.2467829393713" x2="113.713300476589" y2="166.27276848476623" stroke="black" stroke-width="0.5"></line><line x1="113.713300476589" y1="166.27276848476623" x2="109.56432623490062" y2="161.94756953652507" stroke="black" stroke-width="0.5"></line><line x1="109.56432623490062" y1="161.94756953652507" x2="103.60711225919334" y2="160.65378435486548" stroke="black" stroke-width="0.5"></line><line x1="103.60711225919334" y1="160.65378435486548" x2="96.42862896250534" y2="151.20504807178912" stroke="black" stroke-width="0.5"></line><line x1="96.42862896250534" y1="151.20504807178912" x2="91.17368755343395" y2="140.58577448488552" stroke="black" stroke-width="0.5"></line><line x1="91.17368755343395" y1="140.58577448488552" x2="88.2358526774861" y2="133.4653114239191" stroke="black" stroke-width="0.5"></line><line x1="88.2358526774861" y1="133.4653114239191" x2="89.07880496451176" y2="124.60083419541154" stroke="black" stroke-width="0.5"></line><line x1="89.07880496451176" y1="124.60083419541154" x2="88.86565575681675" y2="116.28082141557638" stroke="black" stroke-width="0.5"></line><line x1="88.86565575681675" y1="116.28082141557638" x2="95.31363426864584" y2="107.96482348161547" stroke="black" stroke-width="0.5"></line><line x1="95.31363426864584" y1="107.96482348161547" x2="100.54946627725113" y2="99.19500019875544" stroke="black" stroke-width="0.5"></line><line x1="100.54946627725113" y1="99.19500019875544" x2="107.71804172153224" y2="94.32219753878564" stroke="black" stroke-width="0.5"></line><line x1="107.71804172153224" y1="94.32219753878564" x2="119.58518594399207" y2="90.31022642914795" stroke="black" stroke-width="0.5"></line><line x1="119.58518594399207" y1="90.31022642914795" x2="128.46066117526323" y2="87.87573311179071" stroke="black" stroke-width="0.5"></line><line x1="128.46066117526323" y1="87.87573311179071" x2="135.6052949908009" y2="89.11025076840355" stroke="black" stroke-width="0.5"></line><line x1="135.6052949908009" y1="89.11025076840355" x2="143.98325113947692" y2="92.12240231952771" stroke="black" stroke-width="0.5"></line><line x1="143.98325113947692" y1="92.12240231952771" x2="151.12222031960601" y2="95.24499843055239" stroke="black" stroke-width="0.5"></line><line x1="151.12222031960601" y1="95.24499843055239" x2="159.32983685404236" y2="103.65262274992753" stroke="black" stroke-width="0.5"></line><line x1="159.32983685404236" y1="103.65262274992753" x2="164.45322448229308" y2="115.21682529990433" stroke="black" stroke-width="0.5"></line><line x1="164.45322448229308" y1="115.21682529990433" x2="166.84119572374598" y2="123.9525085158944" stroke="black" stroke-width="0.5"></line><line x1="166.84119572374598" y1="123.9525085158944" x2="167.1901025150231" y2="135.3648970057369" stroke="black" stroke-width="0.5"></line><line x1="183.3749435141771" y1="137.99063548017284" x2="180.66965766581757" y2="147.63632456004026" stroke="black" stroke-width="0.5"></line><line x1="180.66965766581757" y1="147.63632456004026" x2="175.46905664471979" y2="159.20379627393075" stroke="black" stroke-width="0.5"></line><line x1="175.46905664471979" y1="159.20379627393075" x2="168.38534274459172" y2="167.9993250072" stroke="black" stroke-width="0.5"></line><line x1="168.38534274459172" y1="167.9993250072" x2="160.23220855565953" y2="173.80689700148892" stroke="black" stroke-width="0.5"></line><line x1="160.23220855565953" y1="173.80689700148892" x2="151.33724868034173" y2="176.85673959492476" stroke="black" stroke-width="0.5"></line><line x1="151.33724868034173" y1="176.85673959492476" x2="137.87811823542344" y2="182.62776708578662" stroke="black" stroke-width="0.5"></line><line x1="137.87811823542344" y1="182.62776708578662" x2="122.04978342894404" y2="183.14256049866108" stroke="black" stroke-width="0.5"></line><line x1="122.04978342894404" y1="183.14256049866108" x2="107.6685148932154" y2="181.1018337747678" stroke="black" stroke-width="0.5"></line><line x1="107.6685148932154" y1="181.1018337747678" x2="102.92662252894654" y2="176.32701243375413" stroke="black" stroke-width="0.5"></line><line x1="102.92662252894654" y1="176.32701243375413" x2="92.83304914070796" y2="173.35202541829997" stroke="black" stroke-width="0.5"></line><line x1="92.83304914070796" y1="173.35202541829997" x2="82.62653640588184" y2="161.01788847184238" stroke="black" stroke-width="0.5"></line><line x1="82.62653640588184" y1="161.01788847184238" x2="74.7940497529597" y2="148.15540629687223" stroke="black" stroke-width="0.5"></line><line x1="74.7940497529597" y1="148.15540629687223" x2="73.16392805271215" y2="135.29044029091745" stroke="black" stroke-width="0.5"></line><line x1="73.16392805271215" y1="135.29044029091745" x2="71.88469905246502" y2="121.17263676327325" stroke="black" stroke-width="0.5"></line><line x1="71.88469905246502" y1="121.17263676327325" x2="73.83544482571175" y2="111.77826928229527" stroke="black" stroke-width="0.5"></line><line x1="73.83544482571175" y1="111.77826928229527" x2="81.54305404478828" y2="99.47818587167686" stroke="black" stroke-width="0.5"></line><line x1="81.54305404478828" y1="99.47818587167686" x2="88.4924352066057" y2="89.87080578489692" stroke="black" stroke-width="0.5"></line><line x1="88.4924352066057" y1="89.87080578489692" x2="99.86774419731952" y2="79.12567998932077" stroke="black" stroke-width="0.5"></line><line x1="99.86774419731952" y1="79.12567998932077" x2="114.16790212445194" y2="73.73155592998404" stroke="black" stroke-width="0.5"></line><line x1="114.16790212445194" y1="73.73155592998404" x2="131.19059372543387" y2="74.0814817442548" stroke="black" stroke-width="0.5"></line><line x1="131.19059372543387" y1="74.0814817442548" x2="138.11771332444803" y2="72.90654806184375" stroke="black" stroke-width="0.5"></line><line x1="138.11771332444803" y1="72.90654806184375" x2="148.9800313198394" y2="77.81756969306994" stroke="black" stroke-width="0.5"></line><line x1="148.9800313198394" y1="77.81756969306994" x2="159.82264108933765" y2="82.98635997145476" stroke="black" stroke-width="0.5"></line><line x1="159.82264108933765" y1="82.98635997145476" x2="171.594287710316" y2="94.88255393909031" stroke="black" stroke-width="0.5"></line><line x1="171.594287710316" y1="94.88255393909031" x2="180.6200234640575" y2="111.04195153381505" stroke="black" stroke-width="0.5"></line><line x1="180.6200234640575" y1="111.04195153381505" x2="181.90318059920077" y2="120.83722336603836" stroke="black" stroke-width="0.5"></line><line x1="181.90318059920077" y1="120.83722336603836" x2="183.3749435141771" y2="137.99063548017284" stroke="black" stroke-width="0.5"></line><line x1="196.42218539434924" y1="139.83616436105913" x2="194.70588951260424" y2="154.73166281856072" stroke="black" stroke-width="0.5"></line><line x1="194.70588951260424" y1="154.73166281856072" x2="189.3375021067354" y2="167.36043927841033" stroke="black" stroke-width="0.5"></line><line x1="189.3375021067354" y1="167.36043927841033" x2="180.27255380329277" y2="176.75390597961243" stroke="black" stroke-width="0.5"></line><line x1="180.27255380329277" y1="176.75390597961243" x2="171.12245388532332" y2="182.9065903938858" stroke="black" stroke-width="0.5"></line><line x1="171.12245388532332" y1="182.9065903938858" x2="159.626821729502" y2="191.52029973753292" stroke="black" stroke-width="0.5"></line><line x1="159.626821729502" y1="191.52029973753292" x2="140.3952913332982" y2="196.16547126508644" stroke="black" stroke-width="0.5"></line><line x1="140.3952913332982" y1="196.16547126508644" x2="119.8136191634895" y2="199.96541498771995" stroke="black" stroke-width="0.5"></line><line x1="119.8136191634895" y1="199.96541498771995" x2="102.11507475380171" y2="193.95631288137662" stroke="black" stroke-width="0.5"></line><line x1="102.11507475380171" y1="193.95631288137662" x2="93.61130763582665" y2="189.48770306545595" stroke="black" stroke-width="0.5"></line><line x1="93.61130763582665" y1="189.48770306545595" x2="84.94265499282218" y2="185.2103963481108" stroke="black" stroke-width="0.5"></line><line x1="84.94265499282218" y1="185.2103963481108" x2="68.7412575964355" y2="167.46390955582194" stroke="black" stroke-width="0.5"></line><line x1="68.7412575964355" y1="167.46390955582194" x2="60.081571310612745" y2="153.88419185024162" stroke="black" stroke-width="0.5"></line><line x1="60.081571310612745" y1="153.88419185024162" x2="55.731081179287656" y2="138.23642292915287" stroke="black" stroke-width="0.5"></line><line x1="55.731081179287656" y1="138.23642292915287" x2="55.98786660676012" y2="119.18544908367694" stroke="black" stroke-width="0.5"></line><line x1="55.98786660676012" y1="119.18544908367694" x2="58.67624861294635" y2="106.62322032699406" stroke="black" stroke-width="0.5"></line><line x1="58.67624861294635" y1="106.62322032699406" x2="69.14815628377366" y2="91.56239064274394" stroke="black" stroke-width="0.5"></line><line x1="69.14815628377366" y1="91.56239064274394" x2="80.01599463569251" y2="76.58769894064993" stroke="black" stroke-width="0.5"></line><line x1="80.01599463569251" y1="76.58769894064993" x2="91.3270151774235" y2="66.05736568833797" stroke="black" stroke-width="0.5"></line><line x1="91.3270151774235" y1="66.05736568833797" x2="112.76323106865998" y2="57.60197188965704" stroke="black" stroke-width="0.5"></line><line x1="112.76323106865998" y1="57.60197188965704" x2="132.03230988220892" y2="56.98910563672834" stroke="black" stroke-width="0.5"></line><line x1="132.03230988220892" y1="56.98910563672834" x2="142.32269739749452" y2="60.057939313728454" stroke="black" stroke-width="0.5"></line><line x1="142.32269739749452" y1="60.057939313728454" x2="157.79120223819586" y2="62.24424985655649" stroke="black" stroke-width="0.5"></line><line x1="157.79120223819586" y1="62.24424985655649" x2="169.45665521491668" y2="72.39333968035635" stroke="black" stroke-width="0.5"></line><line x1="169.45665521491668" y1="72.39333968035635" x2="183.21321134233233" y2="83.94029145326756" stroke="black" stroke-width="0.5"></line><line x1="183.21321134233233" y1="83.94029145326756" x2="194.80179363678357" y2="103.66070784147045" stroke="black" stroke-width="0.5"></line><line x1="194.80179363678357" y1="103.66070784147045" x2="199.8872399334247" y2="120.218443610963" stroke="black" stroke-width="0.5"></line><line x1="199.8872399334247" y1="120.218443610963" x2="196.42218539434924" y2="139.83616436105913" stroke="black" stroke-width="0.5"></line><line x1="212.86671120281892" y1="143.60550778332203" x2="211.69114251643776" y2="160.76218155543472" stroke="black" stroke-width="0.5"></line><line x1="211.69114251643776" y1="160.76218155543472" x2="200.344960620098" y2="176.6704971792262" stroke="black" stroke-width="0.5"></line><line x1="200.344960620098" y1="176.6704971792262" x2="188.40835776306636" y2="191.43242446644572" stroke="black" stroke-width="0.5"></line><line x1="188.40835776306636" y1="191.43242446644572" x2="182.79115024390842" y2="196.86108957696015" stroke="black" stroke-width="0.5"></line><line x1="182.79115024390842" y1="196.86108957696015" x2="169.04449241891297" y2="206.96555474328215" stroke="black" stroke-width="0.5"></line><line x1="169.04449241891297" y1="206.96555474328215" x2="141.0961243498321" y2="216.0135092661802" stroke="black" stroke-width="0.5"></line><line x1="141.0961243498321" y1="216.0135092661802" x2="114.75395258614073" y2="214.15448641234042" stroke="black" stroke-width="0.5"></line><line x1="114.75395258614073" y1="214.15448641234042" x2="96.90805849523944" y2="209.764351102106" stroke="black" stroke-width="0.5"></line><line x1="96.90805849523944" y1="209.764351102106" x2="87.64954810348851" y2="203.5664247069435" stroke="black" stroke-width="0.5"></line><line x1="87.64954810348851" y1="203.5664247069435" x2="77.14617780568244" y2="198.21097830184715" stroke="black" stroke-width="0.5"></line><line x1="77.14617780568244" y1="198.21097830184715" x2="55.81268801511993" y2="179.98408327022452" stroke="black" stroke-width="0.5"></line><line x1="55.81268801511993" y1="179.98408327022452" x2="45.30557686379835" y2="158.13474439794248" stroke="black" stroke-width="0.5"></line><line x1="45.30557686379835" y1="158.13474439794248" x2="39.560051237620286" y2="143.9438435600653" stroke="black" stroke-width="0.5"></line><line x1="39.560051237620286" y1="143.9438435600653" x2="44.13099776403932" y2="118.12905222093389" stroke="black" stroke-width="0.5"></line><line x1="44.13099776403932" y1="118.12905222093389" x2="44.05010600373082" y2="103.00235812900281" stroke="black" stroke-width="0.5"></line><line x1="44.05010600373082" y1="103.00235812900281" x2="55.228186429247415" y2="80.20889729305576" stroke="black" stroke-width="0.5"></line><line x1="55.228186429247415" y1="80.20889729305576" x2="65.87646948704725" y2="66.72905661107184" stroke="black" stroke-width="0.5"></line><line x1="65.87646948704725" y1="66.72905661107184" x2="84.12746776528633" y2="53.16717460973014" stroke="black" stroke-width="0.5"></line><line x1="84.12746776528633" y1="53.16717460973014" x2="104.93101334189433" y2="45.228008866722945" stroke="black" stroke-width="0.5"></line><line x1="104.93101334189433" y1="45.228008866722945" x2="129.80571997101518" y2="40.11633160559535" stroke="black" stroke-width="0.5"></line><line x1="129.80571997101518" y1="40.11633160559535" x2="145.6677593534154" y2="43.19815607889572" stroke="black" stroke-width="0.5"></line><line x1="145.6677593534154" y1="43.19815607889572" x2="164.42374413376965" y2="46.75688712451732" stroke="black" stroke-width="0.5"></line><line x1="164.42374413376965" y1="46.75688712451732" x2="180.3780367392304" y2="56.22188221432964" stroke="black" stroke-width="0.5"></line><line x1="180.3780367392304" y1="56.22188221432964" x2="196.16452894776506" y2="76.63112000143005" stroke="black" stroke-width="0.5"></line><line x1="196.16452894776506" y1="76.63112000143005" x2="209.97355483790716" y2="100.64893364103587" stroke="black" stroke-width="0.5"></line><line x1="209.97355483790716" y1="100.64893364103587" x2="213.90006364142096" y2="116.17411907534651" stroke="black" stroke-width="0.5"></line><line x1="213.90006364142096" y1="116.17411907534651" x2="212.86671120281892" y2="143.60550778332203" stroke="black" stroke-width="0.5"></line><line x1="231.98205970138662" y1="146.6309415343071" x2="227.63848051153275" y2="163.1303061667148" stroke="black" stroke-width="0.5"></line><line x1="227.63848051153275" y1="163.1303061667148" x2="216.22077550272394" y2="186.5472257852756" stroke="black" stroke-width="0.5"></line><line x1="216.22077550272394" y1="186.5472257852756" x2="204.26768475767815" y2="202.8290214239637" stroke="black" stroke-width="0.5"></line><line x1="204.26768475767815" y1="202.8290214239637" x2="191.2315668901967" y2="210.23302765309785" stroke="black" stroke-width="0.5"></line><line x1="191.2315668901967" y1="210.23302765309785" x2="174.46771400164224" y2="220.3988788622754" stroke="black" stroke-width="0.5"></line><line x1="174.46771400164224" y1="220.3988788622754" x2="144.90139908772255" y2="228.3349798902393" stroke="black" stroke-width="0.5"></line><line x1="144.90139908772255" y1="228.3349798902393" x2="116.94662039705982" y2="228.66572451291825" stroke="black" stroke-width="0.5"></line><line x1="116.94662039705982" y1="228.66572451291825" x2="92.93774297174497" y2="222.77657442248577" stroke="black" stroke-width="0.5"></line><line x1="92.93774297174497" y1="222.77657442248577" x2="77.13695495089064" y2="220.14043133433154" stroke="black" stroke-width="0.5"></line><line x1="77.13695495089064" y1="220.14043133433154" x2="63.48411891405232" y2="210.4627493703472" stroke="black" stroke-width="0.5"></line><line x1="63.48411891405232" y1="210.4627493703472" x2="41.27093893251528" y2="188.96410518174827" stroke="black" stroke-width="0.5"></line><line x1="41.27093893251528" y1="188.96410518174827" x2="33.13208257938574" y2="161.17620589478568" stroke="black" stroke-width="0.5"></line><line x1="33.13208257938574" y1="161.17620589478568" x2="23.986953061471837" y2="145.2951150693413" stroke="black" stroke-width="0.5"></line><line x1="23.986953061471837" y1="145.2951150693413" x2="22.432607282627274" y2="118.94033697537895" stroke="black" stroke-width="0.5"></line><line x1="22.432607282627274" y1="118.94033697537895" x2="29.14239032512566" y2="98.81967101142972" stroke="black" stroke-width="0.5"></line><line x1="29.14239032512566" y1="98.81967101142972" x2="39.235380944492334" y2="75.3845158389469" stroke="black" stroke-width="0.5"></line><line x1="39.235380944492334" y1="75.3845158389469" x2="57.74395489810129" y2="50.67461885056041" stroke="black" stroke-width="0.5"></line><line x1="57.74395489810129" y1="50.67461885056041" x2="76.1589044026002" y2="36.54544414078774" stroke="black" stroke-width="0.5"></line><line x1="76.1589044026002" y1="36.54544414078774" x2="102.60353937013151" y2="24.014704901810163" stroke="black" stroke-width="0.5"></line><line x1="102.60353937013151" y1="24.014704901810163" x2="128.41741030754957" y2="21.1039094488832" stroke="black" stroke-width="0.5"></line><line x1="128.41741030754957" y1="21.1039094488832" x2="146.486684657164" y2="25.534859379306624" stroke="black" stroke-width="0.5"></line><line x1="146.486684657164" y1="25.534859379306624" x2="169.24419000884356" y2="33.1740969854348" stroke="black" stroke-width="0.5"></line><line x1="169.24419000884356" y1="33.1740969854348" x2="191.33352344642645" y2="42.402368037697144" stroke="black" stroke-width="0.5"></line><line x1="191.33352344642645" y1="42.402368037697144" x2="210.24349608398492" y2="63.734764772973705" stroke="black" stroke-width="0.5"></line><line x1="210.24349608398492" y1="63.734764772973705" x2="229.2434546791215" y2="92.46155256104441" stroke="black" stroke-width="0.5"></line><line x1="229.2434546791215" y1="92.46155256104441" x2="229.53589491631408" y2="112.31760609798836" stroke="black" stroke-width="0.5"></line><line x1="229.53589491631408" y1="112.31760609798836" x2="231.98205970138662" y2="146.6309415343071" stroke="black" stroke-width="0.5"></line><line x1="248.46925981135666" y1="148.67150967793077" x2="241.8164318378786" y2="168.3242050662418" stroke="black" stroke-width="0.5"></line><line x1="241.8164318378786" y1="168.3242050662418" x2="230.5373699526671" y2="192.9217594465521" stroke="black" stroke-width="0.5"></line><line x1="230.5373699526671" y1="192.9217594465521" x2="215.997991296598" y2="212.29744422727902" stroke="black" stroke-width="0.5"></line><line x1="215.997991296598" y1="212.29744422727902" x2="200.01536538821944" y2="223.62682249427831" stroke="black" stroke-width="0.5"></line><line x1="200.01536538821944" y1="223.62682249427831" x2="179.97764755885697" y2="233.15592870136777" stroke="black" stroke-width="0.5"></line><line x1="179.97764755885697" y1="233.15592870136777" x2="145.69544338339972" y2="246.20935166232442" stroke="black" stroke-width="0.5"></line><line x1="145.69544338339972" y1="246.20935166232442" x2="112.51546721748632" y2="244.7907603360021" stroke="black" stroke-width="0.5"></line><line x1="112.51546721748632" y1="244.7907603360021" x2="82.19579948855659" y2="240.37742048052883" stroke="black" stroke-width="0.5"></line><line x1="82.19579948855659" y1="240.37742048052883" x2="68.10633462953447" y2="238.09890320418452" stroke="black" stroke-width="0.5"></line><line x1="68.10633462953447" y1="238.09890320418452" x2="51.59639633807291" y2="223.92395746403193" stroke="black" stroke-width="0.5"></line><line x1="51.59639633807291" y1="223.92395746403193" x2="25.418703908888943" y2="200.4266357268744" stroke="black" stroke-width="0.5"></line><line x1="25.418703908888943" y1="200.4266357268744" x2="11.456317635897975" y2="168.6279010931307" stroke="black" stroke-width="0.5"></line><line x1="11.456317635897975" y1="168.6279010931307" x2="5.139408410156349" y2="149.58052668947127" stroke="black" stroke-width="0.5"></line><line x1="5.139408410156349" y1="149.58052668947127" x2="4.961843115031243" y2="114.27936504790338" stroke="black" stroke-width="0.5"></line><line x1="4.961843115031243" y1="114.27936504790338" x2="9.095093566478923" y2="95.29618325782054" stroke="black" stroke-width="0.5"></line><line x1="9.095093566478923" y1="95.29618325782054" x2="22.214467717809868" y2="63.60791355889981" stroke="black" stroke-width="0.5"></line><line x1="22.214467717809868" y1="63.60791355889981" x2="43.19542932957748" y2="43.86567363539227" stroke="black" stroke-width="0.5"></line><line x1="43.19542932957748" y1="43.86567363539227" x2="66.19265363180801" y2="25.069189953435057" stroke="black" stroke-width="0.5"></line><line x1="66.19265363180801" y1="25.069189953435057" x2="102.51759896300175" y2="10.053520126110243" stroke="black" stroke-width="0.5"></line><line x1="102.51759896300175" y1="10.053520126110243" x2="129.09899781329065" y2="6.042265185277827" stroke="black" stroke-width="0.5"></line><line x1="129.09899781329065" y1="6.042265185277827" x2="154.0615500816558" y2="10.470920213319602" stroke="black" stroke-width="0.5"></line><line x1="154.0615500816558" y1="10.470920213319602" x2="174.57800562104353" y2="15.08141726253703" stroke="black" stroke-width="0.5"></line><line x1="174.57800562104353" y1="15.08141726253703" x2="196.65725880012383" y2="31.252773941626472" stroke="black" stroke-width="0.5"></line><line x1="196.65725880012383" y1="31.252773941626472" x2="228.8329528738874" y2="54.557509906123414" stroke="black" stroke-width="0.5"></line><line x1="228.8329528738874" y1="54.557509906123414" x2="242.2525129342623" y2="84.19809092617396" stroke="black" stroke-width="0.5"></line><line x1="242.2525129342623" y1="84.19809092617396" x2="246.19202644289197" y2="114.72410139093753" stroke="black" stroke-width="0.5"></line><line x1="246.19202644289197" y1="114.72410139093753" x2="248.46925981135666" y2="148.67150967793077" stroke="black" stroke-width="0.5"></line><line x1="137.39745965676985" y1="129.4710237519402" x2="256" y2="149.380054449466" stroke="black" stroke-width="0.5"></line><line x1="136.5379933453412" y1="131.48920690408164" x2="256" y2="175.68101804160742" stroke="black" stroke-width="0.5"></line><line x1="136.09288521446348" y1="133.02582751529522" x2="256" y2="208.23749928435032" stroke="black" stroke-width="0.5"></line><line x1="134.7076424090283" y1="134.41517624153676" x2="255.90788750615468" y2="256" stroke="black" stroke-width="0.5"></line><line x1="133.5629278804486" y1="135.19722320524775" x2="225.90682244018257" y2="256" stroke="black" stroke-width="0.5"></line><line x1="132.2358322019626" y1="136.43583217349385" x2="191.52089147729296" y2="256" stroke="black" stroke-width="0.5"></line><line x1="129.77347911319106" y1="137.5112869626109" x2="150.6170832530151" y2="256" stroke="black" stroke-width="0.5"></line><line x1="127.04983583311997" y1="137.5341647125985" x2="112.2876012540711" y2="256" stroke="black" stroke-width="0.5"></line><line x1="124.95659878395857" y1="136.89852436525942" x2="80.25672353348104" y2="256" stroke="black" stroke-width="0.5"></line><line x1="123.44174121816518" y1="136.27340694966009" x2="60.60652144974888" y2="256" stroke="black" stroke-width="0.5"></line><line x1="122.17983842941615" y1="135.5138705337672" x2="29.40590874823056" y2="256" stroke="black" stroke-width="0.5"></line><line x1="120.48707012953346" y1="133.2013049489238" x2="0" y2="217.40183006146935" stroke="black" stroke-width="0.5"></line><line x1="119.38582199849843" y1="131.00165075920478" x2="0" y2="174.76651664640056" stroke="black" stroke-width="0.5"></line><line x1="118.8243315485341" y1="129.45941104885785" x2="0" y2="147.8106827500177" stroke="black" stroke-width="0.5"></line><line x1="118.68807445200596" y1="127.09804994292602" x2="0" y2="114.20773558813883" stroke="black" stroke-width="0.5"></line><line x1="119.0798710978594" y1="125.39676087211714" x2="0" y2="89.21480171956259" stroke="black" stroke-width="0.5"></line><line x1="120.21925381993685" y1="123.13174465106032" x2="0" y2="49.42750334100329" stroke="black" stroke-width="0.5"></line><line x1="121.24003230614454" y1="121.59458318330167" x2="1.7683265733522404" y2="0" stroke="black" stroke-width="0.5"></line><line x1="123.20145184537668" y1="120.00534534907625" x2="49.65738970447924" y2="0" stroke="black" stroke-width="0.5"></line><line x1="125.51568838761497" y1="118.91885781609328" x2="96.1742242737322" y2="0" stroke="black" stroke-width="0.5"></line><line x1="128.33007063755934" y1="118.71627686281248" x2="132.25183901713885" y2="0" stroke="black" stroke-width="0.5"></line><line x1="129.9414767827563" y1="118.78741500485106" x2="154.89231351956926" y2="0" stroke="black" stroke-width="0.5"></line><line x1="131.8635470897115" y1="119.62625231006284" x2="184.50813315504558" y2="0" stroke="black" stroke-width="0.5"></line><line x1="133.75379026318365" y1="120.23925974431408" x2="220.7434370128019" y2="0" stroke="black" stroke-width="0.5"></line><line x1="135.45972642775277" y1="122.27174548041245" x2="256" y2="33.599473898693105" stroke="black" stroke-width="0.5"></line><line x1="137.0094839697186" y1="124.87111708224549" x2="256" y2="82.75116850549091" stroke="black" stroke-width="0.5"></line><line x1="137.18048604509886" y1="127.10320415482877" x2="256" y2="112.44772715639425" stroke="black" stroke-width="0.5"></line></svg>