<svg viewBox="0 0 256 256" xmlns="http://www.w3.org/2000/svg"><line x1="0" y1="0" x2="256" y2="0" stroke="black" stroke-width="3"></line><line x1="256" y1="0" x2="256" y2="256" stroke="black" stroke-width="3"></line><line x1="256" y1="256" x2="0" y2="256" stroke="black" stroke-width="3"></line><line x1="0" y1="256" x2="0" y2="0" stroke="black" stroke-width="3"></line><line x1="134.67019855441433" y1="129.29682625612693" x2="134.10349373319104" y2="130.71956277206826" stroke="black" stroke-width="3"></line><line x1="134.10349373319104" y1="130.71956277206826" x2="133.06832831780866" y2="132.1079638709951" stroke="black" stroke-width="3"></line><line x1="133.06832831780866" y1="132.1079638709951" x2="132.26457975854592" y2="133.1993674460765" stroke="black" stroke-width="3"></line><line x1="132.26457975854592" y1="133.1993674460765" x2="131.55964934744176" y2="133.7115357675502" stroke="black" stroke-width="3"></line><line x1="131.55964934744176" y1="133.7115357675502" x2="130.52372877096093" y2="134.1154159933773" stroke="black" stroke-width="3"></line><line x1="130.52372877096093" y1="134.1154159933773" x2="129.19307070571998" y2="134.61858510424517" stroke="black" stroke-width="3"></line><line x1="129.19307070571998" y1="134.61858510424517" x2="127.35391478025689" y2="134.75572108743035" stroke="black" stroke-width="3"></line><line x1="127.35391478025689" y1="134.75572108743035" x2="126.05376257379592" y2="134.28548237483534" stroke="black" stroke-width="3"></line><line x1="126.05376257379592" y1="134.28548237483534" x2="125.0175991447166" y2="133.91333308316578" stroke="black" stroke-width="3"></line><line x1="125.0175991447166" y1="133.91333308316578" x2="123.22838137334453" y2="132.75650435695857" stroke="black" stroke-width="3"></line><line x1="123.22838137334453" y1="132.75650435695857" x2="122.35250067778105" y2="131.2227658653608" stroke="black" stroke-width="3"></line><line x1="122.35250067778105" y1="131.2227658653608" x2="121.77231993993782" y2="130.17383798160478" stroke="black" stroke-width="3"></line><line x1="121.77231993993782" y1="130.17383798160478" x2="121.25856416838279" y2="128.17463484666195" stroke="black" stroke-width="3"></line><line x1="121.25856416838279" y1="128.17463484666195" x2="121.45847776773334" y2="126.63949309533771" stroke="black" stroke-width="3"></line><line x1="121.45847776773334" y1="126.63949309533771" x2="122.2646215163055" y2="125.06252346819691" stroke="black" stroke-width="3"></line><line x1="122.2646215163055" y1="125.06252346819691" x2="122.5244114595823" y2="124.1198314566552" stroke="black" stroke-width="3"></line><line x1="122.5244114595823" y1="124.1198314566552" x2="123.75156541837404" y2="122.9484577733941" stroke="black" stroke-width="3"></line><line x1="123.75156541837404" y1="122.9484577733941" x2="124.82624993738898" y2="122.48313131747622" stroke="black" stroke-width="3"></line><line x1="124.82624993738898" y1="122.48313131747622" x2="126.17863683134512" y2="121.65589522356454" stroke="black" stroke-width="3"></line><line x1="126.17863683134512" y1="121.65589522356454" x2="127.92808981700861" y2="121.29816250151035" stroke="black" stroke-width="3"></line><line x1="127.92808981700861" y1="121.29816250151035" x2="129.5975565069267" y2="121.48377118026795" stroke="black" stroke-width="3"></line><line x1="129.5975565069267" y1="121.48377118026795" x2="130.27840449143233" y2="121.72755534067349" stroke="black" stroke-width="3"></line><line x1="130.27840449143233" y1="121.72755534067349" x2="132.03080727020534" y2="122.9235955740358" stroke="black" stroke-width="3"></line><line x1="132.03080727020534" y1="122.9235955740358" x2="133.3487586231082" y2="124.19148778771236" stroke="black" stroke-width="3"></line><line x1="133.3487586231082" y1="124.19148778771236" x2="133.76912355981943" y2="124.73240856684731" stroke="black" stroke-width="3"></line><line x1="133.76912355981943" y1="124.73240856684731" x2="134.40203053110753" y2="126.500404057341" stroke="black" stroke-width="3"></line><line x1="134.40203053110753" y1="126.500404057341" x2="134.67019855441433" y2="129.29682625612693" stroke="black" stroke-width="3"></line><line x1="152.6895695558291" y1="131.66904559077418" x2="150.74836470102892" y2="138.47609968722827" stroke="black" stroke-width="3"></line><line x1="150.74836470102892" y1="138.47609968722827" x2="147.1492357855319" y2="144.10332268854566" stroke="black" stroke-width="3"></line><line x1="147.1492357855319" y1="144.10332268854566" x2="143.77983051003832" y2="147.45743353999833" stroke="black" stroke-width="3"></line><line x1="143.77983051003832" y1="147.45743353999833" x2="140.8520109366838" y2="149.43683379253105" stroke="black" stroke-width="3"></line><line x1="140.8520109366838" y1="149.43683379253105" x2="138.24915176154656" y2="151.7471382174795" stroke="black" stroke-width="3"></line><line x1="138.24915176154656" y1="151.7471382174795" x2="133.20036308299296" y2="152.69966006311023" stroke="black" stroke-width="3"></line><line x1="133.20036308299296" y1="152.69966006311023" x2="124.5720401836076" y2="153.3742758125022" stroke="black" stroke-width="3"></line><line x1="124.5720401836076" y1="153.3742758125022" x2="119.49065201618987" y2="152.75557438937784" stroke="black" stroke-width="3"></line><line x1="119.49065201618987" y1="152.75557438937784" x2="115.93007935375007" y2="150.6602071311366" stroke="black" stroke-width="3"></line><line x1="115.93007935375007" y1="150.6602071311366" x2="109.9117454086267" y2="146.77368912764166" stroke="black" stroke-width="3"></line><line x1="109.9117454086267" y1="146.77368912764166" x2="105.15779522928673" y2="140.03893292037594" stroke="black" stroke-width="3"></line><line x1="105.15779522928673" y1="140.03893292037594" x2="103.6550692663909" y2="136.77615371361134" stroke="black" stroke-width="3"></line><line x1="103.6550692663909" y1="136.77615371361134" x2="102.07204457698253" y2="128.813387723436" stroke="black" stroke-width="3"></line><line x1="102.07204457698253" y1="128.813387723436" x2="103.58855372489911" y2="123.95032973323042" stroke="black" stroke-width="3"></line><line x1="103.58855372489911" y1="123.95032973323042" x2="105.96635181530252" y2="116.12030865908166" stroke="black" stroke-width="3"></line><line x1="105.96635181530252" y1="116.12030865908166" x2="106.49117021021789" y2="113.82044678652788" stroke="black" stroke-width="3"></line><line x1="106.49117021021789" y1="113.82044678652788" x2="112.33714132412497" y2="109.07360941403486" stroke="black" stroke-width="3"></line><line x1="112.33714132412497" y1="109.07360941403486" x2="114.61840828065375" y2="105.51849655179456" stroke="black" stroke-width="3"></line><line x1="114.61840828065375" y1="105.51849655179456" x2="120.79017091113788" y2="103.33023605602051" stroke="black" stroke-width="3"></line><line x1="120.79017091113788" y1="103.33023605602051" x2="127.37398544503681" y2="101.94669398192609" stroke="black" stroke-width="3"></line><line x1="127.37398544503681" y1="101.94669398192609" x2="134.44419819928922" y2="102.61675625098994" stroke="black" stroke-width="3"></line><line x1="134.44419819928922" y1="102.61675625098994" x2="137.4635199152362" y2="104.31562117307186" stroke="black" stroke-width="3"></line><line x1="137.4635199152362" y1="104.31562117307186" x2="143.9927055644222" y2="108.04327671113543" stroke="black" stroke-width="3"></line><line x1="143.9927055644222" y1="108.04327671113543" x2="147.55656237518738" y2="112.13195407464863" stroke="black" stroke-width="3"></line><line x1="147.55656237518738" y1="112.13195407464863" x2="149.7026226236276" y2="115.14382165068602" stroke="black" stroke-width="3"></line><line x1="149.7026226236276" y1="115.14382165068602" x2="153.37875141118073" y2="122.44377652916859" stroke="black" stroke-width="3"></line><line x1="153.37875141118073" y1="122.44377652916859" x2="152.6895695558291" y2="131.66904559077418" stroke="black" stroke-width="3"></line><line x1="167.13859593571635" y1="134.58009704202033" x2="166.19170019568503" y2="143.1791043235216" stroke="black" stroke-width="3"></line><line x1="166.19170019568503" y1="143.1791043235216" x2="158.84551648353914" y2="153.81856563542792" stroke="black" stroke-width="3"></line><line x1="158.84551648353914" y1="153.81856563542792" x2="153.26280144777542" y2="159.14473929602286" stroke="black" stroke-width="3"></line><line x1="153.26280144777542" y1="159.14473929602286" x2="149.05314827978864" y2="162.05172589165696" stroke="black" stroke-width="3"></line><line x1="149.05314827978864" y1="162.05172589165696" x2="143.85576827162774" y2="165.8876705636264" stroke="black" stroke-width="3"></line><line x1="143.85576827162774" y1="165.8876705636264" x2="136.03086979097097" y2="166.58125487375366" stroke="black" stroke-width="3"></line><line x1="136.03086979097097" y1="166.58125487375366" x2="124.19964525874877" y2="167.01368811937476" stroke="black" stroke-width="3"></line><line x1="124.19964525874877" y1="167.01368811937476" x2="115.19273464848135" y2="166.508819593378" stroke="black" stroke-width="3"></line><line x1="115.19273464848135" y1="166.508819593378" x2="110.96273275851291" y2="163.3724903018746" stroke="black" stroke-width="3"></line><line x1="110.96273275851291" y1="163.3724903018746" x2="100.91237983798723" y2="156.60179557691924" stroke="black" stroke-width="3"></line><line x1="100.91237983798723" y1="156.60179557691924" x2="91.9325249403552" y2="147.81741178723328" stroke="black" stroke-width="3"></line><line x1="91.9325249403552" y1="147.81741178723328" x2="90.41103184433216" y2="142.34117558612456" stroke="black" stroke-width="3"></line><line x1="90.41103184433216" y1="142.34117558612456" x2="88.63295831448879" y2="129.74731458240234" stroke="black" stroke-width="3"></line><line x1="88.63295831448879" y1="129.74731458240234" x2="87.6738182528637" y2="121.78039416067266" stroke="black" stroke-width="3"></line><line x1="87.6738182528637" y1="121.78039416067266" x2="91.72505271246976" y2="110.65033300865854" stroke="black" stroke-width="3"></line><line x1="91.72505271246976" y1="110.65033300865854" x2="95.16149177187827" y2="105.38845425766937" stroke="black" stroke-width="3"></line><line x1="95.16149177187827" y1="105.38845425766937" x2="100.96039123985386" y2="96.16463591944115" stroke="black" stroke-width="3"></line><line x1="100.96039123985386" y1="96.16463591944115" x2="107.98735159039167" y2="92.53880245719509" stroke="black" stroke-width="3"></line><line x1="107.98735159039167" y1="92.53880245719509" x2="116.35404965817334" y2="88.98032677202602" stroke="black" stroke-width="3"></line><line x1="116.35404965817334" y1="88.98032677202602" x2="128.4147478776774" y2="86.81618581800528" stroke="black" stroke-width="3"></line><line x1="128.4147478776774" y1="86.81618581800528" x2="137.39292550384496" y2="89.50362502595031" stroke="black" stroke-width="3"></line><line x1="137.39292550384496" y1="89.50362502595031" x2="142.80288342110455" y2="90.94103033883283" stroke="black" stroke-width="3"></line><line x1="142.80288342110455" y1="90.94103033883283" x2="152.63707814818738" y2="97.9649361110234" stroke="black" stroke-width="3"></line><line x1="152.63707814818738" y1="97.9649361110234" x2="158.7972845627625" y2="104.56774408479134" stroke="black" stroke-width="3"></line><line x1="158.7972845627625" y1="104.56774408479134" x2="163.66777937005224" y2="107.52308086042532" stroke="black" stroke-width="3"></line><line x1="163.66777937005224" y1="107.52308086042532" x2="167.1414045232567" y2="119.86296209253751" stroke="black" stroke-width="3"></line><line x1="167.1414045232567" y1="119.86296209253751" x2="167.13859593571635" y2="134.58009704202033" stroke="black" stroke-width="3"></line><line x1="182.13067282369383" y1="138.3744905252027" x2="179.47742653937206" y2="148.90129952081662" stroke="black" stroke-width="3"></line><line x1="179.47742653937206" y1="148.90129952081662" x2="172.8241768600588" y2="164.46692651365225" stroke="black" stroke-width="3"></line><line x1="172.8241768600588" y1="164.46692651365225" x2="162.30467194314247" y2="170.93367208934166" stroke="black" stroke-width="3"></line><line x1="162.30467194314247" y1="170.93367208934166" x2="158.73316764071552" y2="176.34187043135088" stroke="black" stroke-width="3"></line><line x1="158.73316764071552" y1="176.34187043135088" x2="149.4498472343853" y2="180.72499583803574" stroke="black" stroke-width="3"></line><line x1="149.4498472343853" y1="180.72499583803574" x2="138.02281449966603" y2="183.56312479455667" stroke="black" stroke-width="3"></line><line x1="138.02281449966603" y1="183.56312479455667" x2="120.92086295877786" y2="182.64006367806448" stroke="black" stroke-width="3"></line><line x1="120.92086295877786" y1="182.64006367806448" x2="110.15446729404333" y2="182.11819803217384" stroke="black" stroke-width="3"></line><line x1="110.15446729404333" y1="182.11819803217384" x2="102.80173255014404" y2="179.54940443532203" stroke="black" stroke-width="3"></line><line x1="102.80173255014404" y1="179.54940443532203" x2="90.31394218029106" y2="168.22067547982485" stroke="black" stroke-width="3"></line><line x1="90.31394218029106" y1="168.22067547982485" x2="79.08568691060911" y2="155.00343645966734" stroke="black" stroke-width="3"></line><line x1="79.08568691060911" y1="155.00343645966734" x2="76.31438463480579" y2="148.05206216084088" stroke="black" stroke-width="3"></line><line x1="76.31438463480579" y1="148.05206216084088" x2="72.6553408332833" y2="128.25756362323918" stroke="black" stroke-width="3"></line><line x1="72.6553408332833" y1="128.25756362323918" x2="71.85365827398375" y2="119.35305803493115" stroke="black" stroke-width="3"></line><line x1="71.85365827398375" y1="119.35305803493115" x2="79.23846183810782" y2="104.10398332429678" stroke="black" stroke-width="3"></line><line x1="79.23846183810782" y1="104.10398332429678" x2="81.02850129607342" y2="95.36978896425866" stroke="black" stroke-width="3"></line><line x1="81.02850129607342" y1="95.36978896425866" x2="91.56092240792589" y2="83.99214907593249" stroke="black" stroke-width="3"></line><line x1="91.56092240792589" y1="83.99214907593249" x2="98.54059573814297" y2="81.64014930591682" stroke="black" stroke-width="3"></line><line x1="98.54059573814297" y1="81.64014930591682" x2="112.56626616717685" y2="74.18911765004644" stroke="black" stroke-width="3"></line><line x1="112.56626616717685" y1="74.18911765004644" x2="128.79201498610738" y2="70.89290864211978" stroke="black" stroke-width="3"></line><line x1="128.79201498610738" y1="70.89290864211978" x2="139.61147737740745" y2="73.41390479074045" stroke="black" stroke-width="3"></line><line x1="139.61147737740745" y1="73.41390479074045" x2="148.74179181577492" y2="75.406449226102" stroke="black" stroke-width="3"></line><line x1="148.74179181577492" y1="75.406449226102" x2="162.51917928728898" y2="86.75258896895023" stroke="black" stroke-width="3"></line><line x1="162.51917928728898" y1="86.75258896895023" x2="170.98070044429898" y2="95.8191237500973" stroke="black" stroke-width="3"></line><line x1="170.98070044429898" y1="95.8191237500973" x2="177.24125139492332" y2="102.58397168655829" stroke="black" stroke-width="3"></line><line x1="177.24125139492332" y1="102.58397168655829" x2="181.38180682666945" y2="114.60880905505701" stroke="black" stroke-width="3"></line><line x1="181.38180682666945" y1="114.60880905505701" x2="182.13067282369383" y2="138.3744905252027" stroke="black" stroke-width="3"></line><line x1="198.0811258436825" y1="141.03996475704062" x2="194.31093699214722" y2="156.1604222309257" stroke="black" stroke-width="3"></line><line x1="194.31093699214722" y1="156.1604222309257" x2="183.32835529365013" y2="173.37467070601258" stroke="black" stroke-width="3"></line><line x1="183.32835529365013" y1="173.37467070601258" x2="174.67228803462706" y2="185.01352857143277" stroke="black" stroke-width="3"></line><line x1="174.67228803462706" y1="185.01352857143277" x2="165.06865163982133" y2="189.60043385304948" stroke="black" stroke-width="3"></line><line x1="165.06865163982133" y1="189.60043385304948" x2="155.6835627104216" y2="193.92105711781167" stroke="black" stroke-width="3"></line><line x1="155.6835627104216" y1="193.92105711781167" x2="141.01252027753387" y2="197.92336941493647" stroke="black" stroke-width="3"></line><line x1="141.01252027753387" y1="197.92336941493647" x2="122.163184670632" y2="198.90259324410496" stroke="black" stroke-width="3"></line><line x1="122.163184670632" y1="198.90259324410496" x2="108.11872010790033" y2="197.63170689255614" stroke="black" stroke-width="3"></line><line x1="108.11872010790033" y1="197.63170689255614" x2="96.82834321131867" y2="190.38117841586987" stroke="black" stroke-width="3"></line><line x1="96.82834321131867" y1="190.38117841586987" x2="79.67759095735397" y2="181.1185214221548" stroke="black" stroke-width="3"></line><line x1="79.67759095735397" y1="181.1185214221548" x2="64.71453532103752" y2="165.5421196366631" stroke="black" stroke-width="3"></line><line x1="64.71453532103752" y1="165.5421196366631" x2="60.79323006703122" y2="150.54427972829433" stroke="black" stroke-width="3"></line><line x1="60.79323006703122" y1="150.54427972829433" x2="55.01942654188099" y2="130.8170414345918" stroke="black" stroke-width="3"></line><line x1="55.01942654188099" y1="130.8170414345918" x2="57.94559596550475" y2="116.54758969115987" stroke="black" stroke-width="3"></line><line x1="57.94559596550475" y1="116.54758969115987" x2="65.81347506630696" y2="94.68308895942431" stroke="black" stroke-width="3"></line><line x1="65.81347506630696" y1="94.68308895942431" x2="71.30123318796996" y2="88.69521691824491" stroke="black" stroke-width="3"></line><line x1="71.30123318796996" y1="88.69521691824491" x2="82.56474093034493" y2="74.46903688321478" stroke="black" stroke-width="3"></line><line x1="82.56474093034493" y1="74.46903688321478" x2="91.05843549511775" y2="67.32708412829491" stroke="black" stroke-width="3"></line><line x1="91.05843549511775" y1="67.32708412829491" x2="107.69040528390961" y2="58.56641863411977" stroke="black" stroke-width="3"></line><line x1="107.69040528390961" y1="58.56641863411977" x2="126.11187508701168" y2="55.12382712208728" stroke="black" stroke-width="3"></line><line x1="126.11187508701168" y1="55.12382712208728" x2="145.74592811742747" y2="56.54486783313074" stroke="black" stroke-width="3"></line><line x1="145.74592811742747" y1="56.54486783313074" x2="154.73409427415282" y2="62.964227176798744" stroke="black" stroke-width="3"></line><line x1="154.73409427415282" y1="62.964227176798744" x2="172.93014304572196" y2="71.03857794625546" stroke="black" stroke-width="3"></line><line x1="172.93014304572196" y1="71.03857794625546" x2="184.02660130888773" y2="86.61863743036537" stroke="black" stroke-width="3"></line><line x1="184.02660130888773" y1="86.61863743036537" x2="192.01961210545102" y2="91.52542171370627" stroke="black" stroke-width="3"></line><line x1="192.01961210545102" y1="91.52542171370627" x2="200.0350692205159" y2="114.91408167757457" stroke="black" stroke-width="3"></line><line x1="200.0350692205159" y1="114.91408167757457" x2="198.0811258436825" y2="141.03996475704062" stroke="black" stroke-width="3"></line><line x1="214.641235879671" y1="143.56412686358456" x2="208.7389542317959" y2="160.0715780209127" stroke="black" stroke-width="3"></line><line x1="208.7389542317959" y1="160.0715780209127" x2="196.3531973454982" y2="182.71962794518328" stroke="black" stroke-width="3"></line><line x1="196.3531973454982" y1="182.71962794518328" x2="182.68146220750313" y2="192.6596204389617" stroke="black" stroke-width="3"></line><line x1="182.68146220750313" y1="192.6596204389617" x2="176.2188813358697" y2="202.19300724231908" stroke="black" stroke-width="3"></line><line x1="176.2188813358697" y1="202.19300724231908" x2="162.89357048634395" y2="209.10905336493283" stroke="black" stroke-width="3"></line><line x1="162.89357048634395" y1="209.10905336493283" x2="142.11356475569934" y2="213.16961581602826" stroke="black" stroke-width="3"></line><line x1="142.11356475569934" y1="213.16961581602826" x2="117.60682322007924" y2="213.64183491633094" stroke="black" stroke-width="3"></line><line x1="117.60682322007924" y1="213.64183491633094" x2="101.02512456677243" y2="211.60505944802804" stroke="black" stroke-width="3"></line><line x1="101.02512456677243" y1="211.60505944802804" x2="91.4014981288529" y2="206.0113231977324" stroke="black" stroke-width="3"></line><line x1="91.4014981288529" y1="206.0113231977324" x2="69.2708586271704" y2="189.01966278938187" stroke="black" stroke-width="3"></line><line x1="69.2708586271704" y1="189.01966278938187" x2="49.82352861210512" y2="169.62922391087338" stroke="black" stroke-width="3"></line><line x1="49.82352861210512" y1="169.62922391087338" x2="44.88479229914617" y2="154.76635204576178" stroke="black" stroke-width="3"></line><line x1="44.88479229914617" y1="154.76635204576178" x2="43.69250457976672" y2="129.54612183022968" stroke="black" stroke-width="3"></line><line x1="43.69250457976672" y1="129.54612183022968" x2="41.15977211556971" y2="111.8905107677257" stroke="black" stroke-width="3"></line><line x1="41.15977211556971" y1="111.8905107677257" x2="51.39450148054313" y2="90.180116599908" stroke="black" stroke-width="3"></line><line x1="51.39450148054313" y1="90.180116599908" x2="56.25587795688368" y2="78.22963299502754" stroke="black" stroke-width="3"></line><line x1="56.25587795688368" y1="78.22963299502754" x2="71.27752554797877" y2="59.18100055524924" stroke="black" stroke-width="3"></line><line x1="71.27752554797877" y1="59.18100055524924" x2="86.07675161443021" y2="51.405049441717324" stroke="black" stroke-width="3"></line><line x1="86.07675161443021" y1="51.405049441717324" x2="101.25788322444112" y2="46.91284803571948" stroke="black" stroke-width="3"></line><line x1="101.25788322444112" y1="46.91284803571948" x2="127.60733439153198" y2="39.414595374847124" stroke="black" stroke-width="3"></line><line x1="127.60733439153198" y1="39.414595374847124" x2="148.4083655492306" y2="40.88316285111948" stroke="black" stroke-width="3"></line><line x1="148.4083655492306" y1="40.88316285111948" x2="159.05129450874546" y2="47.83969106318651" stroke="black" stroke-width="3"></line><line x1="159.05129450874546" y1="47.83969106318651" x2="181.6110263533668" y2="62.655600288899024" stroke="black" stroke-width="3"></line><line x1="181.6110263533668" y1="62.655600288899024" x2="197.65485210286323" y2="75.14633674349824" stroke="black" stroke-width="3"></line><line x1="197.65485210286323" y1="75.14633674349824" x2="203.6287015604609" y2="84.3384923511577" stroke="black" stroke-width="3"></line><line x1="203.6287015604609" y1="84.3384923511577" x2="214.05311118155797" y2="110.53072677867857" stroke="black" stroke-width="3"></line><line x1="214.05311118155797" y1="110.53072677867857" x2="214.641235879671" y2="143.56412686358456" stroke="black" stroke-width="3"></line><line x1="230.2135583346558" y1="144.47301990250656" x2="222.9643638582084" y2="166.4623067814124" stroke="black" stroke-width="3"></line><line x1="222.9643638582084" y1="166.4623067814124" x2="210.36105402573588" y2="197.29479060798576" stroke="black" stroke-width="3"></line><line x1="210.36105402573588" y1="197.29479060798576" x2="194.26160779262617" y2="205.98039898865665" stroke="black" stroke-width="3"></line><line x1="194.26160779262617" y1="205.98039898865665" x2="185.0947149100478" y2="217.71882552256824" stroke="black" stroke-width="3"></line><line x1="185.0947149100478" y1="217.71882552256824" x2="168.5529276259524" y2="224.2052746391367" stroke="black" stroke-width="3"></line><line x1="168.5529276259524" y1="224.2052746391367" x2="150.2553301404506" y2="228.2182463924525" stroke="black" stroke-width="3"></line><line x1="150.2553301404506" y1="228.2182463924525" x2="116.95873082732267" y2="230.41955559560964" stroke="black" stroke-width="3"></line><line x1="116.95873082732267" y1="230.41955559560964" x2="93.96339352936533" y2="224.70473731018308" stroke="black" stroke-width="3"></line><line x1="93.96339352936533" y1="224.70473731018308" x2="80.49109013367271" y2="221.34410331737604" stroke="black" stroke-width="3"></line><line x1="80.49109013367271" y1="221.34410331737604" x2="57.20125324622279" y2="201.44689412159838" stroke="black" stroke-width="3"></line><line x1="57.20125324622279" y1="201.44689412159838" x2="38.793293955425554" y2="179.53556645287108" stroke="black" stroke-width="3"></line><line x1="38.793293955425554" y1="179.53556645287108" x2="28.256510449065317" y2="165.60287076053547" stroke="black" stroke-width="3"></line><line x1="28.256510449065317" y1="165.60287076053547" x2="22.640089135450125" y2="132.92163779193646" stroke="black" stroke-width="3"></line><line x1="22.640089135450125" y1="132.92163779193646" x2="25.854901998123538" y2="108.09607600370431" stroke="black" stroke-width="3"></line><line x1="25.854901998123538" y1="108.09607600370431" x2="36.453774364268256" y2="81.0512935737472" stroke="black" stroke-width="3"></line><line x1="36.453774364268256" y1="81.0512935737472" x2="42.50122608292881" y2="69.74602247825139" stroke="black" stroke-width="3"></line><line x1="42.50122608292881" y1="69.74602247825139" x2="58.880633027907564" y2="47.91966988607216" stroke="black" stroke-width="3"></line><line x1="58.880633027907564" y1="47.91966988607216" x2="76.3715176438848" y2="35.85559164453451" stroke="black" stroke-width="3"></line><line x1="76.3715176438848" y1="35.85559164453451" x2="100.03130439441713" y2="27.52346296260737" stroke="black" stroke-width="3"></line><line x1="100.03130439441713" y1="27.52346296260737" x2="129.73119836498836" y2="20.89072815659118" stroke="black" stroke-width="3"></line><line x1="129.73119836498836" y1="20.89072815659118" x2="150.26687421958448" y2="24.831350569322638" stroke="black" stroke-width="3"></line><line x1="150.26687421958448" y1="24.831350569322638" x2="169.81076167957994" y2="31.107020951386403" stroke="black" stroke-width="3"></line><line x1="169.81076167957994" y1="31.107020951386403" x2="193.69782291547372" y2="49.59072595037203" stroke="black" stroke-width="3"></line><line x1="193.69782291547372" y1="49.59072595037203" x2="210.42235716327002" y2="66.65527903807182" stroke="black" stroke-width="3"></line><line x1="210.42235716327002" y1="66.65527903807182" x2="218.78208036835355" y2="80.74240435858084" stroke="black" stroke-width="3"></line><line x1="218.78208036835355" y1="80.74240435858084" x2="227.42997369783603" y2="107.0188999947409" stroke="black" stroke-width="3"></line><line x1="227.42997369783603" y1="107.0188999947409" x2="230.2135583346558" y2="144.47301990250656" stroke="black" stroke-width="3"></line><line x1="245.52281015419914" y1="148.6860563931905" x2="240.0653865302678" y2="171.80226279916042" stroke="black" stroke-width="3"></line><line x1="240.0653865302678" y1="171.80226279916042" x2="220.93190806841534" y2="200.77960486062364" stroke="black" stroke-width="3"></line><line x1="220.93190806841534" y1="200.77960486062364" x2="206.10956829240877" y2="223.43397499998883" stroke="black" stroke-width="3"></line><line x1="206.10956829240877" y1="223.43397499998883" x2="192.922568655686" y2="227.06350838851046" stroke="black" stroke-width="3"></line><line x1="192.922568655686" y1="227.06350838851046" x2="176.1819855684767" y2="240.51925474198492" stroke="black" stroke-width="3"></line><line x1="176.1819855684767" y1="240.51925474198492" x2="147.50468347478545" y2="247.0299505328993" stroke="black" stroke-width="3"></line><line x1="147.50468347478545" y1="247.0299505328993" x2="116.11477074911012" y2="244.05454243918416" stroke="black" stroke-width="3"></line><line x1="116.11477074911012" y1="244.05454243918416" x2="93.86990227787797" y2="243.83978292922117" stroke="black" stroke-width="3"></line><line x1="93.86990227787797" y1="243.83978292922117" x2="72.44361847820915" y2="236.9253304056285" stroke="black" stroke-width="3"></line><line x1="72.44361847820915" y1="236.9253304056285" x2="41.54064904622376" y2="213.2472833556618" stroke="black" stroke-width="3"></line><line x1="41.54064904622376" y1="213.2472833556618" x2="25.247366106949713" y2="190.47700256239426" stroke="black" stroke-width="3"></line><line x1="25.247366106949713" y1="190.47700256239426" x2="13.025855676156368" y2="171.12193883055366" stroke="black" stroke-width="3"></line><line x1="13.025855676156368" y1="171.12193883055366" x2="6.106016415550073" y2="132.0041931601002" stroke="black" stroke-width="3"></line><line x1="6.106016415550073" y1="132.0041931601002" x2="9.758483318043005" y2="109.57487465942812" stroke="black" stroke-width="3"></line><line x1="9.758483318043005" y1="109.57487465942812" x2="24.101174342357865" y2="75.39868435845015" stroke="black" stroke-width="3"></line><line x1="24.101174342357865" y1="75.39868435845015" x2="29.317192793731707" y2="57.947853359553875" stroke="black" stroke-width="3"></line><line x1="29.317192793731707" y1="57.947853359553875" x2="49.695536649370865" y2="34.75585454895587" stroke="black" stroke-width="3"></line><line x1="49.695536649370865" y1="34.75585454895587" x2="68.57988777033145" y2="27.205401177298" stroke="black" stroke-width="3"></line><line x1="68.57988777033145" y1="27.205401177298" x2="92.8456898926744" y2="12.456838563213793" stroke="black" stroke-width="3"></line><line x1="92.8456898926744" y1="12.456838563213793" x2="125.91911624469027" y2="10.525996143110177" stroke="black" stroke-width="3"></line><line x1="125.91911624469027" y1="10.525996143110177" x2="152.18035460159274" y2="11.14841308733908" stroke="black" stroke-width="3"></line><line x1="152.18035460159274" y1="11.14841308733908" x2="175.4971807078135" y2="16.98418821719453" stroke="black" stroke-width="3"></line><line x1="175.4971807078135" y1="16.98418821719453" x2="201.97079307255547" y2="36.68999678867473" stroke="black" stroke-width="3"></line><line x1="201.97079307255547" y1="36.68999678867473" x2="222.86660785201093" y2="58.741871341740875" stroke="black" stroke-width="3"></line><line x1="222.86660785201093" y1="58.741871341740875" x2="232.99402683150223" y2="70.85653597897151" stroke="black" stroke-width="3"></line><line x1="232.99402683150223" y1="70.85653597897151" x2="248.85468732658958" y2="103.5584193329392" stroke="black" stroke-width="3"></line><line x1="248.85468732658958" y1="103.5584193329392" x2="245.52281015419914" y2="148.6860563931905" stroke="black" stroke-width="3"></line><line x1="134.67019855441433" y1="129.29682625612693" x2="256" y2="149.46977581698718" stroke="black" stroke-width="3"></line><line x1="134.10349373319104" y1="130.71956277206826" x2="256" y2="180.9679772155533" stroke="black" stroke-width="3"></line><line x1="133.06832831780866" y1="132.1079638709951" x2="256" y2="232.84626965856904" stroke="black" stroke-width="3"></line><line x1="132.26457975854592" y1="133.1993674460765" x2="233.54118839965133" y2="256" stroke="black" stroke-width="3"></line><line x1="131.55964934744176" y1="133.7115357675502" x2="207.720558952371" y2="256" stroke="black" stroke-width="3"></line><line x1="130.52372877096093" y1="134.1154159933773" x2="182.63289404226333" y2="256" stroke="black" stroke-width="3"></line><line x1="129.19307070571998" y1="134.61858510424517" x2="152.0071636242509" y2="256" stroke="black" stroke-width="3"></line><line x1="127.35391478025689" y1="134.75572108743035" x2="114.48342360079862" y2="256" stroke="black" stroke-width="3"></line><line x1="126.05376257379592" y1="134.28548237483534" x2="86.59377493978972" y2="256" stroke="black" stroke-width="3"></line><line x1="125.0175991447166" y1="133.91333308316578" x2="64.39147728886849" y2="256" stroke="black" stroke-width="3"></line><line x1="123.22838137334453" y1="132.75650435695857" x2="4.689364580755935" y2="256" stroke="black" stroke-width="3"></line><line x1="122.35250067778105" y1="131.2227658653608" x2="0" y2="200.6560714263719" stroke="black" stroke-width="3"></line><line x1="121.77231993993782" y1="130.17383798160478" x2="0" y2="172.72249339595425" stroke="black" stroke-width="3"></line><line x1="121.25856416838279" y1="128.17463484666195" x2="0" y2="131.6730993205294" stroke="black" stroke-width="3"></line><line x1="121.45847776773334" y1="126.63949309533771" x2="0" y2="104.73769200040229" stroke="black" stroke-width="3"></line><line x1="122.2646215163055" y1="125.06252346819691" x2="0" y2="62.75380760717991" stroke="black" stroke-width="3"></line><line x1="122.5244114595823" y1="124.1198314566552" x2="0" y2="38.65058485005234" stroke="black" stroke-width="3"></line><line x1="123.75156541837404" y1="122.9484577733941" x2="19.993043289447627" y2="0" stroke="black" stroke-width="3"></line><line x1="124.82624993738898" y1="122.48313131747622" x2="52.46128318217443" y2="0" stroke="black" stroke-width="3"></line><line x1="126.17863683134512" y1="121.65589522356454" x2="91.08056068334338" y2="0" stroke="black" stroke-width="3"></line><line x1="127.92808981700861" y1="121.29816250151035" x2="126.50015830498181" y2="0" stroke="black" stroke-width="3"></line><line x1="129.5975565069267" y1="121.48377118026795" x2="157.2347942462321" y2="0" stroke="black" stroke-width="3"></line><line x1="130.27840449143233" y1="121.72755534067349" x2="179.23194380318378" y2="0" stroke="black" stroke-width="3"></line><line x1="132.03080727020534" y1="122.9235955740358" x2="233.8814715718458" y2="0" stroke="black" stroke-width="3"></line><line x1="133.3487586231082" y1="124.19148778771236" x2="256" y2="31.175967173726846" stroke="black" stroke-width="3"></line><line x1="133.76912355981943" y1="124.73240856684731" x2="256" y2="57.57639401030556" stroke="black" stroke-width="3"></line><line x1="134.40203053110753" y1="126.500404057341" x2="256" y2="100.20902691020187" stroke="black" stroke-width="3"></line></svg>