solid OpenSCAD_Model
  facet normal 0 0 -1
    outer loop
      vertex 0 0 0
      vertex -2 2 0
      vertex 0 10 0
    endloop
  endfacet
  facet normal 0 0 -1
    outer loop
      vertex -8.8 0 0
      vertex -2 2 0
      vertex 0 0 0
    endloop
  endfacet
  facet normal -0 0 -1
    outer loop
      vertex -2 2 0
      vertex -8.8 0 0
      vertex -8 2 0
    endloop
  endfacet
  facet normal 0 0 -1
    outer loop
      vertex -8.8 6 0
      vertex -8 2 0
      vertex -8.8 0 0
    endloop
  endfacet
  facet normal 0 0 -1
    outer loop
      vertex -8 2 0
      vertex -8.8 6 0
      vertex -8 6 0
    endloop
  endfacet
  facet normal -0 0 -1
    outer loop
      vertex 0 10 0
      vertex -2 2 0
      vertex -2 10 0
    endloop
  endfacet
  facet normal -1 0 0
    outer loop
      vertex -2 2 0
      vertex -2 10 8
      vertex -2 10 0
    endloop
  endfacet
  facet normal -1 -0 0
    outer loop
      vertex -2 10 8
      vertex -2 2 0
      vertex -2 2 8
    endloop
  endfacet
  facet normal 0 0 1
    outer loop
      vertex -8 6 8
      vertex -8.8 6 8
      vertex -8 2 8
    endloop
  endfacet
  facet normal 0 0 1
    outer loop
      vertex -2 2 8
      vertex 0 10 8
      vertex -2 10 8
    endloop
  endfacet
  facet normal 0 0 1
    outer loop
      vertex 0 10 8
      vertex -2 2 8
      vertex 0 0 8
    endloop
  endfacet
  facet normal 0 0 1
    outer loop
      vertex -8.8 0 8
      vertex -2 2 8
      vertex -8 2 8
    endloop
  endfacet
  facet normal 0 0 1
    outer loop
      vertex -2 2 8
      vertex -8.8 0 8
      vertex 0 0 8
    endloop
  endfacet
  facet normal 0 0 1
    outer loop
      vertex -8.8 0 8
      vertex -8 2 8
      vertex -8.8 6 8
    endloop
  endfacet
  facet normal 0 1 -0
    outer loop
      vertex 0 10 0
      vertex -2 10 8
      vertex 0 10 8
    endloop
  endfacet
  facet normal 0 1 0
    outer loop
      vertex -2 10 8
      vertex 0 10 0
      vertex -2 10 0
    endloop
  endfacet
  facet normal 1 -0 0
    outer loop
      vertex 0 0 8
      vertex 0 10 0
      vertex 0 10 8
    endloop
  endfacet
  facet normal 1 0 0
    outer loop
      vertex 0 10 0
      vertex 0 0 8
      vertex 0 0 0
    endloop
  endfacet
  facet normal 0 -1 0
    outer loop
      vertex -8.8 0 0
      vertex 0 0 8
      vertex -8.8 0 8
    endloop
  endfacet
  facet normal 0 -1 -0
    outer loop
      vertex 0 0 8
      vertex -8.8 0 0
      vertex 0 0 0
    endloop
  endfacet
  facet normal 1 -0 0
    outer loop
      vertex -8 2 8
      vertex -8 6 0
      vertex -8 6 8
    endloop
  endfacet
  facet normal 1 0 0
    outer loop
      vertex -8 6 0
      vertex -8 2 8
      vertex -8 2 0
    endloop
  endfacet
  facet normal 0 1 -0
    outer loop
      vertex -2 2 0
      vertex -8 2 8
      vertex -2 2 8
    endloop
  endfacet
  facet normal 0 1 0
    outer loop
      vertex -8 2 8
      vertex -2 2 0
      vertex -8 2 0
    endloop
  endfacet
  facet normal -1 0 0
    outer loop
      vertex -8.8 0 0
      vertex -8.8 6 8
      vertex -8.8 6 0
    endloop
  endfacet
  facet normal -1 -0 0
    outer loop
      vertex -8.8 6 8
      vertex -8.8 0 0
      vertex -8.8 0 8
    endloop
  endfacet
  facet normal 0 1 -0
    outer loop
      vertex -8 6 0
      vertex -8.8 6 8
      vertex -8 6 8
    endloop
  endfacet
  facet normal 0 1 0
    outer loop
      vertex -8.8 6 8
      vertex -8 6 0
      vertex -8.8 6 0
    endloop
  endfacet
endsolid OpenSCAD_Model
