solid OpenSCAD_Model
  facet normal -1 0 0
    outer loop
      vertex 0 0 0
      vertex 0 77.5 90
      vertex 0 77.5 0
    endloop
  endfacet
  facet normal -1 -0 0
    outer loop
      vertex 0 77.5 90
      vertex 0 0 0
      vertex 0 0 90
    endloop
  endfacet
  facet normal -1 0 0
    outer loop
      vertex 0 79.5 0
      vertex 0 155 90
      vertex 0 155 0
    endloop
  endfacet
  facet normal -1 -0 0
    outer loop
      vertex 0 155 90
      vertex 0 79.5 0
      vertex 0 79.5 90
    endloop
  endfacet
  facet normal -0 0 1
    outer loop
      vertex -40 79.5 90
      vertex 0 77.5 90
      vertex 0 79.5 90
    endloop
  endfacet
  facet normal 0 0 1
    outer loop
      vertex 0 77.5 90
      vertex -40 79.5 90
      vertex -40 77.5 90
    endloop
  endfacet
  facet normal 0 0 1
    outer loop
      vertex 0 79.5 90
      vertex 2 79.5 90
      vertex 2 155 90
    endloop
  endfacet
  facet normal 0 0 1
    outer loop
      vertex 2 79.5 90
      vertex 0 79.5 90
      vertex 2 77.5 90
    endloop
  endfacet
  facet normal 0 0 1
    outer loop
      vertex 0 79.5 90
      vertex 2 155 90
      vertex 0 155 90
    endloop
  endfacet
  facet normal 0 0 1
    outer loop
      vertex 0 77.5 90
      vertex 2 77.5 90
      vertex 0 79.5 90
    endloop
  endfacet
  facet normal 0 0 1
    outer loop
      vertex 2 77.5 90
      vertex 0 77.5 90
      vertex 2 0 90
    endloop
  endfacet
  facet normal 0 0 1
    outer loop
      vertex 2 0 90
      vertex 0 77.5 90
      vertex 0 0 90
    endloop
  endfacet
  facet normal -0 0 1
    outer loop
      vertex 2 79.5 90
      vertex 160 77.5 90
      vertex 160 79.5 90
    endloop
  endfacet
  facet normal 0 0 1
    outer loop
      vertex 160 77.5 90
      vertex 2 79.5 90
      vertex 2 77.5 90
    endloop
  endfacet
  facet normal 0 0 1
    outer loop
      vertex 160 79.5 90
      vertex 162 79.5 90
      vertex 162 155 90
    endloop
  endfacet
  facet normal 0 0 1
    outer loop
      vertex 162 79.5 90
      vertex 160 79.5 90
      vertex 162 77.5 90
    endloop
  endfacet
  facet normal 0 0 1
    outer loop
      vertex 160 79.5 90
      vertex 162 155 90
      vertex 160 155 90
    endloop
  endfacet
  facet normal 0 0 1
    outer loop
      vertex 160 77.5 90
      vertex 162 77.5 90
      vertex 160 79.5 90
    endloop
  endfacet
  facet normal 0 0 1
    outer loop
      vertex 162 77.5 90
      vertex 160 77.5 90
      vertex 162 0 90
    endloop
  endfacet
  facet normal 0 0 1
    outer loop
      vertex 162 0 90
      vertex 160 77.5 90
      vertex 160 0 90
    endloop
  endfacet
  facet normal -0 0 1
    outer loop
      vertex 162 79.5 90
      vertex 180 77.5 90
      vertex 180 79.5 90
    endloop
  endfacet
  facet normal 0 0 1
    outer loop
      vertex 180 77.5 90
      vertex 162 79.5 90
      vertex 162 77.5 90
    endloop
  endfacet
  facet normal 1 -0 0
    outer loop
      vertex 2 0 90
      vertex 2 77.5 0
      vertex 2 77.5 90
    endloop
  endfacet
  facet normal 1 0 0
    outer loop
      vertex 2 77.5 0
      vertex 2 0 90
      vertex 2 0 0
    endloop
  endfacet
  facet normal 1 -0 0
    outer loop
      vertex 2 79.5 90
      vertex 2 155 0
      vertex 2 155 90
    endloop
  endfacet
  facet normal 1 0 0
    outer loop
      vertex 2 155 0
      vertex 2 79.5 90
      vertex 2 79.5 0
    endloop
  endfacet
  facet normal 0 0 -1
    outer loop
      vertex -40 77.5 0
      vertex 0 79.5 0
      vertex 0 77.5 0
    endloop
  endfacet
  facet normal -0 0 -1
    outer loop
      vertex 0 79.5 0
      vertex -40 77.5 0
      vertex -40 79.5 0
    endloop
  endfacet
  facet normal 0 0 -1
    outer loop
      vertex 0 77.5 0
      vertex 2 77.5 0
      vertex 2 0 0
    endloop
  endfacet
  facet normal 0 0 -1
    outer loop
      vertex 2 77.5 0
      vertex 0 77.5 0
      vertex 2 79.5 0
    endloop
  endfacet
  facet normal 0 0 -1
    outer loop
      vertex 0 77.5 0
      vertex 2 0 0
      vertex 0 0 0
    endloop
  endfacet
  facet normal 0 0 -1
    outer loop
      vertex 0 79.5 0
      vertex 2 79.5 0
      vertex 0 77.5 0
    endloop
  endfacet
  facet normal 0 0 -1
    outer loop
      vertex 2 79.5 0
      vertex 0 79.5 0
      vertex 2 155 0
    endloop
  endfacet
  facet normal -0 0 -1
    outer loop
      vertex 2 155 0
      vertex 0 79.5 0
      vertex 0 155 0
    endloop
  endfacet
  facet normal 0 0 -1
    outer loop
      vertex 2 77.5 0
      vertex 160 79.5 0
      vertex 160 77.5 0
    endloop
  endfacet
  facet normal -0 0 -1
    outer loop
      vertex 160 79.5 0
      vertex 2 77.5 0
      vertex 2 79.5 0
    endloop
  endfacet
  facet normal 0 0 -1
    outer loop
      vertex 160 77.5 0
      vertex 162 77.5 0
      vertex 162 0 0
    endloop
  endfacet
  facet normal 0 0 -1
    outer loop
      vertex 162 77.5 0
      vertex 160 77.5 0
      vertex 162 79.5 0
    endloop
  endfacet
  facet normal 0 0 -1
    outer loop
      vertex 160 77.5 0
      vertex 162 0 0
      vertex 160 0 0
    endloop
  endfacet
  facet normal 0 0 -1
    outer loop
      vertex 160 79.5 0
      vertex 162 79.5 0
      vertex 160 77.5 0
    endloop
  endfacet
  facet normal 0 0 -1
    outer loop
      vertex 162 79.5 0
      vertex 160 79.5 0
      vertex 162 155 0
    endloop
  endfacet
  facet normal -0 0 -1
    outer loop
      vertex 162 155 0
      vertex 160 79.5 0
      vertex 160 155 0
    endloop
  endfacet
  facet normal 0 0 -1
    outer loop
      vertex 162 77.5 0
      vertex 180 79.5 0
      vertex 180 77.5 0
    endloop
  endfacet
  facet normal -0 0 -1
    outer loop
      vertex 180 79.5 0
      vertex 162 77.5 0
      vertex 162 79.5 0
    endloop
  endfacet
  facet normal 0 -1 0
    outer loop
      vertex 0 0 0
      vertex 2 0 90
      vertex 0 0 90
    endloop
  endfacet
  facet normal 0 -1 -0
    outer loop
      vertex 2 0 90
      vertex 0 0 0
      vertex 2 0 0
    endloop
  endfacet
  facet normal 0 1 -0
    outer loop
      vertex 2 155 0
      vertex 0 155 90
      vertex 2 155 90
    endloop
  endfacet
  facet normal 0 1 0
    outer loop
      vertex 0 155 90
      vertex 2 155 0
      vertex 0 155 0
    endloop
  endfacet
  facet normal -1 0 0
    outer loop
      vertex 160 0 0
      vertex 160 77.5 90
      vertex 160 77.5 0
    endloop
  endfacet
  facet normal -1 -0 0
    outer loop
      vertex 160 77.5 90
      vertex 160 0 0
      vertex 160 0 90
    endloop
  endfacet
  facet normal -1 0 0
    outer loop
      vertex 160 79.5 0
      vertex 160 155 90
      vertex 160 155 0
    endloop
  endfacet
  facet normal -1 -0 0
    outer loop
      vertex 160 155 90
      vertex 160 79.5 0
      vertex 160 79.5 90
    endloop
  endfacet
  facet normal 1 -0 0
    outer loop
      vertex 162 0 90
      vertex 162 77.5 0
      vertex 162 77.5 90
    endloop
  endfacet
  facet normal 1 0 0
    outer loop
      vertex 162 77.5 0
      vertex 162 0 90
      vertex 162 0 0
    endloop
  endfacet
  facet normal 1 -0 0
    outer loop
      vertex 162 79.5 90
      vertex 162 155 0
      vertex 162 155 90
    endloop
  endfacet
  facet normal 1 0 0
    outer loop
      vertex 162 155 0
      vertex 162 79.5 90
      vertex 162 79.5 0
    endloop
  endfacet
  facet normal 0 1 -0
    outer loop
      vertex 162 155 0
      vertex 160 155 90
      vertex 162 155 90
    endloop
  endfacet
  facet normal 0 1 0
    outer loop
      vertex 160 155 90
      vertex 162 155 0
      vertex 160 155 0
    endloop
  endfacet
  facet normal 0 -1 0
    outer loop
      vertex 160 0 0
      vertex 162 0 90
      vertex 160 0 90
    endloop
  endfacet
  facet normal 0 -1 -0
    outer loop
      vertex 162 0 90
      vertex 160 0 0
      vertex 162 0 0
    endloop
  endfacet
  facet normal -1 0 0
    outer loop
      vertex -40 77.5 0
      vertex -40 79.5 90
      vertex -40 79.5 0
    endloop
  endfacet
  facet normal -1 -0 0
    outer loop
      vertex -40 79.5 90
      vertex -40 77.5 0
      vertex -40 77.5 90
    endloop
  endfacet
  facet normal 1 -0 0
    outer loop
      vertex 180 77.5 90
      vertex 180 79.5 0
      vertex 180 79.5 90
    endloop
  endfacet
  facet normal 1 0 0
    outer loop
      vertex 180 79.5 0
      vertex 180 77.5 90
      vertex 180 77.5 0
    endloop
  endfacet
  facet normal 0 1 -0
    outer loop
      vertex 180 79.5 0
      vertex 162 79.5 90
      vertex 180 79.5 90
    endloop
  endfacet
  facet normal 0 1 0
    outer loop
      vertex 162 79.5 90
      vertex 180 79.5 0
      vertex 162 79.5 0
    endloop
  endfacet
  facet normal 0 1 -0
    outer loop
      vertex 0 79.5 0
      vertex -40 79.5 90
      vertex 0 79.5 90
    endloop
  endfacet
  facet normal 0 1 0
    outer loop
      vertex -40 79.5 90
      vertex 0 79.5 0
      vertex -40 79.5 0
    endloop
  endfacet
  facet normal 0 1 -0
    outer loop
      vertex 160 79.5 0
      vertex 2 79.5 90
      vertex 160 79.5 90
    endloop
  endfacet
  facet normal 0 1 0
    outer loop
      vertex 2 79.5 90
      vertex 160 79.5 0
      vertex 2 79.5 0
    endloop
  endfacet
  facet normal 0 -1 0
    outer loop
      vertex 162 77.5 0
      vertex 180 77.5 90
      vertex 162 77.5 90
    endloop
  endfacet
  facet normal 0 -1 -0
    outer loop
      vertex 180 77.5 90
      vertex 162 77.5 0
      vertex 180 77.5 0
    endloop
  endfacet
  facet normal 0 -1 0
    outer loop
      vertex -40 77.5 0
      vertex 0 77.5 90
      vertex -40 77.5 90
    endloop
  endfacet
  facet normal 0 -1 -0
    outer loop
      vertex 0 77.5 90
      vertex -40 77.5 0
      vertex 0 77.5 0
    endloop
  endfacet
  facet normal 0 -1 0
    outer loop
      vertex 2 77.5 0
      vertex 160 77.5 90
      vertex 2 77.5 90
    endloop
  endfacet
  facet normal 0 -1 -0
    outer loop
      vertex 160 77.5 90
      vertex 2 77.5 0
      vertex 160 77.5 0
    endloop
  endfacet
endsolid OpenSCAD_Model
