solid OpenSCAD_Model
  facet normal 1 -0 0
    outer loop
      vertex 26.5 2 2
      vertex 26.5 45 0
      vertex 26.5 45 2
    endloop
  endfacet
  facet normal 1 0 0
    outer loop
      vertex 26.5 45 0
      vertex 26.5 2 2
      vertex 26.5 2 0
    endloop
  endfacet
  facet normal -1 0 0
    outer loop
      vertex 28.5 2 0
      vertex 28.5 45 2
      vertex 28.5 45 0
    endloop
  endfacet
  facet normal -1 -0 0
    outer loop
      vertex 28.5 45 2
      vertex 28.5 2 0
      vertex 28.5 2 2
    endloop
  endfacet
  facet normal 0 -1 0
    outer loop
      vertex 26.5 45 0
      vertex 28.5 45 2
      vertex 26.5 45 2
    endloop
  endfacet
  facet normal 0 -1 -0
    outer loop
      vertex 28.5 45 2
      vertex 26.5 45 0
      vertex 28.5 45 0
    endloop
  endfacet
  facet normal 1 -0 0
    outer loop
      vertex 23.5 88 2
      vertex 23.5 90 0
      vertex 23.5 90 2
    endloop
  endfacet
  facet normal 1 0 0
    outer loop
      vertex 23.5 90 0
      vertex 23.5 88 2
      vertex 23.5 88 0
    endloop
  endfacet
  facet normal -1 0 0
    outer loop
      vertex 31.5 88 0
      vertex 31.5 90 2
      vertex 31.5 90 0
    endloop
  endfacet
  facet normal -1 -0 0
    outer loop
      vertex 31.5 90 2
      vertex 31.5 88 0
      vertex 31.5 88 2
    endloop
  endfacet
  facet normal 0 1 -0
    outer loop
      vertex 31.5 88 0
      vertex 23.5 88 2
      vertex 31.5 88 2
    endloop
  endfacet
  facet normal 0 1 0
    outer loop
      vertex 23.5 88 2
      vertex 31.5 88 0
      vertex 23.5 88 0
    endloop
  endfacet
  facet normal 1 -0 0
    outer loop
      vertex 23.5 0 2
      vertex 23.5 2 0
      vertex 23.5 2 2
    endloop
  endfacet
  facet normal 1 0 0
    outer loop
      vertex 23.5 2 0
      vertex 23.5 0 2
      vertex 23.5 0 0
    endloop
  endfacet
  facet normal -1 0 0
    outer loop
      vertex 31.5 0 0
      vertex 31.5 2 2
      vertex 31.5 2 0
    endloop
  endfacet
  facet normal -1 -0 0
    outer loop
      vertex 31.5 2 2
      vertex 31.5 0 0
      vertex 31.5 0 2
    endloop
  endfacet
  facet normal 0 -1 0
    outer loop
      vertex 23.5 2 0
      vertex 26.5 2 2
      vertex 23.5 2 2
    endloop
  endfacet
  facet normal 0 -1 -0
    outer loop
      vertex 26.5 2 2
      vertex 23.5 2 0
      vertex 26.5 2 0
    endloop
  endfacet
  facet normal 0 -1 0
    outer loop
      vertex 28.5 2 0
      vertex 31.5 2 2
      vertex 28.5 2 2
    endloop
  endfacet
  facet normal 0 -1 -0
    outer loop
      vertex 31.5 2 2
      vertex 28.5 2 0
      vertex 31.5 2 0
    endloop
  endfacet
  facet normal 1 -0 0
    outer loop
      vertex 54 2 2
      vertex 54 45 0
      vertex 54 45 2
    endloop
  endfacet
  facet normal 1 0 0
    outer loop
      vertex 54 45 0
      vertex 54 2 2
      vertex 54 2 0
    endloop
  endfacet
  facet normal -1 0 0
    outer loop
      vertex 56 2 0
      vertex 56 45 2
      vertex 56 45 0
    endloop
  endfacet
  facet normal -1 -0 0
    outer loop
      vertex 56 45 2
      vertex 56 2 0
      vertex 56 2 2
    endloop
  endfacet
  facet normal 0 -1 0
    outer loop
      vertex 54 45 0
      vertex 56 45 2
      vertex 54 45 2
    endloop
  endfacet
  facet normal 0 -1 -0
    outer loop
      vertex 56 45 2
      vertex 54 45 0
      vertex 56 45 0
    endloop
  endfacet
  facet normal 1 -0 0
    outer loop
      vertex 51 88 2
      vertex 51 90 0
      vertex 51 90 2
    endloop
  endfacet
  facet normal 1 0 0
    outer loop
      vertex 51 90 0
      vertex 51 88 2
      vertex 51 88 0
    endloop
  endfacet
  facet normal -1 0 0
    outer loop
      vertex 59 88 0
      vertex 59 90 2
      vertex 59 90 0
    endloop
  endfacet
  facet normal -1 -0 0
    outer loop
      vertex 59 90 2
      vertex 59 88 0
      vertex 59 88 2
    endloop
  endfacet
  facet normal 0 1 -0
    outer loop
      vertex 59 88 0
      vertex 51 88 2
      vertex 59 88 2
    endloop
  endfacet
  facet normal 0 1 0
    outer loop
      vertex 51 88 2
      vertex 59 88 0
      vertex 51 88 0
    endloop
  endfacet
  facet normal 1 -0 0
    outer loop
      vertex 51 0 2
      vertex 51 2 0
      vertex 51 2 2
    endloop
  endfacet
  facet normal 1 0 0
    outer loop
      vertex 51 2 0
      vertex 51 0 2
      vertex 51 0 0
    endloop
  endfacet
  facet normal -1 0 0
    outer loop
      vertex 59 0 0
      vertex 59 2 2
      vertex 59 2 0
    endloop
  endfacet
  facet normal -1 -0 0
    outer loop
      vertex 59 2 2
      vertex 59 0 0
      vertex 59 0 2
    endloop
  endfacet
  facet normal 0 -1 0
    outer loop
      vertex 51 2 0
      vertex 54 2 2
      vertex 51 2 2
    endloop
  endfacet
  facet normal 0 -1 -0
    outer loop
      vertex 54 2 2
      vertex 51 2 0
      vertex 54 2 0
    endloop
  endfacet
  facet normal 0 -1 0
    outer loop
      vertex 56 2 0
      vertex 59 2 2
      vertex 56 2 2
    endloop
  endfacet
  facet normal 0 -1 -0
    outer loop
      vertex 59 2 2
      vertex 56 2 0
      vertex 59 2 0
    endloop
  endfacet
  facet normal 1 -0 0
    outer loop
      vertex 81.5 2 2
      vertex 81.5 45 0
      vertex 81.5 45 2
    endloop
  endfacet
  facet normal 1 0 0
    outer loop
      vertex 81.5 45 0
      vertex 81.5 2 2
      vertex 81.5 2 0
    endloop
  endfacet
  facet normal -1 0 0
    outer loop
      vertex 83.5 2 0
      vertex 83.5 45 2
      vertex 83.5 45 0
    endloop
  endfacet
  facet normal -1 -0 0
    outer loop
      vertex 83.5 45 2
      vertex 83.5 2 0
      vertex 83.5 2 2
    endloop
  endfacet
  facet normal 0 -1 0
    outer loop
      vertex 81.5 45 0
      vertex 83.5 45 2
      vertex 81.5 45 2
    endloop
  endfacet
  facet normal 0 -1 -0
    outer loop
      vertex 83.5 45 2
      vertex 81.5 45 0
      vertex 83.5 45 0
    endloop
  endfacet
  facet normal 1 -0 0
    outer loop
      vertex 78.5 88 2
      vertex 78.5 90 0
      vertex 78.5 90 2
    endloop
  endfacet
  facet normal 1 0 0
    outer loop
      vertex 78.5 90 0
      vertex 78.5 88 2
      vertex 78.5 88 0
    endloop
  endfacet
  facet normal -1 0 0
    outer loop
      vertex 86.5 88 0
      vertex 86.5 90 2
      vertex 86.5 90 0
    endloop
  endfacet
  facet normal -1 -0 0
    outer loop
      vertex 86.5 90 2
      vertex 86.5 88 0
      vertex 86.5 88 2
    endloop
  endfacet
  facet normal 0 1 -0
    outer loop
      vertex 86.5 88 0
      vertex 78.5 88 2
      vertex 86.5 88 2
    endloop
  endfacet
  facet normal 0 1 0
    outer loop
      vertex 78.5 88 2
      vertex 86.5 88 0
      vertex 78.5 88 0
    endloop
  endfacet
  facet normal 1 -0 0
    outer loop
      vertex 78.5 0 2
      vertex 78.5 2 0
      vertex 78.5 2 2
    endloop
  endfacet
  facet normal 1 0 0
    outer loop
      vertex 78.5 2 0
      vertex 78.5 0 2
      vertex 78.5 0 0
    endloop
  endfacet
  facet normal -1 0 0
    outer loop
      vertex 86.5 0 0
      vertex 86.5 2 2
      vertex 86.5 2 0
    endloop
  endfacet
  facet normal -1 -0 0
    outer loop
      vertex 86.5 2 2
      vertex 86.5 0 0
      vertex 86.5 0 2
    endloop
  endfacet
  facet normal 0 -1 0
    outer loop
      vertex 78.5 2 0
      vertex 81.5 2 2
      vertex 78.5 2 2
    endloop
  endfacet
  facet normal 0 -1 -0
    outer loop
      vertex 81.5 2 2
      vertex 78.5 2 0
      vertex 81.5 2 0
    endloop
  endfacet
  facet normal 0 -1 0
    outer loop
      vertex 83.5 2 0
      vertex 86.5 2 2
      vertex 83.5 2 2
    endloop
  endfacet
  facet normal 0 -1 -0
    outer loop
      vertex 86.5 2 2
      vertex 83.5 2 0
      vertex 86.5 2 0
    endloop
  endfacet
  facet normal 1 -0 0
    outer loop
      vertex 109 2 2
      vertex 109 45 0
      vertex 109 45 2
    endloop
  endfacet
  facet normal 1 0 0
    outer loop
      vertex 109 45 0
      vertex 109 2 2
      vertex 109 2 0
    endloop
  endfacet
  facet normal -1 0 0
    outer loop
      vertex 111 2 0
      vertex 111 45 2
      vertex 111 45 0
    endloop
  endfacet
  facet normal -1 -0 0
    outer loop
      vertex 111 45 2
      vertex 111 2 0
      vertex 111 2 2
    endloop
  endfacet
  facet normal 0 -1 0
    outer loop
      vertex 109 45 0
      vertex 111 45 2
      vertex 109 45 2
    endloop
  endfacet
  facet normal 0 -1 -0
    outer loop
      vertex 111 45 2
      vertex 109 45 0
      vertex 111 45 0
    endloop
  endfacet
  facet normal 1 -0 0
    outer loop
      vertex 106 88 2
      vertex 106 90 0
      vertex 106 90 2
    endloop
  endfacet
  facet normal 1 0 0
    outer loop
      vertex 106 90 0
      vertex 106 88 2
      vertex 106 88 0
    endloop
  endfacet
  facet normal -1 0 0
    outer loop
      vertex 114 88 0
      vertex 114 90 2
      vertex 114 90 0
    endloop
  endfacet
  facet normal -1 -0 0
    outer loop
      vertex 114 90 2
      vertex 114 88 0
      vertex 114 88 2
    endloop
  endfacet
  facet normal 0 1 -0
    outer loop
      vertex 114 88 0
      vertex 106 88 2
      vertex 114 88 2
    endloop
  endfacet
  facet normal 0 1 0
    outer loop
      vertex 106 88 2
      vertex 114 88 0
      vertex 106 88 0
    endloop
  endfacet
  facet normal 1 -0 0
    outer loop
      vertex 106 0 2
      vertex 106 2 0
      vertex 106 2 2
    endloop
  endfacet
  facet normal 1 0 0
    outer loop
      vertex 106 2 0
      vertex 106 0 2
      vertex 106 0 0
    endloop
  endfacet
  facet normal -1 0 0
    outer loop
      vertex 114 0 0
      vertex 114 2 2
      vertex 114 2 0
    endloop
  endfacet
  facet normal -1 -0 0
    outer loop
      vertex 114 2 2
      vertex 114 0 0
      vertex 114 0 2
    endloop
  endfacet
  facet normal 0 -1 0
    outer loop
      vertex 106 2 0
      vertex 109 2 2
      vertex 106 2 2
    endloop
  endfacet
  facet normal 0 -1 -0
    outer loop
      vertex 109 2 2
      vertex 106 2 0
      vertex 109 2 0
    endloop
  endfacet
  facet normal 0 -1 0
    outer loop
      vertex 111 2 0
      vertex 114 2 2
      vertex 111 2 2
    endloop
  endfacet
  facet normal 0 -1 -0
    outer loop
      vertex 114 2 2
      vertex 111 2 0
      vertex 114 2 0
    endloop
  endfacet
  facet normal 1 -0 0
    outer loop
      vertex 136.5 2 2
      vertex 136.5 45 0
      vertex 136.5 45 2
    endloop
  endfacet
  facet normal 1 0 0
    outer loop
      vertex 136.5 45 0
      vertex 136.5 2 2
      vertex 136.5 2 0
    endloop
  endfacet
  facet normal -1 0 0
    outer loop
      vertex 138.5 2 0
      vertex 138.5 45 2
      vertex 138.5 45 0
    endloop
  endfacet
  facet normal -1 -0 0
    outer loop
      vertex 138.5 45 2
      vertex 138.5 2 0
      vertex 138.5 2 2
    endloop
  endfacet
  facet normal 0 -1 0
    outer loop
      vertex 136.5 45 0
      vertex 138.5 45 2
      vertex 136.5 45 2
    endloop
  endfacet
  facet normal 0 -1 -0
    outer loop
      vertex 138.5 45 2
      vertex 136.5 45 0
      vertex 138.5 45 0
    endloop
  endfacet
  facet normal 1 -0 0
    outer loop
      vertex 133.5 88 2
      vertex 133.5 90 0
      vertex 133.5 90 2
    endloop
  endfacet
  facet normal 1 0 0
    outer loop
      vertex 133.5 90 0
      vertex 133.5 88 2
      vertex 133.5 88 0
    endloop
  endfacet
  facet normal -1 0 0
    outer loop
      vertex 141.5 88 0
      vertex 141.5 90 2
      vertex 141.5 90 0
    endloop
  endfacet
  facet normal -1 -0 0
    outer loop
      vertex 141.5 90 2
      vertex 141.5 88 0
      vertex 141.5 88 2
    endloop
  endfacet
  facet normal 0 1 -0
    outer loop
      vertex 141.5 88 0
      vertex 133.5 88 2
      vertex 141.5 88 2
    endloop
  endfacet
  facet normal 0 1 0
    outer loop
      vertex 133.5 88 2
      vertex 141.5 88 0
      vertex 133.5 88 0
    endloop
  endfacet
  facet normal 1 -0 0
    outer loop
      vertex 133.5 0 2
      vertex 133.5 2 0
      vertex 133.5 2 2
    endloop
  endfacet
  facet normal 1 0 0
    outer loop
      vertex 133.5 2 0
      vertex 133.5 0 2
      vertex 133.5 0 0
    endloop
  endfacet
  facet normal -1 0 0
    outer loop
      vertex 141.5 0 0
      vertex 141.5 2 2
      vertex 141.5 2 0
    endloop
  endfacet
  facet normal -1 -0 0
    outer loop
      vertex 141.5 2 2
      vertex 141.5 0 0
      vertex 141.5 0 2
    endloop
  endfacet
  facet normal 0 -1 0
    outer loop
      vertex 133.5 2 0
      vertex 136.5 2 2
      vertex 133.5 2 2
    endloop
  endfacet
  facet normal 0 -1 -0
    outer loop
      vertex 136.5 2 2
      vertex 133.5 2 0
      vertex 136.5 2 0
    endloop
  endfacet
  facet normal 0 -1 0
    outer loop
      vertex 138.5 2 0
      vertex 141.5 2 2
      vertex 138.5 2 2
    endloop
  endfacet
  facet normal 0 -1 -0
    outer loop
      vertex 141.5 2 2
      vertex 138.5 2 0
      vertex 141.5 2 0
    endloop
  endfacet
  facet normal 1 -0 0
    outer loop
      vertex 164 2 2
      vertex 164 45 0
      vertex 164 45 2
    endloop
  endfacet
  facet normal 1 0 0
    outer loop
      vertex 164 45 0
      vertex 164 2 2
      vertex 164 2 0
    endloop
  endfacet
  facet normal -1 0 0
    outer loop
      vertex 166 2 0
      vertex 166 45 2
      vertex 166 45 0
    endloop
  endfacet
  facet normal -1 -0 0
    outer loop
      vertex 166 45 2
      vertex 166 2 0
      vertex 166 2 2
    endloop
  endfacet
  facet normal 0 -1 0
    outer loop
      vertex 164 45 0
      vertex 166 45 2
      vertex 164 45 2
    endloop
  endfacet
  facet normal 0 -1 -0
    outer loop
      vertex 166 45 2
      vertex 164 45 0
      vertex 166 45 0
    endloop
  endfacet
  facet normal 1 -0 0
    outer loop
      vertex 161 88 2
      vertex 161 90 0
      vertex 161 90 2
    endloop
  endfacet
  facet normal 1 0 0
    outer loop
      vertex 161 90 0
      vertex 161 88 2
      vertex 161 88 0
    endloop
  endfacet
  facet normal -1 0 0
    outer loop
      vertex 169 88 0
      vertex 169 90 2
      vertex 169 90 0
    endloop
  endfacet
  facet normal -1 -0 0
    outer loop
      vertex 169 90 2
      vertex 169 88 0
      vertex 169 88 2
    endloop
  endfacet
  facet normal 0 1 -0
    outer loop
      vertex 169 88 0
      vertex 161 88 2
      vertex 169 88 2
    endloop
  endfacet
  facet normal 0 1 0
    outer loop
      vertex 161 88 2
      vertex 169 88 0
      vertex 161 88 0
    endloop
  endfacet
  facet normal 1 -0 0
    outer loop
      vertex 161 0 2
      vertex 161 2 0
      vertex 161 2 2
    endloop
  endfacet
  facet normal 1 0 0
    outer loop
      vertex 161 2 0
      vertex 161 0 2
      vertex 161 0 0
    endloop
  endfacet
  facet normal -1 0 0
    outer loop
      vertex 169 0 0
      vertex 169 2 2
      vertex 169 2 0
    endloop
  endfacet
  facet normal -1 -0 0
    outer loop
      vertex 169 2 2
      vertex 169 0 0
      vertex 169 0 2
    endloop
  endfacet
  facet normal 0 -1 0
    outer loop
      vertex 161 2 0
      vertex 164 2 2
      vertex 161 2 2
    endloop
  endfacet
  facet normal 0 -1 -0
    outer loop
      vertex 164 2 2
      vertex 161 2 0
      vertex 164 2 0
    endloop
  endfacet
  facet normal 0 -1 0
    outer loop
      vertex 166 2 0
      vertex 169 2 2
      vertex 166 2 2
    endloop
  endfacet
  facet normal 0 -1 -0
    outer loop
      vertex 169 2 2
      vertex 166 2 0
      vertex 169 2 0
    endloop
  endfacet
  facet normal 1 -0 0
    outer loop
      vertex 191.5 2 2
      vertex 191.5 45 0
      vertex 191.5 45 2
    endloop
  endfacet
  facet normal 1 0 0
    outer loop
      vertex 191.5 45 0
      vertex 191.5 2 2
      vertex 191.5 2 0
    endloop
  endfacet
  facet normal -1 0 0
    outer loop
      vertex 193.5 2 0
      vertex 193.5 45 2
      vertex 193.5 45 0
    endloop
  endfacet
  facet normal -1 -0 0
    outer loop
      vertex 193.5 45 2
      vertex 193.5 2 0
      vertex 193.5 2 2
    endloop
  endfacet
  facet normal 0 -1 0
    outer loop
      vertex 191.5 45 0
      vertex 193.5 45 2
      vertex 191.5 45 2
    endloop
  endfacet
  facet normal 0 -1 -0
    outer loop
      vertex 193.5 45 2
      vertex 191.5 45 0
      vertex 193.5 45 0
    endloop
  endfacet
  facet normal 1 -0 0
    outer loop
      vertex 188.5 88 2
      vertex 188.5 90 0
      vertex 188.5 90 2
    endloop
  endfacet
  facet normal 1 0 0
    outer loop
      vertex 188.5 90 0
      vertex 188.5 88 2
      vertex 188.5 88 0
    endloop
  endfacet
  facet normal -1 0 0
    outer loop
      vertex 196.5 88 0
      vertex 196.5 90 2
      vertex 196.5 90 0
    endloop
  endfacet
  facet normal -1 -0 0
    outer loop
      vertex 196.5 90 2
      vertex 196.5 88 0
      vertex 196.5 88 2
    endloop
  endfacet
  facet normal 0 1 -0
    outer loop
      vertex 196.5 88 0
      vertex 188.5 88 2
      vertex 196.5 88 2
    endloop
  endfacet
  facet normal 0 1 0
    outer loop
      vertex 188.5 88 2
      vertex 196.5 88 0
      vertex 188.5 88 0
    endloop
  endfacet
  facet normal 1 -0 0
    outer loop
      vertex 188.5 0 2
      vertex 188.5 2 0
      vertex 188.5 2 2
    endloop
  endfacet
  facet normal 1 0 0
    outer loop
      vertex 188.5 2 0
      vertex 188.5 0 2
      vertex 188.5 0 0
    endloop
  endfacet
  facet normal -1 0 0
    outer loop
      vertex 196.5 0 0
      vertex 196.5 2 2
      vertex 196.5 2 0
    endloop
  endfacet
  facet normal -1 -0 0
    outer loop
      vertex 196.5 2 2
      vertex 196.5 0 0
      vertex 196.5 0 2
    endloop
  endfacet
  facet normal 0 -1 0
    outer loop
      vertex 188.5 2 0
      vertex 191.5 2 2
      vertex 188.5 2 2
    endloop
  endfacet
  facet normal 0 -1 -0
    outer loop
      vertex 191.5 2 2
      vertex 188.5 2 0
      vertex 191.5 2 0
    endloop
  endfacet
  facet normal 0 -1 0
    outer loop
      vertex 193.5 2 0
      vertex 196.5 2 2
      vertex 193.5 2 2
    endloop
  endfacet
  facet normal 0 -1 -0
    outer loop
      vertex 196.5 2 2
      vertex 193.5 2 0
      vertex 196.5 2 0
    endloop
  endfacet
  facet normal -1 0 0
    outer loop
      vertex 0 0 0
      vertex 0 90 2
      vertex 0 90 0
    endloop
  endfacet
  facet normal -1 -0 0
    outer loop
      vertex 0 90 2
      vertex 0 0 0
      vertex 0 0 2
    endloop
  endfacet
  facet normal -0 0 1
    outer loop
      vertex 0 90 2
      vertex 23.5 88 2
      vertex 23.5 90 2
    endloop
  endfacet
  facet normal 0 0 1
    outer loop
      vertex 23.5 88 2
      vertex 0 90 2
      vertex 23.5 2 2
    endloop
  endfacet
  facet normal 0 0 1
    outer loop
      vertex 0 0 2
      vertex 23.5 2 2
      vertex 0 90 2
    endloop
  endfacet
  facet normal 0 0 1
    outer loop
      vertex 23.5 2 2
      vertex 0 0 2
      vertex 23.5 0 2
    endloop
  endfacet
  facet normal 0 0 1
    outer loop
      vertex 51 2 2
      vertex 28.5 45 2
      vertex 31.5 2 2
    endloop
  endfacet
  facet normal 0 0 1
    outer loop
      vertex 31.5 88 2
      vertex 26.5 45 2
      vertex 28.5 45 2
    endloop
  endfacet
  facet normal -0 0 1
    outer loop
      vertex 23.5 88 2
      vertex 26.5 45 2
      vertex 31.5 88 2
    endloop
  endfacet
  facet normal 0 0 1
    outer loop
      vertex 23.5 2 2
      vertex 26.5 45 2
      vertex 23.5 88 2
    endloop
  endfacet
  facet normal 0 0 1
    outer loop
      vertex 26.5 45 2
      vertex 23.5 2 2
      vertex 26.5 2 2
    endloop
  endfacet
  facet normal 0 0 1
    outer loop
      vertex 31.5 88 2
      vertex 51 88 2
      vertex 51 90 2
    endloop
  endfacet
  facet normal 0 0 1
    outer loop
      vertex 28.5 45 2
      vertex 51 88 2
      vertex 31.5 88 2
    endloop
  endfacet
  facet normal 0 0 1
    outer loop
      vertex 31.5 88 2
      vertex 51 90 2
      vertex 31.5 90 2
    endloop
  endfacet
  facet normal 0 0 1
    outer loop
      vertex 54 45 2
      vertex 28.5 45 2
      vertex 51 2 2
    endloop
  endfacet
  facet normal 0 0 1
    outer loop
      vertex 51 2 2
      vertex 31.5 2 2
      vertex 51 0 2
    endloop
  endfacet
  facet normal 0 0 1
    outer loop
      vertex 51 0 2
      vertex 31.5 2 2
      vertex 31.5 0 2
    endloop
  endfacet
  facet normal 0 0 1
    outer loop
      vertex 78.5 2 2
      vertex 56 45 2
      vertex 59 2 2
    endloop
  endfacet
  facet normal 0 0 1
    outer loop
      vertex 59 88 2
      vertex 54 45 2
      vertex 56 45 2
    endloop
  endfacet
  facet normal -0 0 1
    outer loop
      vertex 51 88 2
      vertex 54 45 2
      vertex 59 88 2
    endloop
  endfacet
  facet normal 0 0 1
    outer loop
      vertex 28.5 45 2
      vertex 54 45 2
      vertex 51 88 2
    endloop
  endfacet
  facet normal 0 0 1
    outer loop
      vertex 54 45 2
      vertex 51 2 2
      vertex 54 2 2
    endloop
  endfacet
  facet normal 0 0 1
    outer loop
      vertex 59 88 2
      vertex 78.5 88 2
      vertex 78.5 90 2
    endloop
  endfacet
  facet normal 0 0 1
    outer loop
      vertex 56 45 2
      vertex 78.5 88 2
      vertex 59 88 2
    endloop
  endfacet
  facet normal 0 0 1
    outer loop
      vertex 59 88 2
      vertex 78.5 90 2
      vertex 59 90 2
    endloop
  endfacet
  facet normal 0 0 1
    outer loop
      vertex 81.5 45 2
      vertex 56 45 2
      vertex 78.5 2 2
    endloop
  endfacet
  facet normal 0 0 1
    outer loop
      vertex 78.5 2 2
      vertex 59 2 2
      vertex 78.5 0 2
    endloop
  endfacet
  facet normal 0 0 1
    outer loop
      vertex 78.5 0 2
      vertex 59 2 2
      vertex 59 0 2
    endloop
  endfacet
  facet normal 0 0 1
    outer loop
      vertex 106 2 2
      vertex 83.5 45 2
      vertex 86.5 2 2
    endloop
  endfacet
  facet normal 0 0 1
    outer loop
      vertex 86.5 88 2
      vertex 81.5 45 2
      vertex 83.5 45 2
    endloop
  endfacet
  facet normal -0 0 1
    outer loop
      vertex 78.5 88 2
      vertex 81.5 45 2
      vertex 86.5 88 2
    endloop
  endfacet
  facet normal 0 0 1
    outer loop
      vertex 56 45 2
      vertex 81.5 45 2
      vertex 78.5 88 2
    endloop
  endfacet
  facet normal 0 0 1
    outer loop
      vertex 81.5 45 2
      vertex 78.5 2 2
      vertex 81.5 2 2
    endloop
  endfacet
  facet normal 0 0 1
    outer loop
      vertex 86.5 88 2
      vertex 106 88 2
      vertex 106 90 2
    endloop
  endfacet
  facet normal 0 0 1
    outer loop
      vertex 83.5 45 2
      vertex 106 88 2
      vertex 86.5 88 2
    endloop
  endfacet
  facet normal 0 0 1
    outer loop
      vertex 86.5 88 2
      vertex 106 90 2
      vertex 86.5 90 2
    endloop
  endfacet
  facet normal 0 0 1
    outer loop
      vertex 109 45 2
      vertex 83.5 45 2
      vertex 106 2 2
    endloop
  endfacet
  facet normal 0 0 1
    outer loop
      vertex 106 2 2
      vertex 86.5 2 2
      vertex 106 0 2
    endloop
  endfacet
  facet normal 0 0 1
    outer loop
      vertex 106 0 2
      vertex 86.5 2 2
      vertex 86.5 0 2
    endloop
  endfacet
  facet normal 0 0 1
    outer loop
      vertex 133.5 2 2
      vertex 111 45 2
      vertex 114 2 2
    endloop
  endfacet
  facet normal 0 0 1
    outer loop
      vertex 114 88 2
      vertex 109 45 2
      vertex 111 45 2
    endloop
  endfacet
  facet normal -0 0 1
    outer loop
      vertex 106 88 2
      vertex 109 45 2
      vertex 114 88 2
    endloop
  endfacet
  facet normal 0 0 1
    outer loop
      vertex 83.5 45 2
      vertex 109 45 2
      vertex 106 88 2
    endloop
  endfacet
  facet normal 0 0 1
    outer loop
      vertex 109 45 2
      vertex 106 2 2
      vertex 109 2 2
    endloop
  endfacet
  facet normal 0 0 1
    outer loop
      vertex 114 88 2
      vertex 133.5 88 2
      vertex 133.5 90 2
    endloop
  endfacet
  facet normal 0 0 1
    outer loop
      vertex 111 45 2
      vertex 133.5 88 2
      vertex 114 88 2
    endloop
  endfacet
  facet normal 0 0 1
    outer loop
      vertex 114 88 2
      vertex 133.5 90 2
      vertex 114 90 2
    endloop
  endfacet
  facet normal 0 0 1
    outer loop
      vertex 136.5 45 2
      vertex 111 45 2
      vertex 133.5 2 2
    endloop
  endfacet
  facet normal 0 0 1
    outer loop
      vertex 133.5 2 2
      vertex 114 2 2
      vertex 133.5 0 2
    endloop
  endfacet
  facet normal 0 0 1
    outer loop
      vertex 133.5 0 2
      vertex 114 2 2
      vertex 114 0 2
    endloop
  endfacet
  facet normal 0 0 1
    outer loop
      vertex 161 2 2
      vertex 138.5 45 2
      vertex 141.5 2 2
    endloop
  endfacet
  facet normal 0 0 1
    outer loop
      vertex 141.5 88 2
      vertex 136.5 45 2
      vertex 138.5 45 2
    endloop
  endfacet
  facet normal -0 0 1
    outer loop
      vertex 133.5 88 2
      vertex 136.5 45 2
      vertex 141.5 88 2
    endloop
  endfacet
  facet normal 0 0 1
    outer loop
      vertex 111 45 2
      vertex 136.5 45 2
      vertex 133.5 88 2
    endloop
  endfacet
  facet normal 0 0 1
    outer loop
      vertex 136.5 45 2
      vertex 133.5 2 2
      vertex 136.5 2 2
    endloop
  endfacet
  facet normal 0 0 1
    outer loop
      vertex 141.5 88 2
      vertex 161 88 2
      vertex 161 90 2
    endloop
  endfacet
  facet normal 0 0 1
    outer loop
      vertex 138.5 45 2
      vertex 161 88 2
      vertex 141.5 88 2
    endloop
  endfacet
  facet normal 0 0 1
    outer loop
      vertex 141.5 88 2
      vertex 161 90 2
      vertex 141.5 90 2
    endloop
  endfacet
  facet normal 0 0 1
    outer loop
      vertex 164 45 2
      vertex 138.5 45 2
      vertex 161 2 2
    endloop
  endfacet
  facet normal 0 0 1
    outer loop
      vertex 161 2 2
      vertex 141.5 2 2
      vertex 161 0 2
    endloop
  endfacet
  facet normal 0 0 1
    outer loop
      vertex 161 0 2
      vertex 141.5 2 2
      vertex 141.5 0 2
    endloop
  endfacet
  facet normal 0 0 1
    outer loop
      vertex 188.5 2 2
      vertex 166 45 2
      vertex 169 2 2
    endloop
  endfacet
  facet normal 0 0 1
    outer loop
      vertex 169 88 2
      vertex 164 45 2
      vertex 166 45 2
    endloop
  endfacet
  facet normal -0 0 1
    outer loop
      vertex 161 88 2
      vertex 164 45 2
      vertex 169 88 2
    endloop
  endfacet
  facet normal 0 0 1
    outer loop
      vertex 138.5 45 2
      vertex 164 45 2
      vertex 161 88 2
    endloop
  endfacet
  facet normal 0 0 1
    outer loop
      vertex 164 45 2
      vertex 161 2 2
      vertex 164 2 2
    endloop
  endfacet
  facet normal 0 0 1
    outer loop
      vertex 169 88 2
      vertex 188.5 88 2
      vertex 188.5 90 2
    endloop
  endfacet
  facet normal 0 0 1
    outer loop
      vertex 166 45 2
      vertex 188.5 88 2
      vertex 169 88 2
    endloop
  endfacet
  facet normal 0 0 1
    outer loop
      vertex 169 88 2
      vertex 188.5 90 2
      vertex 169 90 2
    endloop
  endfacet
  facet normal 0 0 1
    outer loop
      vertex 191.5 45 2
      vertex 166 45 2
      vertex 188.5 2 2
    endloop
  endfacet
  facet normal 0 0 1
    outer loop
      vertex 188.5 2 2
      vertex 169 2 2
      vertex 188.5 0 2
    endloop
  endfacet
  facet normal 0 0 1
    outer loop
      vertex 188.5 0 2
      vertex 169 2 2
      vertex 169 0 2
    endloop
  endfacet
  facet normal 0 0 1
    outer loop
      vertex 220 0 2
      vertex 193.5 45 2
      vertex 196.5 2 2
    endloop
  endfacet
  facet normal 0 0 1
    outer loop
      vertex 196.5 88 2
      vertex 191.5 45 2
      vertex 193.5 45 2
    endloop
  endfacet
  facet normal -0 0 1
    outer loop
      vertex 188.5 88 2
      vertex 191.5 45 2
      vertex 196.5 88 2
    endloop
  endfacet
  facet normal 0 0 1
    outer loop
      vertex 166 45 2
      vertex 191.5 45 2
      vertex 188.5 88 2
    endloop
  endfacet
  facet normal 0 0 1
    outer loop
      vertex 191.5 45 2
      vertex 188.5 2 2
      vertex 191.5 2 2
    endloop
  endfacet
  facet normal 0 0 1
    outer loop
      vertex 196.5 88 2
      vertex 220 90 2
      vertex 196.5 90 2
    endloop
  endfacet
  facet normal 0 0 1
    outer loop
      vertex 193.5 45 2
      vertex 220 90 2
      vertex 196.5 88 2
    endloop
  endfacet
  facet normal 0 0 1
    outer loop
      vertex 220 90 2
      vertex 193.5 45 2
      vertex 220 0 2
    endloop
  endfacet
  facet normal 0 0 1
    outer loop
      vertex 220 0 2
      vertex 196.5 2 2
      vertex 196.5 0 2
    endloop
  endfacet
  facet normal 0 0 1
    outer loop
      vertex 196.5 2 2
      vertex 193.5 45 2
      vertex 193.5 2 2
    endloop
  endfacet
  facet normal 0 0 1
    outer loop
      vertex 169 2 2
      vertex 166 45 2
      vertex 166 2 2
    endloop
  endfacet
  facet normal 0 0 1
    outer loop
      vertex 141.5 2 2
      vertex 138.5 45 2
      vertex 138.5 2 2
    endloop
  endfacet
  facet normal 0 0 1
    outer loop
      vertex 114 2 2
      vertex 111 45 2
      vertex 111 2 2
    endloop
  endfacet
  facet normal 0 0 1
    outer loop
      vertex 86.5 2 2
      vertex 83.5 45 2
      vertex 83.5 2 2
    endloop
  endfacet
  facet normal 0 0 1
    outer loop
      vertex 59 2 2
      vertex 56 45 2
      vertex 56 2 2
    endloop
  endfacet
  facet normal 0 0 1
    outer loop
      vertex 31.5 2 2
      vertex 28.5 45 2
      vertex 28.5 2 2
    endloop
  endfacet
  facet normal 1 -0 0
    outer loop
      vertex 220 0 2
      vertex 220 90 0
      vertex 220 90 2
    endloop
  endfacet
  facet normal 1 0 0
    outer loop
      vertex 220 90 0
      vertex 220 0 2
      vertex 220 0 0
    endloop
  endfacet
  facet normal 0 0 -1
    outer loop
      vertex 26.5 2 0
      vertex 23.5 2 0
      vertex 26.5 45 0
    endloop
  endfacet
  facet normal 0 0 -1
    outer loop
      vertex 54 2 0
      vertex 51 2 0
      vertex 54 45 0
    endloop
  endfacet
  facet normal 0 0 -1
    outer loop
      vertex 81.5 2 0
      vertex 78.5 2 0
      vertex 81.5 45 0
    endloop
  endfacet
  facet normal 0 0 -1
    outer loop
      vertex 109 2 0
      vertex 106 2 0
      vertex 109 45 0
    endloop
  endfacet
  facet normal 0 0 -1
    outer loop
      vertex 136.5 2 0
      vertex 133.5 2 0
      vertex 136.5 45 0
    endloop
  endfacet
  facet normal 0 0 -1
    outer loop
      vertex 164 2 0
      vertex 161 2 0
      vertex 164 45 0
    endloop
  endfacet
  facet normal 0 0 -1
    outer loop
      vertex 191.5 2 0
      vertex 188.5 2 0
      vertex 191.5 45 0
    endloop
  endfacet
  facet normal 0 0 -1
    outer loop
      vertex 193.5 45 0
      vertex 196.5 2 0
      vertex 193.5 2 0
    endloop
  endfacet
  facet normal 0 0 -1
    outer loop
      vertex 196.5 2 0
      vertex 193.5 45 0
      vertex 196.5 88 0
    endloop
  endfacet
  facet normal 0 0 -1
    outer loop
      vertex 191.5 45 0
      vertex 196.5 88 0
      vertex 193.5 45 0
    endloop
  endfacet
  facet normal 0 0 -1
    outer loop
      vertex 191.5 45 0
      vertex 188.5 88 0
      vertex 196.5 88 0
    endloop
  endfacet
  facet normal 0 0 -1
    outer loop
      vertex 169 2 0
      vertex 191.5 45 0
      vertex 188.5 2 0
    endloop
  endfacet
  facet normal 0 0 -1
    outer loop
      vertex 196.5 2 0
      vertex 220 0 0
      vertex 196.5 0 0
    endloop
  endfacet
  facet normal 0 0 -1
    outer loop
      vertex 220 0 0
      vertex 196.5 2 0
      vertex 220 90 0
    endloop
  endfacet
  facet normal 0 0 -1
    outer loop
      vertex 196.5 88 0
      vertex 220 90 0
      vertex 196.5 2 0
    endloop
  endfacet
  facet normal -0 0 -1
    outer loop
      vertex 220 90 0
      vertex 196.5 88 0
      vertex 196.5 90 0
    endloop
  endfacet
  facet normal 0 0 -1
    outer loop
      vertex 166 45 0
      vertex 169 2 0
      vertex 166 2 0
    endloop
  endfacet
  facet normal 0 0 -1
    outer loop
      vertex 191.5 45 0
      vertex 166 45 0
      vertex 169 88 0
    endloop
  endfacet
  facet normal 0 0 -1
    outer loop
      vertex 164 45 0
      vertex 169 88 0
      vertex 166 45 0
    endloop
  endfacet
  facet normal 0 0 -1
    outer loop
      vertex 164 45 0
      vertex 161 88 0
      vertex 169 88 0
    endloop
  endfacet
  facet normal 0 0 -1
    outer loop
      vertex 141.5 2 0
      vertex 164 45 0
      vertex 161 2 0
    endloop
  endfacet
  facet normal 0 0 -1
    outer loop
      vertex 169 2 0
      vertex 188.5 2 0
      vertex 188.5 0 0
    endloop
  endfacet
  facet normal 0 0 -1
    outer loop
      vertex 166 45 0
      vertex 191.5 45 0
      vertex 169 2 0
    endloop
  endfacet
  facet normal 0 0 -1
    outer loop
      vertex 169 2 0
      vertex 188.5 0 0
      vertex 169 0 0
    endloop
  endfacet
  facet normal 0 0 -1
    outer loop
      vertex 191.5 45 0
      vertex 169 88 0
      vertex 188.5 88 0
    endloop
  endfacet
  facet normal 0 0 -1
    outer loop
      vertex 188.5 88 0
      vertex 169 88 0
      vertex 188.5 90 0
    endloop
  endfacet
  facet normal -0 0 -1
    outer loop
      vertex 188.5 90 0
      vertex 169 88 0
      vertex 169 90 0
    endloop
  endfacet
  facet normal 0 0 -1
    outer loop
      vertex 138.5 45 0
      vertex 141.5 2 0
      vertex 138.5 2 0
    endloop
  endfacet
  facet normal 0 0 -1
    outer loop
      vertex 164 45 0
      vertex 138.5 45 0
      vertex 141.5 88 0
    endloop
  endfacet
  facet normal 0 0 -1
    outer loop
      vertex 136.5 45 0
      vertex 141.5 88 0
      vertex 138.5 45 0
    endloop
  endfacet
  facet normal 0 0 -1
    outer loop
      vertex 136.5 45 0
      vertex 133.5 88 0
      vertex 141.5 88 0
    endloop
  endfacet
  facet normal 0 0 -1
    outer loop
      vertex 114 2 0
      vertex 136.5 45 0
      vertex 133.5 2 0
    endloop
  endfacet
  facet normal 0 0 -1
    outer loop
      vertex 141.5 2 0
      vertex 161 2 0
      vertex 161 0 0
    endloop
  endfacet
  facet normal 0 0 -1
    outer loop
      vertex 138.5 45 0
      vertex 164 45 0
      vertex 141.5 2 0
    endloop
  endfacet
  facet normal 0 0 -1
    outer loop
      vertex 141.5 2 0
      vertex 161 0 0
      vertex 141.5 0 0
    endloop
  endfacet
  facet normal 0 0 -1
    outer loop
      vertex 164 45 0
      vertex 141.5 88 0
      vertex 161 88 0
    endloop
  endfacet
  facet normal 0 0 -1
    outer loop
      vertex 161 88 0
      vertex 141.5 88 0
      vertex 161 90 0
    endloop
  endfacet
  facet normal -0 0 -1
    outer loop
      vertex 161 90 0
      vertex 141.5 88 0
      vertex 141.5 90 0
    endloop
  endfacet
  facet normal 0 0 -1
    outer loop
      vertex 111 45 0
      vertex 114 2 0
      vertex 111 2 0
    endloop
  endfacet
  facet normal 0 0 -1
    outer loop
      vertex 136.5 45 0
      vertex 111 45 0
      vertex 114 88 0
    endloop
  endfacet
  facet normal 0 0 -1
    outer loop
      vertex 109 45 0
      vertex 114 88 0
      vertex 111 45 0
    endloop
  endfacet
  facet normal 0 0 -1
    outer loop
      vertex 109 45 0
      vertex 106 88 0
      vertex 114 88 0
    endloop
  endfacet
  facet normal 0 0 -1
    outer loop
      vertex 86.5 2 0
      vertex 109 45 0
      vertex 106 2 0
    endloop
  endfacet
  facet normal 0 0 -1
    outer loop
      vertex 114 2 0
      vertex 133.5 2 0
      vertex 133.5 0 0
    endloop
  endfacet
  facet normal 0 0 -1
    outer loop
      vertex 111 45 0
      vertex 136.5 45 0
      vertex 114 2 0
    endloop
  endfacet
  facet normal 0 0 -1
    outer loop
      vertex 114 2 0
      vertex 133.5 0 0
      vertex 114 0 0
    endloop
  endfacet
  facet normal 0 0 -1
    outer loop
      vertex 136.5 45 0
      vertex 114 88 0
      vertex 133.5 88 0
    endloop
  endfacet
  facet normal 0 0 -1
    outer loop
      vertex 133.5 88 0
      vertex 114 88 0
      vertex 133.5 90 0
    endloop
  endfacet
  facet normal -0 0 -1
    outer loop
      vertex 133.5 90 0
      vertex 114 88 0
      vertex 114 90 0
    endloop
  endfacet
  facet normal 0 0 -1
    outer loop
      vertex 83.5 45 0
      vertex 86.5 2 0
      vertex 83.5 2 0
    endloop
  endfacet
  facet normal 0 0 -1
    outer loop
      vertex 109 45 0
      vertex 83.5 45 0
      vertex 86.5 88 0
    endloop
  endfacet
  facet normal 0 0 -1
    outer loop
      vertex 81.5 45 0
      vertex 86.5 88 0
      vertex 83.5 45 0
    endloop
  endfacet
  facet normal 0 0 -1
    outer loop
      vertex 81.5 45 0
      vertex 78.5 88 0
      vertex 86.5 88 0
    endloop
  endfacet
  facet normal 0 0 -1
    outer loop
      vertex 59 2 0
      vertex 81.5 45 0
      vertex 78.5 2 0
    endloop
  endfacet
  facet normal 0 0 -1
    outer loop
      vertex 86.5 2 0
      vertex 106 2 0
      vertex 106 0 0
    endloop
  endfacet
  facet normal 0 0 -1
    outer loop
      vertex 83.5 45 0
      vertex 109 45 0
      vertex 86.5 2 0
    endloop
  endfacet
  facet normal 0 0 -1
    outer loop
      vertex 86.5 2 0
      vertex 106 0 0
      vertex 86.5 0 0
    endloop
  endfacet
  facet normal 0 0 -1
    outer loop
      vertex 109 45 0
      vertex 86.5 88 0
      vertex 106 88 0
    endloop
  endfacet
  facet normal 0 0 -1
    outer loop
      vertex 106 88 0
      vertex 86.5 88 0
      vertex 106 90 0
    endloop
  endfacet
  facet normal -0 0 -1
    outer loop
      vertex 106 90 0
      vertex 86.5 88 0
      vertex 86.5 90 0
    endloop
  endfacet
  facet normal 0 0 -1
    outer loop
      vertex 56 45 0
      vertex 59 2 0
      vertex 56 2 0
    endloop
  endfacet
  facet normal 0 0 -1
    outer loop
      vertex 81.5 45 0
      vertex 56 45 0
      vertex 59 88 0
    endloop
  endfacet
  facet normal 0 0 -1
    outer loop
      vertex 54 45 0
      vertex 59 88 0
      vertex 56 45 0
    endloop
  endfacet
  facet normal 0 0 -1
    outer loop
      vertex 54 45 0
      vertex 51 88 0
      vertex 59 88 0
    endloop
  endfacet
  facet normal 0 0 -1
    outer loop
      vertex 31.5 2 0
      vertex 54 45 0
      vertex 51 2 0
    endloop
  endfacet
  facet normal 0 0 -1
    outer loop
      vertex 59 2 0
      vertex 78.5 2 0
      vertex 78.5 0 0
    endloop
  endfacet
  facet normal 0 0 -1
    outer loop
      vertex 56 45 0
      vertex 81.5 45 0
      vertex 59 2 0
    endloop
  endfacet
  facet normal 0 0 -1
    outer loop
      vertex 59 2 0
      vertex 78.5 0 0
      vertex 59 0 0
    endloop
  endfacet
  facet normal 0 0 -1
    outer loop
      vertex 81.5 45 0
      vertex 59 88 0
      vertex 78.5 88 0
    endloop
  endfacet
  facet normal 0 0 -1
    outer loop
      vertex 78.5 88 0
      vertex 59 88 0
      vertex 78.5 90 0
    endloop
  endfacet
  facet normal -0 0 -1
    outer loop
      vertex 78.5 90 0
      vertex 59 88 0
      vertex 59 90 0
    endloop
  endfacet
  facet normal 0 0 -1
    outer loop
      vertex 28.5 45 0
      vertex 31.5 2 0
      vertex 28.5 2 0
    endloop
  endfacet
  facet normal 0 0 -1
    outer loop
      vertex 54 45 0
      vertex 28.5 45 0
      vertex 31.5 88 0
    endloop
  endfacet
  facet normal 0 0 -1
    outer loop
      vertex 26.5 45 0
      vertex 31.5 88 0
      vertex 28.5 45 0
    endloop
  endfacet
  facet normal 0 0 -1
    outer loop
      vertex 26.5 45 0
      vertex 23.5 88 0
      vertex 31.5 88 0
    endloop
  endfacet
  facet normal 0 0 -1
    outer loop
      vertex 0 0 0
      vertex 26.5 45 0
      vertex 23.5 2 0
    endloop
  endfacet
  facet normal 0 0 -1
    outer loop
      vertex 31.5 2 0
      vertex 51 2 0
      vertex 51 0 0
    endloop
  endfacet
  facet normal 0 0 -1
    outer loop
      vertex 28.5 45 0
      vertex 54 45 0
      vertex 31.5 2 0
    endloop
  endfacet
  facet normal 0 0 -1
    outer loop
      vertex 31.5 2 0
      vertex 51 0 0
      vertex 31.5 0 0
    endloop
  endfacet
  facet normal 0 0 -1
    outer loop
      vertex 54 45 0
      vertex 31.5 88 0
      vertex 51 88 0
    endloop
  endfacet
  facet normal 0 0 -1
    outer loop
      vertex 51 88 0
      vertex 31.5 88 0
      vertex 51 90 0
    endloop
  endfacet
  facet normal -0 0 -1
    outer loop
      vertex 51 90 0
      vertex 31.5 88 0
      vertex 31.5 90 0
    endloop
  endfacet
  facet normal 0 0 -1
    outer loop
      vertex 0 0 0
      vertex 23.5 2 0
      vertex 23.5 0 0
    endloop
  endfacet
  facet normal 0 0 -1
    outer loop
      vertex 0 90 0
      vertex 26.5 45 0
      vertex 0 0 0
    endloop
  endfacet
  facet normal 0 0 -1
    outer loop
      vertex 26.5 45 0
      vertex 0 90 0
      vertex 23.5 88 0
    endloop
  endfacet
  facet normal 0 0 -1
    outer loop
      vertex 23.5 88 0
      vertex 0 90 0
      vertex 23.5 90 0
    endloop
  endfacet
  facet normal 0 -1 0
    outer loop
      vertex 196.5 0 0
      vertex 220 0 2
      vertex 196.5 0 2
    endloop
  endfacet
  facet normal 0 -1 -0
    outer loop
      vertex 220 0 2
      vertex 196.5 0 0
      vertex 220 0 0
    endloop
  endfacet
  facet normal 0 -1 0
    outer loop
      vertex 0 0 0
      vertex 23.5 0 2
      vertex 0 0 2
    endloop
  endfacet
  facet normal 0 -1 -0
    outer loop
      vertex 23.5 0 2
      vertex 0 0 0
      vertex 23.5 0 0
    endloop
  endfacet
  facet normal 0 -1 0
    outer loop
      vertex 31.5 0 0
      vertex 51 0 2
      vertex 31.5 0 2
    endloop
  endfacet
  facet normal 0 -1 -0
    outer loop
      vertex 51 0 2
      vertex 31.5 0 0
      vertex 51 0 0
    endloop
  endfacet
  facet normal 0 -1 0
    outer loop
      vertex 59 0 0
      vertex 78.5 0 2
      vertex 59 0 2
    endloop
  endfacet
  facet normal 0 -1 -0
    outer loop
      vertex 78.5 0 2
      vertex 59 0 0
      vertex 78.5 0 0
    endloop
  endfacet
  facet normal 0 -1 0
    outer loop
      vertex 86.5 0 0
      vertex 106 0 2
      vertex 86.5 0 2
    endloop
  endfacet
  facet normal 0 -1 -0
    outer loop
      vertex 106 0 2
      vertex 86.5 0 0
      vertex 106 0 0
    endloop
  endfacet
  facet normal 0 -1 0
    outer loop
      vertex 114 0 0
      vertex 133.5 0 2
      vertex 114 0 2
    endloop
  endfacet
  facet normal 0 -1 -0
    outer loop
      vertex 133.5 0 2
      vertex 114 0 0
      vertex 133.5 0 0
    endloop
  endfacet
  facet normal 0 -1 0
    outer loop
      vertex 141.5 0 0
      vertex 161 0 2
      vertex 141.5 0 2
    endloop
  endfacet
  facet normal 0 -1 -0
    outer loop
      vertex 161 0 2
      vertex 141.5 0 0
      vertex 161 0 0
    endloop
  endfacet
  facet normal 0 -1 0
    outer loop
      vertex 169 0 0
      vertex 188.5 0 2
      vertex 169 0 2
    endloop
  endfacet
  facet normal 0 -1 -0
    outer loop
      vertex 188.5 0 2
      vertex 169 0 0
      vertex 188.5 0 0
    endloop
  endfacet
  facet normal 0 1 -0
    outer loop
      vertex 220 90 0
      vertex 196.5 90 2
      vertex 220 90 2
    endloop
  endfacet
  facet normal 0 1 0
    outer loop
      vertex 196.5 90 2
      vertex 220 90 0
      vertex 196.5 90 0
    endloop
  endfacet
  facet normal 0 1 -0
    outer loop
      vertex 23.5 90 0
      vertex 0 90 2
      vertex 23.5 90 2
    endloop
  endfacet
  facet normal 0 1 0
    outer loop
      vertex 0 90 2
      vertex 23.5 90 0
      vertex 0 90 0
    endloop
  endfacet
  facet normal 0 1 -0
    outer loop
      vertex 51 90 0
      vertex 31.5 90 2
      vertex 51 90 2
    endloop
  endfacet
  facet normal 0 1 0
    outer loop
      vertex 31.5 90 2
      vertex 51 90 0
      vertex 31.5 90 0
    endloop
  endfacet
  facet normal 0 1 -0
    outer loop
      vertex 78.5 90 0
      vertex 59 90 2
      vertex 78.5 90 2
    endloop
  endfacet
  facet normal 0 1 0
    outer loop
      vertex 59 90 2
      vertex 78.5 90 0
      vertex 59 90 0
    endloop
  endfacet
  facet normal 0 1 -0
    outer loop
      vertex 106 90 0
      vertex 86.5 90 2
      vertex 106 90 2
    endloop
  endfacet
  facet normal 0 1 0
    outer loop
      vertex 86.5 90 2
      vertex 106 90 0
      vertex 86.5 90 0
    endloop
  endfacet
  facet normal 0 1 -0
    outer loop
      vertex 133.5 90 0
      vertex 114 90 2
      vertex 133.5 90 2
    endloop
  endfacet
  facet normal 0 1 0
    outer loop
      vertex 114 90 2
      vertex 133.5 90 0
      vertex 114 90 0
    endloop
  endfacet
  facet normal 0 1 -0
    outer loop
      vertex 161 90 0
      vertex 141.5 90 2
      vertex 161 90 2
    endloop
  endfacet
  facet normal 0 1 0
    outer loop
      vertex 141.5 90 2
      vertex 161 90 0
      vertex 141.5 90 0
    endloop
  endfacet
  facet normal 0 1 -0
    outer loop
      vertex 188.5 90 0
      vertex 169 90 2
      vertex 188.5 90 2
    endloop
  endfacet
  facet normal 0 1 0
    outer loop
      vertex 169 90 2
      vertex 188.5 90 0
      vertex 169 90 0
    endloop
  endfacet
endsolid OpenSCAD_Model
